<svg xmlns="http://www.w3.org/2000/svg" width="205" height="45" viewBox="0 0 205 45"><g transform="translate(0 2)"><path d="M126.611,15.008a11.7,11.7,0,0,0-18.48,0,12.133,12.133,0,0,0-2.2,7.142,12.133,12.133,0,0,0,2.2,7.142,11.7,11.7,0,0,0,18.48,0,12.142,12.142,0,0,0,2.2-7.142,12.142,12.142,0,0,0-2.2-7.142Zm-3.66,9.821a6.128,6.128,0,0,1-5.589,4.526c-2.759.062-4.75-2.018-5.58-4.526a8.276,8.276,0,0,1,0-5.357,6.127,6.127,0,0,1,5.58-4.526c2.75-.062,4.75,2.018,5.589,4.526a8.285,8.285,0,0,1,0,5.348ZM38.806,33.22a.661.661,0,0,1-.661.661H34.307a.661.661,0,0,1-.661-.661V1.661A.661.661,0,0,1,34.307,1h3.839a.661.661,0,0,1,.661.661Zm-9.017,0a.661.661,0,0,1-.661.661H25.29a.661.661,0,0,1-.661-.661V1.661A.661.661,0,0,1,25.281,1H29.12a.661.661,0,0,1,.661.661V33.22Zm75.279-21.427v2.678a.7.7,0,0,1-.893.759c-4.339-.893-7.008,1.036-7.008,5.044V33.22a.661.661,0,0,1-.661.661H92.668a.661.661,0,0,1-.661-.661V20a8.928,8.928,0,0,1,2.83-6.687,9.963,9.963,0,0,1,7.026-2.839,14.9,14.9,0,0,1,2.678.25c.455.152.527.42.527,1.107ZM88.632,22.141A11.972,11.972,0,0,0,86.436,15a11.7,11.7,0,0,0-18.48,0,12.561,12.561,0,0,0,0,14.284A11.365,11.365,0,0,0,77.2,33.81a11.785,11.785,0,0,0,6.58-1.982v2.821c0,3.83-3.348,4.526-5.491,4.66a25.229,25.229,0,0,1-4.41-.241c-.589-.089-1,0-1,.634v3.393a.58.58,0,0,0,.607.554c4.973.429,8.321.339,10.838-1.1a8.2,8.2,0,0,0,3.669-4.669,15.615,15.615,0,0,0,.634-4.66V22.141ZM77.2,29.337c-2.759,0-4.75-2.018-5.589-4.526a8.276,8.276,0,0,1,0-5.357c.839-2.509,2.83-4.526,5.589-4.526,6.169,0,6.374,6.294,6.374,7.2S83.365,29.337,77.2,29.337ZM21.112,19.829c0-3.044-.679-5.357-2.143-6.955s-4.41-2.393-7.142-2.393a15.481,15.481,0,0,0-7.812,2.08.491.491,0,0,0-.241.429l.205,3.357a.6.6,0,0,0,.982.348c3.348-2.062,7.365-2.446,9.41-1.411a3.571,3.571,0,0,1,1.786,3.223V19h-5.58c-2.4,0-9.758.893-9.758,7.651v.071A6.553,6.553,0,0,0,3.2,32.149a9.428,9.428,0,0,0,5.964,1.705H20.46a.661.661,0,0,0,.661-.661V19.8Zm-4.955,9.9H9.488a4.125,4.125,0,0,1-2.366-.83,2.625,2.625,0,0,1-1.116-2.2c0-1.205.812-3.616,4.875-3.616h5.276ZM52.939,10.481c-6.83,0-9.821,4.58-10.776,8.455a13.017,13.017,0,0,0-.393,3.2,12.142,12.142,0,0,0,2.2,7.142,11.722,11.722,0,0,0,9.24,4.526c3.687.134,6.151-.491,8.035-1.562a1.045,1.045,0,0,0,.446-1.134V28.132c0-.607-.366-.893-.893-.527a11.651,11.651,0,0,1-7.428,1.786A6.08,6.08,0,0,1,47.4,23.971H62.581a.625.625,0,0,0,.625-.616c.268-4.151-.937-12.874-10.267-12.874Zm-5.455,9.383a5.16,5.16,0,0,1,5.464-4.919A4.589,4.589,0,0,1,57.8,19.864Z" transform="translate(-0.809 -1)" fill="#ff5a00"/></g><text transform="translate(136 35)" fill="#222" font-size="33" font-family="OpenSans-Light, Open Sans" font-weight="300"><tspan x="0" y="0">Tech</tspan></text></svg>