<?xml version="1.0" encoding="utf-8"?>
<svg version="1.1" id="Layer_1" xmlns="http://www.w3.org/2000/svg" x="0px" y="0px"
     viewBox="0 0 32 32" style="enable-background:new 0 0 32 32;" xml:space="preserve" width="32" height="32">
<path d="M11.3,23.6c0,0.8-0.3,1.5-0.8,2c-0.6,0.6-1.2,0.8-2,0.8s-1.5-0.3-2-0.8c-0.6-0.6-0.8-1.2-0.8-2c0-0.8,0.3-1.5,0.8-2
	s1.2-0.8,2-0.8s1.5,0.3,2,0.8C11,22.1,11.3,22.8,11.3,23.6z M18.8,25.4c0,0.3-0.1,0.5-0.3,0.7c-0.2,0.2-0.4,0.3-0.7,0.3h-2
	c-0.2,0-0.5-0.1-0.6-0.2C15.1,26,15,25.8,15,25.6c-0.2-2.3-1.1-4.2-2.7-5.8S8.7,17.3,6.4,17c-0.2,0-0.5-0.1-0.6-0.3
	c-0.2-0.2-0.2-0.4-0.2-0.6v-2c0-0.3,0.1-0.5,0.3-0.7c0.2-0.2,0.4-0.3,0.6-0.3h0.1c1.6,0.1,3.1,0.5,4.5,1.2c1.4,0.7,2.7,1.6,3.8,2.7
	c1.1,1.1,2,2.4,2.7,3.8C18.3,22.3,18.7,23.8,18.8,25.4z M26.4,25.4c0,0.3-0.1,0.5-0.3,0.7c-0.2,0.2-0.4,0.3-0.7,0.3h-2.1
	c-0.3,0-0.5-0.1-0.7-0.3c-0.2-0.2-0.3-0.4-0.3-0.6c-0.1-2.1-0.6-4.1-1.5-6.1c-0.9-1.9-2-3.6-3.4-5c-1.4-1.4-3.1-2.6-5-3.4
	c-1.9-0.9-3.9-1.4-6.1-1.5C6.2,9.6,6,9.5,5.8,9.3C5.7,9.1,5.6,8.9,5.6,8.6V6.5c0-0.3,0.1-0.5,0.3-0.7C6,5.7,6.3,5.6,6.5,5.6h0
	c2.6,0.1,5.1,0.7,7.4,1.8s4.5,2.5,6.3,4.4c1.8,1.8,3.3,3.9,4.4,6.3C25.7,20.4,26.3,22.8,26.4,25.4z"/>
</svg>
