<?xml version="1.0" encoding="utf-8"?>
<!-- Generator: Adobe Illustrator 18.1.1, SVG Export Plug-In . SVG Version: 6.00 Build 0)  -->
<svg version="1.1" id="Calque_1" xmlns="http://www.w3.org/2000/svg" xmlns:xlink="http://www.w3.org/1999/xlink" x="0px" y="0px"
	 viewBox="0 0 100 100" enable-background="new 0 0 100 100" xml:space="preserve">
<path d="M99.994,17.106c-0.002-2.645,0.118-5.221-1.346-7.547c-1.16-1.843-3.078-3.267-5.173-3.857
	c-2.575-0.725-5.534-0.527-8.183-0.526C73.536,5.181,61.779,5,50.023,5c-1.294,0-2.588,0-3.883,0c-1.618,0-3.236,0-4.854,0
	c-5.824,0-11.649,0-17.473,0c-2.912,0-5.824,0-8.736,0c-1.589,0-3.177,0-4.765,0c-1.238,0-2.44,0.162-3.644,0.502
	c-4.159,1.173-6.66,5.044-6.667,9.261c-0.009,5.859,0.011,11.762,0.01,17.621C0.009,38.16-0.102,43.959,0.292,49.725
	c0.366,5.366,1.839,10.733,4.07,15.617c4.042,8.849,10.747,16.301,18.928,21.523c8.911,5.688,19.652,8.405,30.2,7.661
	c10.364-0.731,20.423-4.805,28.416-11.431c7.46-6.185,13.094-14.321,15.939-23.606c1.615-5.272,2.146-10.767,2.151-16.264
	c0.005-5.804,0.007-11.608,0.005-17.412C99.999,22.91,99.997,20.008,99.994,17.106z M80.172,39.784
	c-0.766,2.548-3.206,4.279-5.046,6.045c-4.466,4.287-8.939,8.568-13.407,12.852c-2.286,2.192-4.531,4.44-6.864,6.583
	c-1.756,1.613-4.103,2.329-6.451,1.76c-2.681-0.65-4.589-3.154-6.492-4.979c-2.174-2.086-4.348-4.172-6.522-6.258
	c-4.503-4.318-9.108-8.553-13.519-12.964c-3.391-3.392-2.661-9.342,1.927-11.31c2.125-0.912,4.631-0.724,6.544,0.587
	c1.195,0.819,2.199,1.962,3.243,2.96c1.129,1.08,2.257,2.16,3.385,3.242c4.36,4.182,8.631,8.484,13.098,12.551
	c5.069-4.813,10.095-9.673,15.138-14.515c2.103-2.02,4.188-4.759,7.221-5.289c2.384-0.417,4.875,0.505,6.428,2.358
	C80.298,35.127,80.82,37.626,80.172,39.784z"/>
</svg>
