<?xml version="1.0" encoding="utf-8"?>
<!-- Generator: Adobe Illustrator 18.0.0, SVG Export Plug-In . SVG Version: 6.00 Build 0)  -->
<!DOCTYPE svg PUBLIC "-//W3C//DTD SVG 1.1//EN" "http://www.w3.org/Graphics/SVG/1.1/DTD/svg11.dtd">
<svg version="1.1" xmlns="http://www.w3.org/2000/svg" xmlns:xlink="http://www.w3.org/1999/xlink" x="0px" y="0px"
	 viewBox="0 0 864 504" enable-background="new 0 0 864 504" xml:space="preserve">
<g id="Warstwa_3">
</g>
<g id="Warstwa_2">
	<g>
		<g>
			<g>
				<path fill="#E55239" d="M186.6,459.9H66.8c-13.8,0-25-11.2-25-25V73.2h340.4v361.6c0,13.8-11.2,25-25,25H236.8
					c-13.8,0-24.9,11.2-24.9,25C211.9,471.1,200.4,459.9,186.6,459.9z"/>
				<path d="M218,484.9h-12.3c0-10.4-8.6-18.9-19.2-18.9H66.8c-17.2,0-31.2-14-31.2-31.2V67.1h352.6v367.8c0,17.2-14,31.2-31.2,31.2
					H236.8C226.4,466,218,474.5,218,484.9z M47.9,79.4v355.5c0,10.4,8.5,18.9,18.9,18.9h119.8c10.3,0,19.5,5,25.3,12.6
					c5.7-7.7,14.7-12.6,24.9-12.6H357c10.4,0,18.9-8.5,18.9-18.9V79.4H47.9z"/>
			</g>
			<g>
				<path fill="#FFFFFF" d="M304.9,50.3c-4.9-1.6-3.6-2.1-3.8-3.8c-3.2-2.6-9.6-9.4-17.7-10c-7.7-0.5-5.8-0.6-6.8-2.5
					c-5.9-3.1-16.1-0.3-16.1-0.3l-8.1-15h-12.9l-18.7,3.7c0,0,0.7,91.4,3.1,94.1l24-3.6l10.5,2.1l19.5-3.3l10.5-8.1l9.9-9.3l6-36.3
					C304.2,58,312,52.6,304.9,50.3z"/>
				<g>
					<path fill="#FFFFFF" d="M218.6,40.3c0,0-86.4-21.8-143.4-4c0,0-23,36.8-25.4,40.8c0,0,106.4-11,169.2,6.4L218.6,40.3z"/>
					<path d="M220.5,38.9l-1.4-0.3c-0.4-0.1-44.3-11-89.7-11c-21.3,0-39.7,2.4-54.7,7.1L74,34.8l-0.4,0.6
						c-0.2,0.4-23,36.8-25.4,40.8l-2,4.4c0,0,99.6-4.3,172.2,4.8c0.6,0.1,2.3,0.7,2.3,0.7L220.5,38.9z M125.5,70.6h-2.5
						c-32.1,0-56.4,1-66.1,1.9c5.6-9.1,18.1-26.9,20.7-30.9c14.6-4.4,31.2-7.9,51.8-7.9c40.4,0,77.2,8.8,85,10.6l0.3,34.5
						C191.1,72.5,164.4,70.6,125.5,70.6z"/>
				</g>
			</g>
			<path d="M311.4,243.3c0,0-16.4-23.2-5-37.9c11.4-14.7,28.8-37.8,31.5-42.3c2.7-4.5,8.8-17.4,3.1-31.5c-5.7-14.1-10.2-20-10.2-20
				s-1-1.6,0.4-2.9c1.4-1.2,8-5,6.1-18.4c-0.8-5.9-12.3-13.9-12.3-13.9s0.2-14.7-10.6-21.9s-17.2-5.1-20.6-1.4
				c-3.5,3.7-10.8,13.9-11.2,22.1c-0.4,8.2,2.9,13.3,6.5,17.4c3.7,4.1,0.2,3.3-2,1s-11.2-13.3-5.7-26.6
				c5.5-13.3,12.5-19.8,19.8-20.6c0,0-1.6-4.9-7.2-7.4s-17.4-5.9-25.5,4.1c-8.2,10-10.6,27.4-8.8,38.2c0,0,15.5,2.7,16.8,8.2
				c1.2,5.5,3.5,9.2,1.2,15.5c-2.2,6.3-13.7,6.5-15.3,6.3c0,0,9-2.9,11.9-6.7s1.2-12.3-1-14.3c-2.2-2-13.7-8-26.2-6.5
				c0,0-4.3,0-7.8,7.2c-3.5,7.2-3.3,13.9,5.1,21.5c0,0-13.9,1.4-16.8,1.6c-2.9,0.2-5.1-27.6-5.3-39.8c-0.2-12.3-0.2-43.3,0.4-45
				c0.6-1.6-2-6.3,7.2-6.9c9.2-0.6,17.8-1,20.6-1.4c2.9-0.4,4.5,2.7,6.3,11.6c0,0-12.3,10-15.3,20.6s-0.6,22.3,1,24.5
				c1.6,2.2,2.7,3.3,5.1,3.5c2.5,0.2,9-0.6,9-0.6s-2.9-9.4-0.6-17.2c2.2-7.8,2.9-20.2,20.6-29.4c0,0-6.3-6.3-15.3-3.3
				c0,0-2.9-9-4.7-11.4c-1.8-2.5-1.2-3.9-7.6-3.5c-12.8,0.9-15.6,1-22.4,1.3c-1.4,0.1-7.3-0.3-7.9,6c-0.6,6.3-2,34.3-2,41.7
				s3.9,42.7,4.9,48.6c1,5.9,1.8,4.9,4.9,4.5c3.1-0.4,20-2.2,20-2.2s-0.4,4.3,16.8,3.5c17.2-0.8,20.8-8.6,26.6-9.6
				c5.7-1,19.8,0.8,22.3,4.1c2.5,3.3,11.4,18.6,11.9,23.9c0.4,5.3,1.4,11.9-3.5,19.4c-4.9,7.6-22.5,27.2-28,29.6
				c-5.5,2.5-15,7.7-27.8-5.1l-4.2,1.3l37.4,65L311.4,243.3z"/>
			<path d="M253.7,33c0,0,1.4-10-4.7-9.6c-6.1,0.4-17.4,1.8-21,1.8c-3.7,0-3.7,2.2-2.7,3.1c1,0.8,11.2,4.7,19.2,2.9
				S249.8,35.8,253.7,33z"/>
			<path d="M226.3,88.3c0,0-0.8-3.7-1.4-2.5c-0.6,1.2,2.2,21.9,4.1,25.1c0,0,6.7,1.6,8.2,0.4c1.4-1.2,1.2-3.5-0.8-6.1
				C233.8,102,228.1,100.2,226.3,88.3z"/>
			<path fill="#FFFFFF" d="M322.2,79.6c0.8,0.7,0.9,1.1-0.3,1.9c-1.2,0.8-7.9,3.5-8.8,19.6c0,0,0.6,4-2.1,1.5
				c-2.7-2.5-4.9-4.6-3.9-12.2c1-7.5,6.1-15.5,11.6-13C318.7,77.4,321.5,78.9,322.2,79.6z"/>
			<path fill="#FFFFFF" d="M325.6,83.8c0,0,1.2-0.6,2.1-0.2c1,0.3,7,2.5,7.1,11.4c0.1,8.8-7.3,13-9.8,13.3c-2.5,0.3-9-0.1-8.9-5.4
				C316.2,97.4,316.2,88.6,325.6,83.8z"/>
			<path d="M330.2,95.1c0,0,3.7-5.9,3.3,0.4c-0.4,6.3-8.3,11.1-10.7,10.5c-2.5-0.6-4.2-3.5-1.2-3.6
				C324.6,102.3,329.1,98.7,330.2,95.1z"/>
			<path d="M330.6,88.3c0,0-3.2-3.6-5.9-1.1c-2.8,2.5,1.5,2,2.4,2C327.8,89.1,331.2,89.4,330.6,88.3z"/>
			<g>
				<path fill="#FFFFFF" d="M125.6,101c0,0,120.1,47.8,176.5,147.1s57.6,197.4,29.4,220.7c-28.2,23.3-29.4-7.8-38-19.6
					c-5.6-7.7-40.5-62.5-93.2-23.3s-85.9,57.3-80.9,19.6C142.8,269,167.3,248.1,125.6,101z"/>
				<path d="M314.4,488.3c-15.6,0-21.7-14.5-25.7-24.2c-1.4-3.3-2.8-6.7-4.1-8.4c-0.3-0.4-0.6-0.9-1-1.4
					c-14.6-20.8-30.1-31.3-46.1-31.3c-9.7,0-20,4-30.6,11.8c-41.1,30.6-62.8,42.5-77.4,42.5c-8.2,0-13.1-3.7-15.8-6.7
					c-5.1-5.8-6.8-14.4-5.2-26.5c5.6-42.5,11.2-75.4,16.1-104.4C139.7,250.4,146,213.5,115,104l-6.1-21.5l20.8,8.3
					c1.3,0.5,31.5,12.7,69.1,37.3c34.9,22.9,82.7,61.4,113,114.6c26.4,46.5,43.4,97.4,47.8,143.2c4.2,43.6-3.4,76.9-21,91.4
					C329.5,484.8,321.9,488.3,314.4,488.3C314.4,488.3,314.4,488.3,314.4,488.3z M237.5,400.8c23.5,0,45.1,13.7,64.1,40.7
					c0.3,0.5,0.6,0.9,0.8,1.2c2.8,3.8,4.7,8.5,6.6,12.9c1.4,3.3,3.9,9.2,5.5,10.6c0.7-0.1,3.7-0.8,9.9-5.9
					c8.5-7.1,17.1-30.2,13.1-72.3c-4.1-42.8-20.1-90.5-45-134.4C252.6,183.3,178.6,139.3,142.4,121c25.1,97.3,18.1,138.7,3.9,222.4
					c-4.9,28.8-10.4,61.5-16,103.6c-0.6,4.4-0.4,6.9-0.2,8.2c9.1-0.6,30.4-13.5,63.6-38.1C208.2,406.3,222.9,400.8,237.5,400.8z"/>
			</g>
			<path fill="#FFFFFF" d="M125.6,101c0,0,120.1,47.8,176.5,147.1s58.3,198.2,29.4,220.7c-22.1,17.2-31.9-12.3-38-19.6
				s-40.5-62.5-93.2-23.3s-85.9,57.3-80.9,19.6C142.8,269,167.3,248.1,125.6,101z"/>
			<path d="M125.6,101c0,0,77.2,20.2,136.7,85.2l-119.5,48.4c0,0,0.6-49-6.1-72.3S125.6,101,125.6,101z"/>
			<g>
				
					<ellipse transform="matrix(-0.9615 0.2749 -0.2749 -0.9615 472.6197 371.2776)" fill="#FF0000" cx="210.3" cy="218.8" rx="56.4" ry="41.7"/>
				<path d="M201.4,264.8C201.4,264.8,201.4,264.8,201.4,264.8c-24.2,0-43.1-11.7-48.3-29.7c-3.3-11.7-0.4-24.3,8.3-35.6
					c8.5-11,21.5-19.5,36.6-23.8c7-2,14.1-3,21.2-3c24.2,0,43.1,11.7,48.3,29.7c6.8,23.7-13.3,50.4-44.9,59.4
					C215.6,263.8,208.5,264.8,201.4,264.8z M219.2,178.8c-6.5,0-13,0.9-19.5,2.8c-13.9,4-25.7,11.6-33.4,21.6
					c-7.5,9.7-10,20.4-7.3,30.2c4.3,15.1,21.4,25.3,42.4,25.3c6.5,0,13-0.9,19.5-2.8c28.3-8.1,46.5-31.3,40.7-51.8
					C257.2,189,240.2,178.8,219.2,178.8z"/>
			</g>
			<path d="M238,220.3c0,0,8.8-10,14.1-8.3c5.3,1.8,4.7,9.1,1.2,15.6c-3.5,6.5-20,24.8-42.7,24.8c-22.7,0-5-13.1,0.6-14.7
				C221.2,234.8,231.8,226.2,238,220.3z"/>
			<g>
				<g>
					<g enable-background="new    ">
						<defs>
							<polygon id="SVGID_1_" enable-background="new    " points="-1,393.9 57.1,246.4 220.5,251.7 178.8,465.8 							"/>
						</defs>
						<clipPath id="SVGID_2_">
							<use xlink:href="#SVGID_1_"  overflow="visible"/>
						</clipPath>
						<g clip-path="url(#SVGID_2_)">
							<g>
								<g>
									<g>
										<path d="M75.6,414.4c-10.7-4-19.6-10.2-26.6-17.8c-6.7-7.3-11.6-15.8-14.8-25c-3-8.8-4.4-18.3-4.1-27.9
											c0.3-9.3,2.2-18.9,5.9-28.3c3.6-9.2,8.5-17.6,14.5-25c5.9-7.3,12.8-13.7,20.4-19c7.7-5.3,16.2-9.5,25.1-12.3
											c9.1-2.8,18.8-4.2,28.7-3.8c10.3,0.5,19.9,2.9,28.5,7c9,4.3,17,10.4,23.4,18c6.7,8,11.8,17.5,14.5,28.3
											c2.9,11.2,3.3,23.5,0.7,36.4c-2.7,13.2-8.4,25.5-16.3,36.1c-8,10.7-18,19.6-29.3,26.1c-11.1,6.4-23.3,10.4-35.6,11.7
											C98.7,420,86.8,418.6,75.6,414.4 M126.6,248.7c-10.8-0.4-21.4,1.3-31.2,4.4c-9.6,3.1-18.8,7.7-27.1,13.4
											c-8.2,5.7-15.7,12.6-22.1,20.6c-6.4,8-11.8,17-15.8,27c-4,10.2-6.2,20.6-6.7,30.8c-0.5,10.5,0.9,20.9,4.1,30.5
											c3.3,10.1,8.6,19.6,15.8,27.7c7.6,8.5,17.3,15.6,29,20.2c12.3,4.9,25.5,6.7,38.8,5.6c13.8-1.2,27.4-5.5,39.9-12.6
											c12.7-7.2,23.9-17.1,32.8-29.2c8.8-12,15-25.7,17.9-40.5c2.8-14.4,2.1-28.1-1.3-40.5c-3.3-11.8-9-22.3-16.6-31
											c-7.2-8.2-16.1-14.8-26.1-19.3C148.4,251.5,137.9,249.1,126.6,248.7"/>
										<path fill="#FFFFFF" d="M123.9,258c-9.5-0.5-18.9,0.8-27.7,3.5c-8.6,2.7-16.8,6.7-24.2,11.8c-7.4,5.1-14.1,11.3-19.7,18.3
											c-5.7,7.1-10.5,15.2-13.9,24.1c-3.5,9.1-5.3,18.3-5.6,27.3c-0.3,9.3,1.1,18.3,4.1,26.8c3.1,8.8,7.9,16.9,14.4,23.8
											c6.8,7.2,15.3,13.1,25.5,16.9c10.7,3.9,22.1,5.2,33.4,4c11.7-1.2,23.3-5.1,33.9-11.3c10.7-6.2,20.3-14.7,27.9-24.9
											c7.5-10.1,13-21.8,15.6-34.4c2.6-12.2,2.3-24-0.4-34.7c-2.6-10.3-7.3-19.5-13.7-27.1c-6.1-7.3-13.7-13.2-22.3-17.4
											C143,260.8,133.8,258.5,123.9,258"/>
										<path d="M76.8,410.6c-10.2-3.8-18.8-9.6-25.5-16.9c-6.5-6.9-11.3-15-14.4-23.8c-3-8.4-4.4-17.5-4.1-26.8
											c0.3-9,2.1-18.2,5.6-27.3c3.4-8.9,8.2-17,13.9-24.1c5.7-7.1,12.4-13.3,19.7-18.3c7.4-5.1,15.6-9.1,24.2-11.8
											c8.8-2.7,18.1-4,27.7-3.5c9.9,0.5,19.1,2.9,27.4,6.8c8.6,4.1,16.2,10.1,22.3,17.4c6.4,7.7,11.1,16.9,13.7,27.1
											c2.7,10.7,3,22.5,0.4,34.7c-2.7,12.6-8.1,24.2-15.6,34.4c-7.6,10.2-17.1,18.7-27.9,24.9c-10.6,6.2-22.2,10-33.9,11.3
											C98.8,415.8,87.5,414.5,76.8,410.6 M124.7,255.3c-9.9-0.4-19.6,1-28.7,3.8c-8.9,2.8-17.4,7-25.1,12.3
											c-7.6,5.3-14.6,11.7-20.4,19c-5.9,7.4-10.9,15.8-14.5,25c-3.7,9.4-5.6,19-5.9,28.3c-0.3,9.6,1.1,19.1,4.1,27.9
											c3.2,9.2,8.1,17.7,14.8,25c7,7.6,15.9,13.8,26.6,17.8c11.1,4.2,23.1,5.6,35,4.4c12.3-1.2,24.5-5.3,35.6-11.7
											c11.3-6.5,21.3-15.4,29.3-26.1c7.9-10.7,13.6-22.9,16.3-36.1c2.7-12.8,2.2-25.2-0.7-36.4c-2.8-10.7-7.8-20.3-14.5-28.3
											c-6.4-7.6-14.4-13.7-23.4-18C144.6,258.1,135,255.7,124.7,255.3"/>
									</g>
								</g>
							</g>
						</g>
					</g>
				</g>
			</g>
			<g>
				<g>
					<g enable-background="new    ">
						<defs>
							<polygon id="SVGID_3_" enable-background="new    " points="53.6,361.4 84.1,273.2 150,279.6 122.7,381.8 							"/>
						</defs>
						<clipPath id="SVGID_4_">
							<use xlink:href="#SVGID_3_"  overflow="visible"/>
						</clipPath>
						<g clip-path="url(#SVGID_4_)">
							<g>
								<g>
									<g>
										<path d="M123.9,277.1c-0.1,2.9-1,5.3-2.2,7.3c-1.3,2.1-2.9,3.7-4.6,5c-1.7,1.3-3.4,2.3-4.8,3.1c-1.4,0.7-2.5,1.2-3,1.5
											c-0.5,0.3-1.5,0.7-2.9,1.3c-1.4,0.6-3.1,1.3-4.8,2.1c-1.7,0.9-3.4,2-4.8,3.3c-1.4,1.3-2.6,2.9-3.3,4.8
											c-0.7,1.9-0.6,4.1-0.2,6.2c0.4,2.2,1.3,4.3,2.2,6.3c0.9,2,2,3.7,2.8,4.9c0.8,1.3,1.4,2,1.4,2s0,0,0,0.1s0,0.1,0,0.1
											c0,0.1,0,0.1,0.1,0.1c0,0,0,0.1,0,0.1c0,0,0-0.1-0.1-0.3c-0.1-0.2-0.2-0.7-0.3-1.3c-0.2-0.6-0.4-1.5-0.7-2.7
											c-0.3-1.2-0.7-2.7-1.2-4.5c-0.8-2.9-0.8-5.2-0.3-7.1c0.4-1.9,1.3-3.4,2.4-4.7c1.1-1.2,2.3-2.1,3.4-2.9
											c1.1-0.7,2-1.2,2.6-1.6c0.5-0.4,1.4-0.9,2.6-1.5c1.2-0.7,2.6-1.5,4.1-2.4c1.5-1,3.2-2.1,4.9-3.4c1.6-1.3,3.3-2.7,4.7-4.3
											c1.4-1.6,2.3-3.1,2.8-4.5c0.5-1.4,0.5-2.7,0.4-3.8c-0.1-1.1-0.4-1.9-0.6-2.6C124.1,277.4,123.9,277.1,123.9,277.1"/>
										<path d="M129.6,296.7c-1.1,0.1-2.7,0.3-4.6,0.7c-1.9,0.4-4,0.9-6.1,1.6c-2.1,0.7-4.3,1.6-6.3,2.6c-2,1-3.8,2.2-5.2,3.5
											c-1.4,1.3-2.2,2.7-2.7,4c-0.5,1.3-0.5,2.7-0.4,4c0.1,1.4,0.5,2.7,0.9,4c0.4,1.3,0.8,2.6,1.1,3.8c0.3,1.2,0.2,2.4-0.2,3.4
											c-0.4,1-0.9,1.9-1.6,2.6c-0.6,0.7-1.3,1.3-1.8,1.7c-0.5,0.4-0.8,0.6-0.8,0.6s0,0,0.1,0c0.1,0,0.3-0.1,0.6-0.3
											c0.4-0.2,0.9-0.5,1.7-0.9c0.8-0.4,1.9-1,3.3-1.7c1.4-0.8,2.4-1.7,3.1-2.6c0.7-1,1.1-2,1.2-3c0.2-1,0.1-2,0-2.9
											c-0.1-0.9-0.3-1.7-0.5-2.3c-0.2-0.6-0.4-1.3-0.6-2c-0.2-0.7-0.4-1.5-0.5-2.3c-0.1-0.8,0-1.7,0.2-2.5
											c0.2-0.9,0.7-1.8,1.4-2.8c0.7-1,2.1-2,3.9-3c1.8-1,3.8-2,5.8-2.9c2-0.9,3.9-1.7,5.3-2.3
											C128.7,297,129.6,296.7,129.6,296.7"/>
										<path d="M89.3,323.3c0,0-0.5-0.1-1.2-0.1c-0.8-0.1-1.9-0.2-3.2-0.2c-1.3,0-2.7-0.1-4.2,0c-1.5,0.1-3,0.3-4.4,0.6
											c-1.4,0.3-2.3,0.7-2.8,1.1c-0.5,0.4-0.6,0.8-0.5,1.2c0.2,0.4,0.6,0.8,1.1,1.2c0.6,0.4,1.3,0.8,2,1.1
											c0.4,0.2,1,0.4,1.9,0.7c0.9,0.3,2,0.6,3.3,1c1.3,0.4,2.8,0.8,4.5,1.2c1.6,0.4,3.4,0.8,5.3,1.2c1.9,0.4,3.8,0.8,5.8,1.1
											c2,0.3,4,0.7,5.9,0.9c2,0.2,3.9,0.4,5.6,0.5c1.8,0.1,3.5,0.1,4.9-0.1l4.8-1.7c0,0-1,0-2.8-0.1c-1.7-0.1-4.2-0.3-7-0.5
											c-2.8-0.2-6-0.6-9.2-1c-3.2-0.4-6.5-0.9-9.5-1.6c-0.7-0.1-1.3-0.3-2-0.4c-0.7-0.2-1.3-0.3-1.9-0.5
											c-0.6-0.2-1.2-0.3-1.8-0.5c-0.6-0.2-1.1-0.4-1.7-0.6c0,0-0.6-0.2-1.2-0.5c-0.6-0.3-1.2-0.8-1.3-1.2
											c-0.1-0.5,0.3-1,1.7-1.4C82.6,324,85.1,323.6,89.3,323.3"/>
										<path d="M82.2,333c0,0-0.5,0.1-1.2,0.2c-0.7,0.1-1.5,0.4-2.3,0.7c-0.8,0.3-1.5,0.8-1.9,1.3c-0.4,0.6-0.4,1.3,0.2,2.1
											c0.3,0.5,0.9,1,1.7,1.5c0.8,0.5,1.7,1.1,2.9,1.6c1.1,0.5,2.5,1.1,3.9,1.6c1.5,0.5,3.1,1,4.9,1.4c1.4,0.3,3,0.7,4.6,0.9
											c1.6,0.3,3.3,0.5,5,0.6c1.7,0.2,3.5,0.3,5.4,0.3c1.8,0,3.7,0,5.6-0.2l-2.8-3.3c0,0-0.5,0-1.3,0c-0.8,0-2.1,0-3.6-0.1
											c-1.5-0.1-3.3-0.3-5.2-0.5c-1.9-0.3-4-0.6-6.2-1.1c-0.4-0.1-0.8-0.2-1.2-0.3c-0.4-0.1-0.8-0.2-1.2-0.3
											c-0.4-0.1-0.8-0.2-1.2-0.4c-0.4-0.1-0.8-0.3-1.2-0.4c-2.6-0.8-4.2-1.6-5.1-2.3c-0.9-0.7-1.2-1.3-1.1-1.8
											c0.1-0.5,0.5-0.9,0.8-1.1C81.9,333.2,82.2,333,82.2,333"/>
										<path d="M80.6,344.4c0,0-0.3,0-0.8,0.1c-0.5,0.1-1.1,0.2-1.7,0.3c-0.6,0.2-1.2,0.4-1.6,0.7c-0.4,0.3-0.7,0.7-0.6,1.1
											c0,0.3,0.2,0.8,0.5,1.4c0.3,0.6,0.8,1.2,1.5,2c0.7,0.7,1.7,1.4,3,2.1c1.3,0.7,3,1.4,5.1,1.9c1.1,0.3,2.3,0.5,3.7,0.8
											c1.4,0.2,2.8,0.4,4.5,0.5c1.6,0.1,3.4,0.2,5.4,0.2c2,0,4.1,0,6.4-0.1l-4.2-3.9c0,0-0.6,0-1.5,0c-1,0-2.3-0.1-3.9-0.2
											c-1.5-0.1-3.3-0.3-5-0.5c-1.7-0.2-3.5-0.5-5-0.9c-1-0.3-2-0.6-2.8-0.9c-0.8-0.3-1.5-0.7-2.1-1.2c-0.5-0.4-0.9-0.9-1.1-1.5
											C80.2,345.7,80.2,345.1,80.6,344.4"/>
										<path d="M127.8,329.9c-0.9-0.2-1.7-0.2-2.4-0.1c-0.7,0.1-1.3,0.2-1.8,0.4c-0.5,0.2-0.9,0.4-1.1,0.5
											c-0.3,0.2-0.4,0.3-0.4,0.3c0.3-0.1,0.5-0.1,0.8-0.2c0.2,0,0.5-0.1,0.7-0.1c0.2,0,0.5,0,0.7,0c0.2,0,0.4,0,0.6,0.1
											c0.8,0.2,1.5,0.5,2.1,0.9c0.6,0.4,1.1,0.9,1.4,1.4c0.4,0.5,0.6,0.9,0.8,1.2c0.2,0.3,0.3,0.5,0.3,0.5
											c0.5,2.5-0.3,4.5-1.6,6.3c-1.3,1.7-3.3,3.1-5.3,4.1c-2,1-4,1.7-5.5,2.2c-1.5,0.4-2.6,0.6-2.6,0.6c1,0.2,2.3,0.2,3.8,0
											c1.5-0.2,3.1-0.5,4.7-1c1.6-0.5,3.3-1.2,4.7-1.9c1.5-0.8,2.8-1.6,3.7-2.6c1-0.9,1.6-2.1,2-3.2c0.4-1.2,0.5-2.4,0.3-3.5
											c-0.2-1.2-0.6-2.2-1.3-3.2c-0.7-0.9-1.6-1.7-2.8-2.2c-0.2-0.1-0.3-0.1-0.5-0.2c-0.2-0.1-0.3-0.1-0.5-0.2
											c-0.2,0-0.3-0.1-0.5-0.1C128.1,329.9,127.9,329.9,127.8,329.9"/>
										<path d="M68.1,348.6c-0.1,0-0.2-0.1-0.3-0.1c-0.1,0-0.2,0-0.3-0.1c-0.1,0-0.2,0-0.3,0c-0.1,0-0.2,0-0.3,0
											c-0.5,0-1.3,0-2.3,0.1c-1,0.1-2.1,0.3-3.2,0.5c-1.1,0.3-2.2,0.7-3,1.3c-0.8,0.6-1.4,1.3-1.6,2.3c-0.2,0.8,0.6,1.7,1.9,2.5
											c1.3,0.9,3.2,1.8,5.3,2.7c2.2,0.9,4.6,1.8,7,2.5c2.4,0.8,4.8,1.5,6.7,2c0.5,0.1,1,0.3,1.5,0.4c0.5,0.1,0.9,0.2,1.2,0.3
											c0.4,0.1,0.7,0.2,1,0.3c0.3,0.1,0.5,0.1,0.7,0.2c0.8,0.2,2.7,0.7,5.3,1.4c2.6,0.6,5.9,1.4,9.5,2c3.6,0.7,7.5,1.2,11.3,1.4
											c3.8,0.2,7.4,0.1,10.4-0.6c0,0,0.4,0,0.9-0.2c0.5-0.1,1.2-0.4,1.7-0.7c0.5-0.4,0.9-0.9,1-1.6c0-0.7-0.3-1.6-1.2-2.7
											c0,0,0,0.2,0.1,0.4c0,0.3,0,0.6,0,1c-0.1,0.4-0.2,0.8-0.4,1.1c-0.2,0.3-0.6,0.6-1.1,0.7c-0.4,0.1-1.5,0.3-3.2,0.3
											c-1.7,0.1-4,0-6.9-0.2c-2.9-0.2-6.4-0.6-10.4-1.4c-4-0.7-8.5-1.7-13.5-3.1c-1-0.3-2.1-0.6-3.2-0.9c-1.1-0.3-2.2-0.7-3.3-1
											c-1.1-0.4-2.3-0.7-3.4-1.1c-1.2-0.4-2.3-0.8-3.5-1.2c0,0-0.8-0.3-1.8-0.8c-1.1-0.5-2.4-1.1-3.7-1.9
											c-1.3-0.7-2.4-1.5-3-2.2c-0.6-0.7-0.7-1.3,0.2-1.8c0.8-0.4,1.8-0.7,2.7-0.8c0.9-0.1,1.8-0.2,2.6-0.1c0.8,0,1.5,0.1,2,0.2
											c0.5,0.1,0.9,0.2,1,0.2c0.1,0,0,0-0.2-0.2c-0.2-0.1-0.5-0.3-0.8-0.5c-0.3-0.2-0.8-0.4-1.2-0.6
											C69,348.8,68.5,348.7,68.1,348.6"/>
										<path d="M125.2,370.7c0,0-0.5,0.4-1.8,0.9c-1.3,0.5-3.3,1-6.3,1.3c-3,0.3-6.8,0.3-11.8-0.3c-4.9-0.6-10.7-1.7-17.7-3.7
											c-1.6-0.5-3.3-1-5-1.5c-1.7-0.6-3.5-1.2-5.3-1.8c-1.8-0.7-3.7-1.4-5.6-2.1c-1.9-0.7-3.8-1.5-5.8-2.4c0,0,0.2,0.3,0.8,0.9
											c0.6,0.5,1.5,1.3,3,2.2c1.5,0.9,3.5,2,6.2,3.2c2.7,1.2,6.2,2.5,10.5,3.8c0.8,0.3,1.7,0.5,2.7,0.8c0.9,0.3,1.9,0.5,2.9,0.8
											c1,0.3,2,0.5,3.1,0.8c1.1,0.3,2.2,0.5,3.4,0.8c7.4,1.6,12.8,2.2,16.8,2.2c4,0,6.5-0.6,8-1.4c1.5-0.8,2-1.9,2.1-2.7
											C125.4,371.3,125.2,370.7,125.2,370.7"/>
									</g>
								</g>
							</g>
						</g>
					</g>
				</g>
			</g>
			<path d="M210.2,55.5L210,73.4c0,0-62.9-14-119.4-9c0,0,68.3-8.6,114.4,1.4L210.2,55.5z"/>
			<path fill="#FFFFFF" d="M216.4,191.1c-2.4-4.8-14.5-3.6-27.2,2.6c-12.6,6.2-21,15.2-18.6,20c2.4,4.8,14.5,3.6,27.2-2.6
				C210.5,204.9,218.8,195.9,216.4,191.1z"/>
		</g>
		<g>
			<g>
				<path d="M461.6,302.5h5.7v41.3c0,4.2-0.7,7.3-2,9.5c-1.3,2.2-3.7,3.2-7,3.2c-0.8,0-1.8-0.1-2.9-0.3c-1.1-0.2-2.1-0.5-2.8-0.9
					l1.2-4.9c0.5,0.3,1.1,0.5,1.7,0.7c0.6,0.2,1.3,0.2,1.9,0.2c0.9,0,1.6-0.2,2.2-0.6c0.6-0.4,1-1,1.3-1.7c0.3-0.7,0.5-1.6,0.6-2.7
					c0.1-1,0.1-2.2,0.1-3.5V302.5z"/>
				<path d="M474.7,320c1.5-0.9,3.3-1.6,5.4-2.1c2.1-0.5,4.3-0.8,6.7-0.8c2.1,0,3.8,0.3,5.1,1c1.3,0.6,2.3,1.5,3,2.6
					c0.7,1.1,1.2,2.3,1.4,3.7c0.2,1.4,0.3,2.9,0.3,4.4c0,3-0.1,6-0.2,8.9c-0.1,2.9-0.2,5.6-0.2,8.2c0,1.9,0.1,3.7,0.2,5.4
					c0.1,1.6,0.4,3.2,0.7,4.7h-4.3l-1.3-4.5h-0.3c-0.8,1.3-1.9,2.5-3.3,3.4c-1.5,1-3.4,1.4-5.9,1.4c-2.7,0-4.9-1-6.7-2.9
					c-1.7-1.9-2.6-4.5-2.6-7.9c0-2.2,0.4-4,1.1-5.5c0.7-1.5,1.8-2.7,3.1-3.6c1.3-0.9,2.9-1.6,4.7-1.9c1.8-0.4,3.9-0.6,6.1-0.6
					c0.5,0,1,0,1.5,0c0.5,0,1,0,1.6,0.1c0.1-1.6,0.2-3,0.2-4.2c0-2.9-0.4-4.9-1.3-6.1c-0.9-1.2-2.4-1.8-4.7-1.8
					c-1.4,0-2.9,0.2-4.6,0.6c-1.7,0.4-3,1-4.1,1.6L474.7,320z M491,338.4c-0.5-0.1-1-0.1-1.5-0.1c-0.5,0-1,0-1.5,0
					c-1.2,0-2.4,0.1-3.5,0.3c-1.2,0.2-2.2,0.6-3.1,1.1c-0.9,0.5-1.6,1.2-2.1,2.1c-0.5,0.9-0.8,1.9-0.8,3.3c0,2,0.5,3.6,1.5,4.7
					c1,1.1,2.2,1.7,3.8,1.7c2.1,0,3.7-0.5,4.9-1.5c1.2-1,2-2.1,2.4-3.3V338.4z"/>
				<path d="M512.8,340l1.5,7.5h0.2l1.4-7.7l6.7-22.1h5.8l-13,38.9h-2.7l-13.2-38.9h6.2L512.8,340z"/>
				<path d="M532,320c1.5-0.9,3.3-1.6,5.4-2.1c2.1-0.5,4.3-0.8,6.7-0.8c2.1,0,3.8,0.3,5.1,1c1.3,0.6,2.3,1.5,3,2.6
					c0.7,1.1,1.2,2.3,1.4,3.7c0.2,1.4,0.3,2.9,0.3,4.4c0,3-0.1,6-0.2,8.9c-0.1,2.9-0.2,5.6-0.2,8.2c0,1.9,0.1,3.7,0.2,5.4
					c0.1,1.6,0.4,3.2,0.7,4.7h-4.3l-1.3-4.5h-0.3c-0.8,1.3-1.9,2.5-3.3,3.4c-1.5,1-3.4,1.4-5.9,1.4c-2.7,0-4.9-1-6.7-2.9
					c-1.7-1.9-2.6-4.5-2.6-7.9c0-2.2,0.4-4,1.1-5.5c0.7-1.5,1.8-2.7,3.1-3.6c1.3-0.9,2.9-1.6,4.8-1.9c1.8-0.4,3.9-0.6,6.1-0.6
					c0.5,0,1,0,1.5,0c0.5,0,1,0,1.6,0.1c0.1-1.6,0.2-3,0.2-4.2c0-2.9-0.4-4.9-1.3-6.1c-0.9-1.2-2.4-1.8-4.7-1.8
					c-1.4,0-2.9,0.2-4.6,0.6c-1.7,0.4-3,1-4.1,1.6L532,320z M548.3,338.4c-0.5-0.1-1-0.1-1.5-0.1c-0.5,0-1,0-1.5,0
					c-1.2,0-2.4,0.1-3.5,0.3c-1.2,0.2-2.2,0.6-3.1,1.1c-0.9,0.5-1.6,1.2-2.1,2.1c-0.5,0.9-0.8,1.9-0.8,3.3c0,2,0.5,3.6,1.5,4.7
					c1,1.1,2.2,1.7,3.8,1.7c2.1,0,3.7-0.5,4.9-1.5c1.2-1,2-2.1,2.4-3.3V338.4z"/>
				<path d="M603.7,302.5h5.5v35.7c0,6.4-1.3,11.1-3.8,14c-2.5,2.9-6.1,4.3-10.7,4.3c-5.4,0-9.3-1.4-11.7-4.2
					c-2.5-2.8-3.7-7.1-3.7-12.8v-36.9h5.7v33.9c0,2.7,0.2,5,0.5,6.9c0.4,1.9,0.9,3.4,1.8,4.6c0.8,1.2,1.8,2,3,2.5
					c1.2,0.5,2.7,0.8,4.5,0.8c3.3,0,5.7-1.2,7-3.5c1.3-2.3,1.9-6.1,1.9-11.3V302.5z"/>
				<path d="M615.5,349.5c1,0.6,2.2,1.1,3.6,1.6c1.4,0.4,2.8,0.6,4.3,0.6c1.7,0,3.1-0.4,4.3-1.3c1.2-0.8,1.7-2.2,1.7-4.1
					c0-1.6-0.4-2.9-1.1-3.9c-0.7-1-1.6-1.9-2.7-2.8c-1.1-0.8-2.3-1.6-3.5-2.2c-1.3-0.7-2.4-1.5-3.5-2.5c-1.1-1-2-2.1-2.7-3.4
					c-0.7-1.3-1.1-3-1.1-5c0-3.2,0.9-5.7,2.6-7.3c1.7-1.6,4.2-2.5,7.4-2.5c2.1,0,3.9,0.2,5.4,0.6c1.5,0.4,2.8,0.9,4,1.6l-1.4,4.6
					c-1-0.5-2.1-0.9-3.3-1.3c-1.3-0.3-2.6-0.5-3.9-0.5c-1.8,0-3.2,0.4-4,1.1c-0.8,0.8-1.3,2-1.3,3.6c0,1.3,0.4,2.3,1.1,3.2
					c0.7,0.9,1.6,1.7,2.7,2.4c1.1,0.7,2.3,1.5,3.5,2.2c1.3,0.8,2.4,1.7,3.5,2.7c1.1,1,2,2.3,2.7,3.7c0.7,1.4,1.1,3.3,1.1,5.4
					c0,1.4-0.2,2.8-0.7,4c-0.5,1.3-1.2,2.4-2.1,3.3c-0.9,0.9-2.1,1.7-3.5,2.2c-1.4,0.6-3,0.8-4.9,0.8c-2.2,0-4.2-0.2-5.8-0.6
					c-1.6-0.4-3-1-4.1-1.7L615.5,349.5z"/>
				<path d="M663.1,353.1c-1.2,1.1-2.8,2-4.6,2.6c-1.9,0.6-3.9,0.9-5.9,0.9c-2.4,0-4.4-0.5-6.2-1.4c-1.7-0.9-3.2-2.3-4.3-4
					c-1.1-1.7-2-3.8-2.5-6.3c-0.5-2.4-0.8-5.2-0.8-8.2c0-6.5,1.2-11.4,3.6-14.8c2.4-3.4,5.8-5.1,10.1-5.1c1.4,0,2.8,0.2,4.2,0.5
					c1.4,0.4,2.6,1.1,3.8,2.1c1.1,1.1,2,2.6,2.7,4.5c0.7,1.9,1,4.4,1,7.5c0,0.9,0,1.8-0.1,2.8c-0.1,1-0.2,2-0.3,3.1h-19.3
					c0,2.2,0.2,4.2,0.5,5.9c0.4,1.8,0.9,3.3,1.7,4.5c0.8,1.2,1.7,2.2,2.9,2.9c1.2,0.7,2.7,1,4.4,1c1.4,0,2.7-0.3,4.1-0.8
					c1.3-0.5,2.4-1.1,3.1-1.8L663.1,353.1z M658.9,332.7c0.1-3.8-0.4-6.6-1.6-8.4s-2.8-2.7-4.8-2.7c-2.3,0-4.2,0.9-5.6,2.7
					s-2.2,4.6-2.4,8.4H658.9z"/>
				<path d="M669.6,317.7h3.9l1,4h0.2c0.7-1.5,1.6-2.6,2.8-3.5c1.1-0.8,2.5-1.3,4.1-1.3c1.2,0,2.5,0.2,4,0.7l-1.1,5.6
					c-1.3-0.5-2.5-0.7-3.5-0.7c-1.6,0-2.9,0.5-4,1.4c-1,0.9-1.7,2.2-2,3.8v28h-5.5V317.7z"/>
				<path d="M721.6,329.2h14.7v23.4c-1.4,1.3-3.2,2.3-5.5,3c-2.2,0.7-4.5,1-6.8,1c-2.8,0-5.4-0.5-7.7-1.6c-2.3-1.1-4.3-2.7-5.9-5
					c-1.6-2.3-2.9-5.1-3.8-8.6c-0.9-3.4-1.3-7.6-1.3-12.4c0-5,0.5-9.2,1.6-12.7c1.1-3.5,2.5-6.3,4.3-8.5c1.8-2.2,3.9-3.8,6.2-4.8
					c2.3-1,4.7-1.5,7.1-1.5c2.4,0,4.5,0.2,6.1,0.5c1.6,0.3,3.1,0.8,4.2,1.3l-1.4,5.2c-1-0.6-2.2-1-3.6-1.3c-1.4-0.3-3-0.5-4.8-0.5
					c-1.8,0-3.5,0.4-5.1,1.1c-1.6,0.8-3.1,2-4.4,3.8c-1.3,1.7-2.3,4-3.1,6.9c-0.8,2.8-1.1,6.3-1.1,10.5c0,7.6,1.2,13.2,3.6,16.8
					c2.4,3.6,5.7,5.4,9.9,5.4c2.6,0,4.8-0.6,6.5-1.9v-15.4l-9.8-1.5V329.2z"/>
				<path d="M743,317.7h3.9l1,4h0.2c0.7-1.5,1.6-2.6,2.8-3.5c1.1-0.8,2.5-1.3,4.1-1.3c1.2,0,2.5,0.2,4,0.7l-1.1,5.6
					c-1.3-0.5-2.5-0.7-3.5-0.7c-1.6,0-2.9,0.5-4,1.4c-1,0.9-1.7,2.2-2,3.8v28H743V317.7z"/>
				<path d="M760.6,336.7c0-6.8,1.2-11.9,3.5-15.1c2.4-3.2,5.7-4.8,10.1-4.8c4.7,0,8.1,1.6,10.3,4.9c2.2,3.3,3.3,8.3,3.3,15
					c0,6.9-1.2,11.9-3.6,15.1c-2.4,3.2-5.7,4.8-10,4.8c-4.7,0-8.1-1.6-10.3-4.9C761.7,348.4,760.6,343.4,760.6,336.7z M766.3,336.7
					c0,2.2,0.1,4.3,0.4,6.1c0.3,1.8,0.7,3.4,1.4,4.7c0.6,1.3,1.5,2.3,2.5,3.1c1,0.7,2.2,1.1,3.6,1.1c2.6,0,4.6-1.2,5.9-3.5
					c1.3-2.4,2-6.2,2-11.4c0-2.2-0.1-4.2-0.4-6c-0.3-1.8-0.7-3.4-1.4-4.8c-0.6-1.3-1.5-2.3-2.5-3.1c-1-0.7-2.2-1.1-3.7-1.1
					c-2.6,0-4.5,1.2-5.9,3.6C767,327.7,766.3,331.5,766.3,336.7z"/>
				<path d="M798.6,317.7V341c0,3.9,0.4,6.6,1.2,8.2c0.8,1.6,2.2,2.5,4.3,2.5c1.1,0,2-0.2,2.9-0.6c0.8-0.4,1.6-1,2.2-1.7
					c0.7-0.7,1.2-1.5,1.8-2.4c0.5-0.9,0.9-1.8,1.2-2.8v-26.4h5.5v27.2c0,1.8,0.1,3.7,0.2,5.7c0.1,2,0.3,3.7,0.6,5.1h-3.9l-1.4-5.3
					h-0.2c-0.9,1.7-2.1,3.1-3.7,4.4c-1.6,1.2-3.6,1.9-6.1,1.9c-1.6,0-3-0.2-4.3-0.6c-1.2-0.4-2.3-1.1-3.1-2.2
					c-0.9-1.1-1.5-2.5-1.9-4.4c-0.4-1.9-0.6-4.2-0.6-7.1v-24.6H798.6z"/>
				<path d="M824.7,317.7h3.9l0.8,4.1h0.3c1.9-3.3,4.8-5,8.8-5c4,0,7,1.5,9,4.5c2,3,3,7.9,3,14.7c0,3.2-0.3,6.1-1,8.6
					c-0.7,2.6-1.6,4.7-2.8,6.5c-1.2,1.8-2.7,3.2-4.4,4.1c-1.8,0.9-3.7,1.4-5.8,1.4c-1.5,0-2.6-0.1-3.5-0.3c-0.9-0.2-1.8-0.5-2.8-1.1
					v15.7h-5.5V317.7z M830.2,349.7c0.7,0.6,1.5,1.1,2.4,1.4c0.9,0.4,2.1,0.5,3.5,0.5c2.7,0,4.8-1.4,6.4-4.1
					c1.6-2.7,2.4-6.6,2.4-11.7c0-2.1-0.1-4.1-0.4-5.8c-0.3-1.7-0.7-3.2-1.3-4.4c-0.6-1.2-1.4-2.2-2.3-2.9c-0.9-0.7-2.1-1-3.5-1
					c-3.7,0-6.1,2.3-7.1,6.8V349.7z"/>
			</g>
			<g>
				<path d="M475.6,243.6l1.5,14.2h0.2l1.5-14.5l13.6-56.1h5.2l13.6,56.2l1.5,14.4h0.1l1.7-14.5l10.8-56.1h9.1l-19,86.5h-5.6
					l-13.5-56.1l-1.7-13h-0.4l-1.7,13.1l-13.5,55.9h-5.7l-19.3-86.5h9.9L475.6,243.6z"/>
				<path d="M537.8,215.2c2.4-1.5,5.2-2.6,8.6-3.4c3.4-0.8,6.9-1.2,10.6-1.2c3.4,0,6.1,0.5,8.2,1.5c2.1,1,3.7,2.4,4.9,4.1
					c1.2,1.7,1.9,3.7,2.3,6c0.4,2.2,0.5,4.6,0.5,7c0,4.9-0.1,9.6-0.3,14.2c-0.2,4.6-0.3,9-0.3,13.1c0,3.1,0.1,5.9,0.3,8.6
					c0.2,2.6,0.6,5.1,1.2,7.5H567l-2.1-7.2h-0.5c-1.2,2.1-3,3.9-5.3,5.5c-2.3,1.5-5.5,2.3-9.4,2.3c-4.3,0-7.9-1.5-10.7-4.6
					c-2.8-3-4.2-7.2-4.2-12.6c0-3.5,0.6-6.4,1.7-8.8c1.2-2.4,2.8-4.3,4.9-5.7c2.1-1.5,4.7-2.5,7.6-3.1c2.9-0.6,6.2-0.9,9.8-0.9
					c0.8,0,1.6,0,2.4,0c0.8,0,1.7,0,2.5,0.1c0.2-2.5,0.4-4.7,0.4-6.7c0-4.6-0.7-7.9-2-9.7c-1.4-1.9-3.9-2.8-7.5-2.8
					c-2.3,0-4.7,0.3-7.3,1c-2.7,0.7-4.9,1.6-6.6,2.6L537.8,215.2z M564,244.7c-0.8-0.1-1.6-0.1-2.4-0.2c-0.8,0-1.6-0.1-2.4-0.1
					c-1.9,0-3.8,0.2-5.6,0.5c-1.8,0.3-3.5,0.9-4.9,1.7c-1.4,0.8-2.6,1.9-3.4,3.3c-0.8,1.4-1.3,3.1-1.3,5.2c0,3.2,0.8,5.8,2.3,7.5
					c1.6,1.8,3.6,2.7,6.1,2.7c3.4,0,6-0.8,7.8-2.4c1.8-1.6,3.1-3.4,3.8-5.4V244.7z"/>
				<path d="M584,211.6h6.2l1.6,6.4h0.4c1.1-2.4,2.6-4.2,4.4-5.5c1.8-1.3,4-2,6.6-2c1.9,0,4,0.4,6.3,1.1l-1.7,8.9
					c-2.1-0.7-4-1.1-5.6-1.1c-2.6,0-4.7,0.8-6.3,2.3c-1.6,1.5-2.7,3.5-3.2,6v44.8H584V211.6z"/>
				<path d="M615,262.4c1.6,1,3.5,1.8,5.8,2.5c2.2,0.7,4.5,1,6.9,1c2.7,0,4.9-0.7,6.8-2c1.9-1.3,2.8-3.5,2.8-6.5
					c0-2.5-0.6-4.6-1.7-6.2c-1.1-1.6-2.6-3.1-4.3-4.4c-1.7-1.3-3.6-2.5-5.7-3.6c-2-1.1-3.9-2.4-5.7-3.9c-1.7-1.5-3.2-3.4-4.3-5.5
					c-1.1-2.1-1.7-4.8-1.7-8c0-5.2,1.4-9.1,4.2-11.7c2.8-2.6,6.7-3.9,11.9-3.9c3.3,0,6.2,0.3,8.6,0.9c2.4,0.6,4.5,1.4,6.3,2.5
					l-2.3,7.3c-1.5-0.8-3.3-1.5-5.4-2c-2-0.5-4.1-0.8-6.2-0.8c-2.9,0-5,0.6-6.4,1.8c-1.3,1.2-2,3.1-2,5.7c0,2,0.6,3.7,1.7,5.2
					c1.1,1.4,2.6,2.7,4.3,3.9c1.7,1.2,3.6,2.4,5.7,3.6c2,1.2,3.9,2.7,5.7,4.3c1.7,1.7,3.2,3.6,4.3,6c1.1,2.3,1.7,5.2,1.7,8.7
					c0,2.3-0.4,4.4-1.1,6.4c-0.7,2-1.8,3.8-3.3,5.3c-1.5,1.5-3.4,2.7-5.6,3.6c-2.2,0.9-4.8,1.3-7.8,1.3c-3.6,0-6.6-0.3-9.2-1
					c-2.6-0.7-4.8-1.6-6.6-2.7L615,262.4z"/>
				<path d="M652.1,264.5l22.5-39.8l4.2-5.2h-26.8v-7.9h35.5v7.9l-22.6,40.1l-4.1,4.9h26.8v7.9h-35.5V264.5z"/>
				<path d="M696.5,215.2c2.4-1.5,5.2-2.6,8.6-3.4c3.4-0.8,6.9-1.2,10.6-1.2c3.4,0,6.1,0.5,8.2,1.5c2.1,1,3.7,2.4,4.9,4.1
					c1.2,1.7,1.9,3.7,2.3,6c0.4,2.2,0.5,4.6,0.5,7c0,4.9-0.1,9.6-0.3,14.2c-0.2,4.6-0.3,9-0.3,13.1c0,3.1,0.1,5.9,0.3,8.6
					c0.2,2.6,0.6,5.1,1.2,7.5h-6.9l-2.1-7.2h-0.5c-1.2,2.1-3,3.9-5.3,5.5c-2.3,1.5-5.5,2.3-9.4,2.3c-4.3,0-7.9-1.5-10.7-4.6
					c-2.8-3-4.2-7.2-4.2-12.6c0-3.5,0.6-6.4,1.7-8.8c1.2-2.4,2.8-4.3,4.9-5.7c2.1-1.5,4.7-2.5,7.6-3.1c2.9-0.6,6.2-0.9,9.8-0.9
					c0.8,0,1.6,0,2.4,0c0.8,0,1.6,0,2.5,0.1c0.2-2.5,0.4-4.7,0.4-6.7c0-4.6-0.7-7.9-2-9.7c-1.4-1.9-3.9-2.8-7.5-2.8
					c-2.3,0-4.7,0.3-7.3,1c-2.7,0.7-4.9,1.6-6.6,2.6L696.5,215.2z M722.7,244.7c-0.8-0.1-1.6-0.1-2.4-0.2c-0.8,0-1.6-0.1-2.4-0.1
					c-1.9,0-3.8,0.2-5.7,0.5c-1.8,0.3-3.5,0.9-4.9,1.7c-1.4,0.8-2.6,1.9-3.4,3.3c-0.8,1.4-1.3,3.1-1.3,5.2c0,3.2,0.8,5.8,2.3,7.5
					c1.6,1.8,3.6,2.7,6.1,2.7c3.4,0,6-0.8,7.8-2.4c1.8-1.6,3.1-3.4,3.8-5.4V244.7z"/>
				<path d="M775.5,211.6l10.8,35.5l2.2,11.7h0.2l1.8-11.9l8.3-35.3h8.3L791,273.7h-5l-12.3-39.9l-1.7-10.2h-0.2l-1.7,10.3
					l-11.9,39.8h-5l-16.7-62.1h9.1L755,247l1.7,11.8h0.2l2.2-12l10-35.1H775.5z"/>
				<path d="M813,215.2c2.4-1.5,5.2-2.6,8.6-3.4c3.4-0.8,6.9-1.2,10.6-1.2c3.4,0,6.1,0.5,8.2,1.5c2.1,1,3.7,2.4,4.9,4.1
					c1.2,1.7,1.9,3.7,2.3,6c0.4,2.2,0.5,4.6,0.5,7c0,4.9-0.1,9.6-0.3,14.2c-0.2,4.6-0.3,9-0.3,13.1c0,3.1,0.1,5.9,0.3,8.6
					c0.2,2.6,0.6,5.1,1.2,7.5h-6.9l-2.1-7.2h-0.5c-1.2,2.1-3,3.9-5.3,5.5c-2.3,1.5-5.5,2.3-9.4,2.3c-4.3,0-7.9-1.5-10.7-4.6
					c-2.8-3-4.2-7.2-4.2-12.6c0-3.5,0.6-6.4,1.7-8.8c1.2-2.4,2.8-4.3,4.9-5.7c2.1-1.5,4.7-2.5,7.6-3.1c2.9-0.6,6.2-0.9,9.8-0.9
					c0.8,0,1.6,0,2.4,0c0.8,0,1.6,0,2.5,0.1c0.2-2.5,0.4-4.7,0.4-6.7c0-4.6-0.7-7.9-2-9.7c-1.4-1.9-3.9-2.8-7.5-2.8
					c-2.2,0-4.7,0.3-7.3,1c-2.7,0.7-4.9,1.6-6.6,2.6L813,215.2z M839.2,244.7c-0.8-0.1-1.6-0.1-2.4-0.2c-0.8,0-1.6-0.1-2.4-0.1
					c-1.9,0-3.8,0.2-5.7,0.5c-1.8,0.3-3.5,0.9-4.9,1.7c-1.4,0.8-2.6,1.9-3.4,3.3c-0.8,1.4-1.3,3.1-1.3,5.2c0,3.2,0.8,5.8,2.3,7.5
					c1.6,1.8,3.6,2.7,6.1,2.7c3.4,0,6-0.8,7.8-2.4c1.8-1.6,3.1-3.4,3.8-5.4V244.7z"/>
			</g>
		</g>
	</g>
</g>
</svg>
