<?xml version="1.0" encoding="UTF-8" standalone="no"?>
<svg
   xmlns:dc="http://purl.org/dc/elements/1.1/"
   xmlns:cc="http://creativecommons.org/ns#"
   xmlns:rdf="http://www.w3.org/1999/02/22-rdf-syntax-ns#"
   xmlns:svg="http://www.w3.org/2000/svg"
   xmlns="http://www.w3.org/2000/svg"
   xmlns:sodipodi="http://sodipodi.sourceforge.net/DTD/sodipodi-0.dtd"
   xmlns:inkscape="http://www.inkscape.org/namespaces/inkscape"
   version="1.1"
   viewBox="0 0 496.04724 286.05249"
   fill="none"
   stroke="none"
   stroke-linecap="square"
   stroke-miterlimit="10"
   id="svg61"
   sodipodi:docname="aggregate-job.svg"
   width="496.04724"
   height="286.05249"
   inkscape:version="1.0 (4035a4f, 2020-05-01)">
  <metadata
     id="metadata67">
    <rdf:RDF>
      <cc:Work
         rdf:about="">
        <dc:format>image/svg+xml</dc:format>
        <dc:type
           rdf:resource="http://purl.org/dc/dcmitype/StillImage" />
        <dc:title></dc:title>
      </cc:Work>
    </rdf:RDF>
  </metadata>
  <defs
     id="defs65" />
  <sodipodi:namedview
     inkscape:document-rotation="0"
     pagecolor="#ffffff"
     bordercolor="#666666"
     borderopacity="1"
     objecttolerance="10"
     gridtolerance="10"
     guidetolerance="10"
     inkscape:pageopacity="0"
     inkscape:pageshadow="2"
     inkscape:window-width="1251"
     inkscape:window-height="1035"
     id="namedview63"
     showgrid="false"
     fit-margin-top="0"
     fit-margin-left="0"
     fit-margin-right="0"
     fit-margin-bottom="0"
     inkscape:zoom="0.821875"
     inkscape:cx="102.61389"
     inkscape:cy="377.23794"
     inkscape:window-x="0"
     inkscape:window-y="23"
     inkscape:window-maximized="0"
     inkscape:current-layer="svg61" />
  <clipPath
     id="p.0">
    <path
       d="M 0,0 H 1280 V 960 H 0 Z"
       clip-rule="nonzero"
       id="path2" />
  </clipPath>
  <path
     id="path5"
     fill-rule="evenodd"
     d="m -10.542,-29.618109 h 1280 V 930.38189 h -1280 z"
     fill-opacity="0"
     fill="#000000" />
  <path
     id="path7"
     fill-rule="evenodd"
     d="m 0.5,9.535431 v 0 c 0,4.990135 16.1812,9.035435 36.14172,9.035435 19.96053,0 36.14174,-4.0453 36.14174,-9.035435 v 70.27559 c 0,4.99013 -16.18121,9.03544 -36.14174,9.03544 C 16.6812,88.846461 0.5,84.801161 0.5,79.811021 Z"
     fill="#cfe2f3" />
  <path
     id="path9"
     fill-rule="evenodd"
     d="m 0.5,9.535431 v 0 C 0.5,4.5453 16.6812,0.5 36.64172,0.5 c 19.96053,0 36.14174,4.045299 36.14174,9.035431 v 0 c 0,4.990135 -16.18121,9.035435 -36.14174,9.035435 C 16.6812,18.570866 0.5,14.525566 0.5,9.535431 Z"
     fill="#e2edf7" />
  <path
     id="path11"
     fill-rule="evenodd"
     d="m 72.78346,9.535431 v 0 c 0,4.990135 -16.18121,9.035435 -36.14174,9.035435 C 16.6812,18.570866 0.5,14.525566 0.5,9.535431 v 0 C 0.5,4.5453 16.6812,0.5 36.64172,0.5 c 19.96053,0 36.14174,4.045299 36.14174,9.035431 v 70.27559 c 0,4.99013 -16.18121,9.03544 -36.14174,9.03544 C 16.6812,88.846461 0.5,84.801161 0.5,79.811021 V 9.535431"
     fill-opacity="0"
     fill="#000000" />
  <path
     id="path13"
     fill-rule="evenodd"
     d="m 72.78346,9.535431 v 0 c 0,4.990135 -16.18121,9.035435 -36.14174,9.035435 C 16.6812,18.570866 0.5,14.525566 0.5,9.535431 v 0 C 0.5,4.5453 16.6812,0.5 36.64172,0.5 c 19.96053,0 36.14174,4.045299 36.14174,9.035431 v 70.27559 c 0,4.99013 -16.18121,9.03544 -36.14174,9.03544 C 16.6812,88.846461 0.5,84.801161 0.5,79.811021 V 9.535431"
     stroke-linecap="butt"
     stroke-linejoin="round"
     stroke-width="1"
     stroke="#000000" />
  <path
     id="path15"
     fill-rule="nonzero"
     d="M 19.2511,55.050951 V 43.597826 h 1.51563 v 4.703125 h 5.95312 v -4.703125 h 1.51563 v 11.453125 h -1.51563 v -5.40625 h -5.95312 v 5.40625 z m 11.77344,0 V 43.597826 h 1.51562 v 11.453125 z m 7.46094,0 -4.4375,-11.453125 h 1.64062 l 2.96875,8.3125 q 0.35938,1 0.60938,1.875 0.26562,-0.9375 0.60937,-1.875 l 3.09375,-8.3125 h 1.54688 l -4.48438,11.453125 z m 7.42187,0 V 43.597826 h 8.28125 v 1.34375 h -6.76562 v 3.515625 h 6.34374 v 1.34375 h -6.34374 v 3.890625 h 7.03124 v 1.359375 z"
     fill="#000000" />
  <path
     id="path17"
     fill-rule="evenodd"
     d="m 0.5,206.24146 v 0 c 0,4.99014 16.1812,9.03545 36.14172,9.03545 19.96053,0 36.14174,-4.04531 36.14174,-9.03545 v 70.27559 c 0,4.99014 -16.18121,9.03543 -36.14174,9.03543 C 16.6812,285.55248 0.5,281.50719 0.5,276.51705 Z"
     fill="#cfe2f3" />
  <path
     id="path19"
     fill-rule="evenodd"
     d="m 0.5,206.24146 v 0 c 0,-4.99013 16.1812,-9.03543 36.14172,-9.03543 19.96053,0 36.14174,4.0453 36.14174,9.03543 v 0 c 0,4.99014 -16.18121,9.03545 -36.14174,9.03545 C 16.6812,215.27691 0.5,211.2316 0.5,206.24146 Z"
     fill="#e2edf7" />
  <path
     id="path21"
     fill-rule="evenodd"
     d="m 72.78346,206.24146 v 0 c 0,4.99014 -16.18121,9.03545 -36.14174,9.03545 C 16.6812,215.27691 0.5,211.2316 0.5,206.24146 v 0 c 0,-4.99013 16.1812,-9.03543 36.14172,-9.03543 19.96053,0 36.14174,4.0453 36.14174,9.03543 v 70.27559 c 0,4.99014 -16.18121,9.03543 -36.14174,9.03543 C 16.6812,285.55248 0.5,281.50719 0.5,276.51705 v -70.27559"
     fill-opacity="0"
     fill="#000000" />
  <path
     id="path23"
     fill-rule="evenodd"
     d="m 72.78346,206.24146 v 0 c 0,4.99014 -16.18121,9.03545 -36.14174,9.03545 C 16.6812,215.27691 0.5,211.2316 0.5,206.24146 v 0 c 0,-4.99013 16.1812,-9.03543 36.14172,-9.03543 19.96053,0 36.14174,4.0453 36.14174,9.03543 v 70.27559 c 0,4.99014 -16.18121,9.03543 -36.14174,9.03543 C 16.6812,285.55248 0.5,281.50719 0.5,276.51705 v -70.27559"
     stroke-linecap="butt"
     stroke-linejoin="round"
     stroke-width="1"
     stroke="#000000" />
  <path
     id="path25"
     fill-rule="nonzero"
     d="m 16.14563,251.75699 v -11.45313 h 1.51563 v 4.70313 h 5.95312 v -4.70313 h 1.51563 v 11.45313 h -1.51563 v -5.40625 h -5.95312 v 5.40625 z m 11.50782,0 v -11.45313 h 3.95312 q 1.32813,0 2.03125,0.15625 0.98438,0.23438 1.6875,0.82813 0.90625,0.76562 1.34375,1.95312 0.45313,1.1875 0.45313,2.71875 0,1.3125 -0.3125,2.32813 -0.29688,1 -0.78125,1.65625 -0.46875,0.65625 -1.03125,1.04687 -0.5625,0.375 -1.375,0.57813 -0.79688,0.1875 -1.82813,0.1875 z m 1.51562,-1.35938 h 2.45313 q 1.125,0 1.76562,-0.20312 0.65625,-0.21875 1.03125,-0.59375 0.54688,-0.54688 0.84375,-1.45313 0.29688,-0.90625 0.29688,-2.20312 0,-1.79688 -0.59375,-2.76563 -0.57813,-0.96875 -1.42188,-1.29687 -0.60937,-0.23438 -1.96875,-0.23438 h -2.40625 z m 10.11719,1.35938 v -11.45313 h 7.73437 v 1.34375 h -6.21875 v 3.54688 h 5.375 v 1.35937 h -5.375 v 5.20313 z m 9.17969,-3.6875 1.4375,-0.125 q 0.0937,0.85937 0.46875,1.42187 0.375,0.54688 1.15625,0.89063 0.78125,0.32812 1.75,0.32812 0.87499,0 1.53124,-0.25 0.67188,-0.26562 0.98438,-0.70312 0.32812,-0.45313 0.32812,-0.98438 0,-0.54687 -0.3125,-0.9375 -0.3125,-0.40625 -1.03125,-0.6875 -0.45312,-0.17187 -2.03124,-0.54687 -1.57813,-0.39063 -2.21875,-0.71875 -0.8125,-0.4375 -1.21875,-1.0625 -0.40625,-0.64063 -0.40625,-1.4375 0,-0.85938 0.48437,-1.60938 0.5,-0.76562 1.4375,-1.15625 0.95313,-0.39062 2.10938,-0.39062 1.28124,0 2.24999,0.42187 0.96875,0.40625 1.48438,1.20313 0.53125,0.79687 0.57812,1.79687 l -1.45312,0.10938 q -0.125,-1.07813 -0.79688,-1.625 -0.67187,-0.5625 -1.99999,-0.5625 -1.375,0 -2,0.5 -0.625,0.5 -0.625,1.21875 0,0.60937 0.4375,1.01562 0.4375,0.39063 2.28125,0.8125 1.85937,0.42188 2.54687,0.73438 1,0.45312 1.46875,1.17187 0.48437,0.70313 0.48437,1.625 0,0.90625 -0.53125,1.71875 -0.51562,0.8125 -1.5,1.26563 -0.98437,0.45312 -2.20312,0.45312 -1.5625,0 -2.60937,-0.45312 -1.04688,-0.46875 -1.65625,-1.375 -0.59375,-0.90625 -0.625,-2.0625 z"
     fill="#000000" />
  <path
     id="path27"
     fill-rule="evenodd"
     d="m 128.13516,122.64455 v 0 c 0,-5.36061 4.34563,-9.70624 9.70622,-9.70624 h 177.34344 c 2.57425,0 5.04306,1.02263 6.86335,2.8429 1.82029,1.82026 2.84289,4.28909 2.84289,6.86334 v 38.82376 c 0,5.3606 -4.34564,9.70622 -9.70623,9.70622 H 137.84138 c -5.36059,0 -9.70622,-4.34562 -9.70622,-9.70622 z"
     fill="#fce5cd" />
  <path
     id="path29"
     fill-rule="evenodd"
     d="m 128.13516,122.64455 v 0 c 0,-5.36061 4.34563,-9.70624 9.70622,-9.70624 h 177.34344 c 2.57425,0 5.04306,1.02263 6.86335,2.8429 1.82029,1.82026 2.84289,4.28909 2.84289,6.86334 v 38.82376 c 0,5.3606 -4.34564,9.70622 -9.70623,9.70622 H 137.84138 c -5.36059,0 -9.70622,-4.34562 -9.70622,-9.70622 z"
     stroke-linecap="butt"
     stroke-linejoin="round"
     stroke-width="1"
     stroke="#000000" />
  <path
     id="path31"
     fill-rule="nonzero"
     d="m 140.64592,147.91644 4.40625,-11.45313 h 1.64063 l 4.6875,11.45313 h -1.73438 l -1.32812,-3.46875 h -4.79688 l -1.25,3.46875 z m 3.3125,-4.70313 h 3.89063 l -1.20313,-3.17187 q -0.54687,-1.45313 -0.8125,-2.375 -0.21875,1.09375 -0.60937,2.1875 z m 8.1875,5.39063 1.375,0.20312 q 0.0781,0.64063 0.46875,0.92188 0.53125,0.39062 1.4375,0.39062 0.96875,0 1.5,-0.39062 0.53125,-0.39063 0.71875,-1.09375 0.10938,-0.42188 0.10938,-1.8125 -0.92188,1.09375 -2.29688,1.09375 -1.71875,0 -2.65625,-1.23438 -0.9375,-1.23437 -0.9375,-2.96875 0,-1.1875 0.42188,-2.1875 0.4375,-1 1.25,-1.54687 0.82812,-0.54688 1.92187,-0.54688 1.46875,0 2.42188,1.1875 v -1 h 1.29687 v 7.17188 q 0,1.9375 -0.39062,2.75 -0.39063,0.8125 -1.25,1.28125 -0.85938,0.46875 -2.10938,0.46875 -1.48437,0 -2.40625,-0.67188 -0.90625,-0.67187 -0.875,-2.01562 z m 1.17188,-4.98438 q 0,1.625 0.64062,2.375 0.65625,0.75 1.625,0.75 0.96875,0 1.625,-0.73437 0.65625,-0.75 0.65625,-2.34375 0,-1.53125 -0.67187,-2.29688 -0.67188,-0.78125 -1.625,-0.78125 -0.9375,0 -1.59375,0.76563 -0.65625,0.76562 -0.65625,2.26562 z m 7.72656,4.98438 1.375,0.20312 q 0.0781,0.64063 0.46875,0.92188 0.53125,0.39062 1.4375,0.39062 0.96875,0 1.5,-0.39062 0.53125,-0.39063 0.71875,-1.09375 0.10938,-0.42188 0.10938,-1.8125 -0.92188,1.09375 -2.29688,1.09375 -1.71875,0 -2.65625,-1.23438 -0.9375,-1.23437 -0.9375,-2.96875 0,-1.1875 0.42188,-2.1875 0.4375,-1 1.25,-1.54687 0.82812,-0.54688 1.92187,-0.54688 1.46875,0 2.42188,1.1875 v -1 h 1.29687 v 7.17188 q 0,1.9375 -0.39062,2.75 -0.39063,0.8125 -1.25,1.28125 -0.85938,0.46875 -2.10938,0.46875 -1.48437,0 -2.40625,-0.67188 -0.90625,-0.67187 -0.875,-2.01562 z m 1.17188,-4.98438 q 0,1.625 0.64062,2.375 0.65625,0.75 1.625,0.75 0.96875,0 1.625,-0.73437 0.65625,-0.75 0.65625,-2.34375 0,-1.53125 -0.67187,-2.29688 -0.67188,-0.78125 -1.625,-0.78125 -0.9375,0 -1.59375,0.76563 -0.65625,0.76562 -0.65625,2.26562 z m 7.97656,4.29688 v -8.29688 h 1.26562 v 1.25 q 0.48438,-0.875 0.89063,-1.15625 0.40625,-0.28125 0.90625,-0.28125 0.70312,0 1.4375,0.45313 l -0.48438,1.29687 q -0.51562,-0.29687 -1.03125,-0.29687 -0.45312,0 -0.82812,0.28125 -0.35938,0.26562 -0.51563,0.76562 -0.23437,0.75 -0.23437,1.64063 v 4.34375 z m 11.01562,-2.67188 1.45313,0.17188 q -0.34375,1.28125 -1.28125,1.98437 -0.92188,0.70313 -2.35938,0.70313 -1.82812,0 -2.89062,-1.125 -1.0625,-1.125 -1.0625,-3.14063 0,-2.09375 1.07812,-3.25 1.07813,-1.15625 2.79688,-1.15625 1.65625,0 2.70312,1.14063 1.0625,1.125 1.0625,3.17187 0,0.125 0,0.375 h -6.1875 q 0.0781,1.375 0.76563,2.10938 0.70312,0.71875 1.73437,0.71875 0.78125,0 1.32813,-0.40625 0.54687,-0.40625 0.85937,-1.29688 z m -4.60937,-2.28125 h 4.625 q -0.0937,-1.04687 -0.53125,-1.5625 -0.67188,-0.8125 -1.73438,-0.8125 -0.96875,0 -1.64062,0.65625 -0.65625,0.64063 -0.71875,1.71875 z m 7.57033,5.64063 1.375,0.20312 q 0.0781,0.64063 0.46875,0.92188 0.53125,0.39062 1.4375,0.39062 0.96875,0 1.5,-0.39062 0.53125,-0.39063 0.71875,-1.09375 0.10937,-0.42188 0.10937,-1.8125 -0.92187,1.09375 -2.29687,1.09375 -1.71875,0 -2.65625,-1.23438 -0.9375,-1.23437 -0.9375,-2.96875 0,-1.1875 0.42187,-2.1875 0.4375,-1 1.25,-1.54687 0.82813,-0.54688 1.92188,-0.54688 1.46875,0 2.42187,1.1875 v -1 h 1.29688 v 7.17188 q 0,1.9375 -0.39063,2.75 -0.39062,0.8125 -1.25,1.28125 -0.85937,0.46875 -2.10937,0.46875 -1.48438,0 -2.40625,-0.67188 -0.90625,-0.67187 -0.875,-2.01562 z m 1.17187,-4.98438 q 0,1.625 0.64063,2.375 0.65625,0.75 1.625,0.75 0.96875,0 1.625,-0.73437 0.65625,-0.75 0.65625,-2.34375 0,-1.53125 -0.67188,-2.29688 -0.67187,-0.78125 -1.625,-0.78125 -0.9375,0 -1.59375,0.76563 -0.65625,0.76562 -0.65625,2.26562 z m 13.39844,3.26563 q -0.78125,0.67187 -1.5,0.95312 -0.71875,0.26563 -1.54688,0.26563 -1.375,0 -2.10937,-0.67188 -0.73438,-0.67187 -0.73438,-1.70312 0,-0.60938 0.28125,-1.10938 0.28125,-0.51562 0.71875,-0.8125 0.45313,-0.3125 1.01563,-0.46875 0.42187,-0.10937 1.25,-0.20312 1.70312,-0.20313 2.51562,-0.48438 0,-0.29687 0,-0.375 0,-0.85937 -0.39062,-1.20312 -0.54688,-0.48438 -1.60938,-0.48438 -0.98437,0 -1.46875,0.35938 -0.46875,0.34375 -0.6875,1.21875 l -1.375,-0.1875 q 0.1875,-0.875 0.60938,-1.42188 0.4375,-0.54687 1.25,-0.82812 0.8125,-0.29688 1.875,-0.29688 1.0625,0 1.71875,0.25 0.67187,0.25 0.98437,0.625 0.3125,0.375 0.4375,0.95313 0.0781,0.35937 0.0781,1.29687 v 1.875 q 0,1.96875 0.0781,2.48438 0.0937,0.51562 0.35938,1 h -1.46875 q -0.21875,-0.4375 -0.28125,-1.03125 z m -0.10938,-3.14063 q -0.76562,0.3125 -2.29687,0.53125 -0.875,0.125 -1.23438,0.28125 -0.35937,0.15625 -0.5625,0.46875 -0.1875,0.29688 -0.1875,0.65625 0,0.5625 0.42188,0.9375 0.4375,0.375 1.25,0.375 0.8125,0 1.4375,-0.34375 0.64062,-0.35937 0.9375,-0.98437 0.23437,-0.46875 0.23437,-1.40625 z m 6.66407,2.90625 0.20312,1.25 q -0.59375,0.125 -1.0625,0.125 -0.76562,0 -1.1875,-0.23437 -0.42187,-0.25 -0.59375,-0.64063 -0.17187,-0.40625 -0.17187,-1.67187 v -4.76563 h -1.03125 v -1.09375 h 1.03125 v -2.0625 l 1.40625,-0.84375 v 2.90625 h 1.40625 v 1.09375 h -1.40625 v 4.84375 q 0,0.60938 0.0625,0.78125 0.0781,0.17188 0.25,0.28125 0.17187,0.0937 0.48437,0.0937 0.23438,0 0.60938,-0.0625 z m 7.05468,-1.40625 1.45313,0.17188 q -0.34375,1.28125 -1.28125,1.98437 -0.92188,0.70313 -2.35938,0.70313 -1.82812,0 -2.89062,-1.125 -1.0625,-1.125 -1.0625,-3.14063 0,-2.09375 1.07812,-3.25 1.07813,-1.15625 2.79688,-1.15625 1.65625,0 2.70312,1.14063 1.0625,1.125 1.0625,3.17187 0,0.125 0,0.375 h -6.1875 q 0.0781,1.375 0.76563,2.10938 0.70312,0.71875 1.73437,0.71875 0.78125,0 1.32813,-0.40625 0.54687,-0.40625 0.85937,-1.29688 z m -4.60937,-2.28125 h 4.625 q -0.0937,-1.04687 -0.53125,-1.5625 -0.67188,-0.8125 -1.73438,-0.8125 -0.96875,0 -1.64062,0.65625 -0.65625,0.64063 -0.71875,1.71875 z m 13.36719,0.45313 v -1.34375 h 4.85937 v 4.25 q -1.125,0.89062 -2.3125,1.34375 -1.1875,0.45312 -2.4375,0.45312 -1.6875,0 -3.0625,-0.71875 -1.375,-0.73437 -2.07812,-2.09375 -0.70313,-1.375 -0.70313,-3.0625 0,-1.67187 0.6875,-3.125 0.70313,-1.45312 2.01563,-2.15625 1.3125,-0.70312 3.03125,-0.70312 1.23437,0 2.23437,0.40625 1.01563,0.40625 1.57813,1.125 0.57812,0.71875 0.875,1.875 l -1.375,0.375 q -0.25,-0.875 -0.64063,-1.375 -0.375,-0.5 -1.09375,-0.79688 -0.70312,-0.3125 -1.57812,-0.3125 -1.03125,0 -1.79688,0.32813 -0.75,0.3125 -1.21875,0.82812 -0.46875,0.51563 -0.71875,1.125 -0.4375,1.0625 -0.4375,2.3125 0,1.53125 0.51563,2.5625 0.53125,1.03125 1.53125,1.53125 1.01562,0.5 2.15625,0.5 0.98437,0 1.92187,-0.375 0.9375,-0.39062 1.42188,-0.8125 v -2.14062 z m 12.58592,1.82812 1.45312,0.17188 q -0.34375,1.28125 -1.28125,1.98437 -0.92187,0.70313 -2.35937,0.70313 -1.82813,0 -2.89063,-1.125 -1.0625,-1.125 -1.0625,-3.14063 0,-2.09375 1.07813,-3.25 1.07812,-1.15625 2.79687,-1.15625 1.65625,0 2.70313,1.14063 1.0625,1.125 1.0625,3.17187 0,0.125 0,0.375 h -6.1875 q 0.0781,1.375 0.76562,2.10938 0.70313,0.71875 1.73438,0.71875 0.78125,0 1.32812,-0.40625 0.54688,-0.40625 0.85938,-1.29688 z m -4.60938,-2.28125 h 4.625 q -0.0937,-1.04687 -0.53125,-1.5625 -0.67187,-0.8125 -1.73437,-0.8125 -0.96875,0 -1.64063,0.65625 -0.65625,0.64063 -0.71875,1.71875 z m 7.83594,4.95313 v -8.29688 h 1.26563 v 1.17188 q 0.90625,-1.35938 2.64062,-1.35938 0.75,0 1.375,0.26563 0.625,0.26562 0.9375,0.70312 0.3125,0.4375 0.4375,1.04688 0.0781,0.39062 0.0781,1.35937 v 5.10938 h -1.40625 v -5.04688 q 0,-0.85937 -0.17187,-1.28125 -0.15625,-0.4375 -0.57813,-0.6875 -0.40625,-0.25 -0.96875,-0.25 -0.90625,0 -1.5625,0.57813 -0.64062,0.5625 -0.64062,2.15625 v 4.53125 z m 14.57031,-2.67188 1.45313,0.17188 q -0.34375,1.28125 -1.28125,1.98437 -0.92188,0.70313 -2.35938,0.70313 -1.82812,0 -2.89062,-1.125 -1.0625,-1.125 -1.0625,-3.14063 0,-2.09375 1.07812,-3.25 1.07813,-1.15625 2.79688,-1.15625 1.65625,0 2.70312,1.14063 1.0625,1.125 1.0625,3.17187 0,0.125 0,0.375 h -6.1875 q 0.0781,1.375 0.76563,2.10938 0.70312,0.71875 1.73437,0.71875 0.78125,0 1.32813,-0.40625 0.54687,-0.40625 0.85937,-1.29688 z m -4.60937,-2.28125 h 4.625 q -0.0937,-1.04687 -0.53125,-1.5625 -0.67188,-0.8125 -1.73438,-0.8125 -0.96875,0 -1.64062,0.65625 -0.65625,0.64063 -0.71875,1.71875 z m 7.82032,4.95313 v -8.29688 h 1.26562 v 1.25 q 0.48438,-0.875 0.89063,-1.15625 0.40625,-0.28125 0.90625,-0.28125 0.70313,0 1.4375,0.45313 l -0.48437,1.29687 q -0.51563,-0.29687 -1.03125,-0.29687 -0.45313,0 -0.82813,0.28125 -0.35937,0.26562 -0.51562,0.76562 -0.23438,0.75 -0.23438,1.64063 v 4.34375 z m 10.75,-1.03125 q -0.78125,0.67187 -1.5,0.95312 -0.71875,0.26563 -1.54687,0.26563 -1.375,0 -2.10938,-0.67188 -0.73437,-0.67187 -0.73437,-1.70312 0,-0.60938 0.28125,-1.10938 0.28125,-0.51562 0.71875,-0.8125 0.45312,-0.3125 1.01562,-0.46875 0.42188,-0.10937 1.25,-0.20312 1.70313,-0.20313 2.51563,-0.48438 0,-0.29687 0,-0.375 0,-0.85937 -0.39063,-1.20312 -0.54687,-0.48438 -1.60937,-0.48438 -0.98438,0 -1.46875,0.35938 -0.46875,0.34375 -0.6875,1.21875 l -1.375,-0.1875 q 0.1875,-0.875 0.60937,-1.42188 0.4375,-0.54687 1.25,-0.82812 0.8125,-0.29688 1.875,-0.29688 1.0625,0 1.71875,0.25 0.67188,0.25 0.98438,0.625 0.3125,0.375 0.4375,0.95313 0.0781,0.35937 0.0781,1.29687 v 1.875 q 0,1.96875 0.0781,2.48438 0.0937,0.51562 0.35938,1 h -1.46875 q -0.21875,-0.4375 -0.28125,-1.03125 z m -0.10937,-3.14063 q -0.76563,0.3125 -2.29688,0.53125 -0.875,0.125 -1.23437,0.28125 -0.35938,0.15625 -0.5625,0.46875 -0.1875,0.29688 -0.1875,0.65625 0,0.5625 0.42187,0.9375 0.4375,0.375 1.25,0.375 0.8125,0 1.4375,-0.34375 0.64063,-0.35937 0.9375,-0.98437 0.23438,-0.46875 0.23438,-1.40625 z m 6.66406,2.90625 0.20312,1.25 q -0.59375,0.125 -1.0625,0.125 -0.76562,0 -1.1875,-0.23437 -0.42187,-0.25 -0.59375,-0.64063 -0.17187,-0.40625 -0.17187,-1.67187 v -4.76563 h -1.03125 v -1.09375 h 1.03125 v -2.0625 l 1.40625,-0.84375 v 2.90625 h 1.40625 v 1.09375 h -1.40625 v 4.84375 q 0,0.60938 0.0625,0.78125 0.0781,0.17188 0.25,0.28125 0.17187,0.0937 0.48437,0.0937 0.23438,0 0.60938,-0.0625 z m 0.85156,-2.89062 q 0,-2.29688 1.28125,-3.40625 1.07813,-0.92188 2.60938,-0.92188 1.71875,0 2.79687,1.125 1.09375,1.10938 1.09375,3.09375 0,1.59375 -0.48437,2.51563 -0.48438,0.92187 -1.40625,1.4375 -0.90625,0.5 -2,0.5 -1.73438,0 -2.8125,-1.10938 -1.07813,-1.125 -1.07813,-3.23437 z m 1.45313,0 q 0,1.59375 0.6875,2.39062 0.70312,0.79688 1.75,0.79688 1.04687,0 1.73437,-0.79688 0.70313,-0.79687 0.70313,-2.4375 0,-1.53125 -0.70313,-2.32812 -0.6875,-0.79688 -1.73437,-0.79688 -1.04688,0 -1.75,0.79688 -0.6875,0.78125 -0.6875,2.375 z m 7.96093,4.15625 v -8.29688 h 1.26563 v 1.25 q 0.48437,-0.875 0.89062,-1.15625 0.40625,-0.28125 0.90625,-0.28125 0.70313,0 1.4375,0.45313 l -0.48437,1.29687 q -0.51563,-0.29687 -1.03125,-0.29687 -0.45313,0 -0.82813,0.28125 -0.35937,0.26562 -0.51562,0.76562 -0.23438,0.75 -0.23438,1.64063 v 4.34375 z m 4.75,-3.25 1.35938,-0.1875 q 0.0625,1.3125 0.5,1.79687 0.4375,0.48438 1.20312,0.48438 0.57813,0 0.98438,-0.26563 0.42187,-0.26562 0.57812,-0.70312 0.15625,-0.45313 0.15625,-1.4375 v -7.89063 h 1.51563 v 7.79688 q 0,1.4375 -0.35938,2.23437 -0.34375,0.78125 -1.09375,1.20313 -0.75,0.42187 -1.76562,0.42187 -1.51563,0 -2.3125,-0.875 -0.79688,-0.875 -0.76563,-2.57812 z m 8.0625,-0.90625 q 0,-2.29688 1.28125,-3.40625 1.07813,-0.92188 2.60938,-0.92188 1.71875,0 2.79687,1.125 1.09375,1.10938 1.09375,3.09375 0,1.59375 -0.48437,2.51563 -0.48438,0.92187 -1.40625,1.4375 -0.90625,0.5 -2,0.5 -1.73438,0 -2.8125,-1.10938 -1.07813,-1.125 -1.07813,-3.23437 z m 1.45313,0 q 0,1.59375 0.6875,2.39062 0.70312,0.79688 1.75,0.79688 1.04687,0 1.73437,-0.79688 0.70313,-0.79687 0.70313,-2.4375 0,-1.53125 -0.70313,-2.32812 -0.6875,-0.79688 -1.73437,-0.79688 -1.04688,0 -1.75,0.79688 -0.6875,0.78125 -0.6875,2.375 z m 9.27344,4.15625 h -1.3125 v -11.45313 h 1.40625 v 4.07813 q 0.89062,-1.10938 2.28125,-1.10938 0.76562,0 1.4375,0.3125 0.6875,0.29688 1.125,0.85938 0.45312,0.5625 0.70312,1.35937 0.25,0.78125 0.25,1.67188 0,2.14062 -1.0625,3.3125 -1.04687,1.15625 -2.53125,1.15625 -1.46875,0 -2.29687,-1.23438 z m -0.0156,-4.21875 q 0,1.5 0.40625,2.15625 0.65625,1.09375 1.79688,1.09375 0.92187,0 1.59375,-0.79688 0.67187,-0.8125 0.67187,-2.39062 0,-1.625 -0.65625,-2.39063 -0.64062,-0.78125 -1.54687,-0.78125 -0.92188,0 -1.59375,0.79688 -0.67188,0.79687 -0.67188,2.3125 z"
     fill="#000000" />
  <path
     id="path33"
     fill-rule="evenodd"
     d="M 128.13516,142.05644 H 100.45923 V 44.670611 H 72.79658"
     fill-opacity="0"
     fill="#000000" />
  <path
     id="path35"
     fill-rule="evenodd"
     d="M 128.13516,142.05644 H 100.45923 V 44.670611 H 78.79659"
     stroke-linecap="butt"
     stroke-linejoin="round"
     stroke-width="1"
     stroke="#000000" />
  <path
     id="path37"
     fill-rule="evenodd"
     d="m 78.79658,43.018871 -4.5381,1.651733 4.5381,1.651734 z"
     stroke-linecap="butt"
     stroke-width="1"
     stroke="#000000"
     fill="#000000" />
  <path
     id="path39"
     fill-rule="evenodd"
     d="m 128.13516,142.05644 h -27.67593 v 99.33858 H 72.79658"
     fill-opacity="0"
     fill="#000000" />
  <path
     id="path41"
     fill-rule="evenodd"
     d="m 128.13516,142.05644 h -27.67594 v 99.33858 H 78.79659"
     stroke-linecap="butt"
     stroke-linejoin="round"
     stroke-width="1"
     stroke="#000000" />
  <path
     id="path43"
     fill-rule="evenodd"
     d="m 78.79658,239.74329 -4.5381,1.65173 4.5381,1.65174 z"
     stroke-linecap="butt"
     stroke-width="1"
     stroke="#000000"
     fill="#000000" />
  <path
     id="path45"
     fill-rule="evenodd"
     d="m 390.12989,88.339901 h 87.84746 l 17.56988,17.569899 v 89.86317 H 390.12989 Z"
     fill="#d9ead3" />
  <path
     id="path47"
     fill-rule="evenodd"
     d="m 390.12989,88.339901 h 87.84746 l 17.56988,17.569899 v 89.86317 H 390.12989 Z"
     stroke-linecap="butt"
     stroke-linejoin="round"
     stroke-width="1"
     stroke="#000000" />
  <path
     id="path49"
     fill-rule="nonzero"
     d="m 417.59064,137.23078 q 0,-2.85938 1.53125,-4.46875 1.53125,-1.60938 3.95312,-1.60938 1.57813,0 2.84375,0.76563 1.28125,0.75 1.95313,2.10937 0.67187,1.34375 0.67187,3.0625 0,1.75 -0.70312,3.125 -0.70313,1.375 -2,2.09375 -1.28125,0.70313 -2.78125,0.70313 -1.60938,0 -2.89063,-0.78125 -1.26562,-0.79688 -1.92187,-2.14063 -0.65625,-1.35937 -0.65625,-2.85937 z m 1.5625,0.0156 q 0,2.07813 1.10937,3.26563 1.10938,1.1875 2.79688,1.1875 1.70312,0 2.8125,-1.20313 1.10937,-1.20312 1.10937,-3.40625 0,-1.40625 -0.48437,-2.4375 -0.46875,-1.04687 -1.375,-1.625 -0.90625,-0.57812 -2.04688,-0.57812 -1.60937,0 -2.76562,1.10937 -1.15625,1.10938 -1.15625,3.6875 z m 11.49218,5.5625 v -7.20312 h -1.23438 v -1.09375 h 1.23438 v -0.89063 q 0,-0.82812 0.15625,-1.23437 0.20312,-0.54688 0.70312,-0.89063 0.51563,-0.34375 1.4375,-0.34375 0.59375,0 1.3125,0.14063 l -0.20312,1.23437 q -0.4375,-0.0781 -0.82813,-0.0781 -0.64062,0 -0.90625,0.28125 -0.26562,0.26562 -0.26562,1.01562 v 0.76563 h 1.60937 v 1.09375 h -1.60937 v 7.20312 z m 4.15625,0 v -7.20312 h -1.23438 v -1.09375 h 1.23438 v -0.89063 q 0,-0.82812 0.15625,-1.23437 0.20312,-0.54688 0.70312,-0.89063 0.51563,-0.34375 1.4375,-0.34375 0.59375,0 1.3125,0.14063 l -0.20312,1.23437 q -0.4375,-0.0781 -0.82813,-0.0781 -0.64062,0 -0.90625,0.28125 -0.26562,0.26562 -0.26562,1.01562 v 0.76563 h 1.60937 v 1.09375 h -1.60937 v 7.20312 z m 9.78907,-2.67187 1.45312,0.17187 q -0.34375,1.28125 -1.28125,1.98438 -0.92187,0.70312 -2.35937,0.70312 -1.82813,0 -2.89063,-1.125 -1.0625,-1.125 -1.0625,-3.14062 0,-2.09375 1.07813,-3.25 1.07812,-1.15625 2.79687,-1.15625 1.65625,0 2.70313,1.14062 1.0625,1.125 1.0625,3.17188 0,0.125 0,0.375 h -6.1875 q 0.0781,1.375 0.76562,2.10937 0.70313,0.71875 1.73438,0.71875 0.78125,0 1.32812,-0.40625 0.54688,-0.40625 0.85938,-1.29687 z m -4.60938,-2.28125 h 4.625 q -0.0937,-1.04688 -0.53125,-1.5625 -0.67187,-0.8125 -1.73437,-0.8125 -0.96875,0 -1.64063,0.65625 -0.65625,0.64062 -0.71875,1.71875 z m 7.82031,4.95312 v -8.29687 h 1.26562 v 1.25 q 0.48438,-0.875 0.89063,-1.15625 0.40625,-0.28125 0.90625,-0.28125 0.70312,0 1.4375,0.45312 l -0.48438,1.29688 q -0.51562,-0.29688 -1.03125,-0.29688 -0.45312,0 -0.82812,0.28125 -0.35938,0.26563 -0.51563,0.76563 -0.23437,0.75 -0.23437,1.64062 v 4.34375 z m 4.78125,-2.48437 1.39062,-0.21875 q 0.10938,0.84375 0.64063,1.29687 0.54687,0.4375 1.5,0.4375 0.96875,0 1.4375,-0.39062 0.46875,-0.40625 0.46875,-0.9375 0,-0.46875 -0.40625,-0.75 -0.29688,-0.1875 -1.4375,-0.46875 -1.54688,-0.39063 -2.15625,-0.67188 -0.59375,-0.29687 -0.90625,-0.79687 -0.29688,-0.5 -0.29688,-1.10938 0,-0.5625 0.25,-1.03125 0.25,-0.46875 0.6875,-0.78125 0.32813,-0.25 0.89063,-0.40625 0.57812,-0.17187 1.21875,-0.17187 0.98437,0 1.71875,0.28125 0.73437,0.28125 1.07812,0.76562 0.35938,0.46875 0.5,1.28125 l -1.375,0.1875 q -0.0937,-0.64062 -0.54687,-1 -0.45313,-0.35937 -1.26563,-0.35937 -0.96875,0 -1.39062,0.32812 -0.40625,0.3125 -0.40625,0.73438 0,0.28125 0.17187,0.5 0.17188,0.21875 0.53125,0.375 0.21875,0.0781 1.25,0.35937 1.48438,0.39063 2.07813,0.65625 0.59375,0.25 0.92187,0.73438 0.34375,0.48437 0.34375,1.20312 0,0.70313 -0.42187,1.32813 -0.40625,0.60937 -1.1875,0.95312 -0.76563,0.34375 -1.73438,0.34375 -1.625,0 -2.46875,-0.67187 -0.84375,-0.67188 -1.07812,-2 z"
     fill="#000000" />
  <path
     id="path51"
     fill-rule="nonzero"
     d="m 408.8836,160.77766 q -0.78125,0.67187 -1.5,0.95312 -0.71875,0.26563 -1.54688,0.26563 -1.375,0 -2.10937,-0.67188 -0.73438,-0.67187 -0.73438,-1.70312 0,-0.60938 0.28125,-1.10938 0.28125,-0.51562 0.71875,-0.8125 0.45313,-0.3125 1.01563,-0.46875 0.42187,-0.10937 1.25,-0.20312 1.70312,-0.20313 2.51562,-0.48438 0,-0.29687 0,-0.375 0,-0.85937 -0.39062,-1.20312 -0.54688,-0.48438 -1.60938,-0.48438 -0.98437,0 -1.46875,0.35938 -0.46875,0.34375 -0.6875,1.21875 l -1.375,-0.1875 q 0.1875,-0.875 0.60938,-1.42188 0.4375,-0.54687 1.25,-0.82812 0.8125,-0.29688 1.875,-0.29688 1.0625,0 1.71875,0.25 0.67187,0.25 0.98437,0.625 0.3125,0.375 0.4375,0.95313 0.0781,0.35937 0.0781,1.29687 v 1.875 q 0,1.96875 0.0781,2.48438 0.0937,0.51562 0.35937,1 h -1.46875 q -0.21875,-0.4375 -0.28125,-1.03125 z m -0.10938,-3.14063 q -0.76562,0.3125 -2.29687,0.53125 -0.875,0.125 -1.23438,0.28125 -0.35937,0.15625 -0.5625,0.46875 -0.1875,0.29688 -0.1875,0.65625 0,0.5625 0.42188,0.9375 0.4375,0.375 1.25,0.375 0.8125,0 1.4375,-0.34375 0.64062,-0.35937 0.9375,-0.98437 0.23437,-0.46875 0.23437,-1.40625 z m 3.33593,4.85938 1.375,0.20312 q 0.0781,0.64063 0.46875,0.92188 0.53125,0.39062 1.4375,0.39062 0.96875,0 1.5,-0.39062 0.53125,-0.39063 0.71875,-1.09375 0.10938,-0.42188 0.10938,-1.8125 -0.92188,1.09375 -2.29688,1.09375 -1.71875,0 -2.65625,-1.23438 -0.9375,-1.23437 -0.9375,-2.96875 0,-1.1875 0.42188,-2.1875 0.4375,-1 1.25,-1.54687 0.82812,-0.54688 1.92187,-0.54688 1.46875,0 2.42188,1.1875 v -1 h 1.29687 v 7.17188 q 0,1.9375 -0.39062,2.75 -0.39063,0.8125 -1.25,1.28125 -0.85938,0.46875 -2.10938,0.46875 -1.48437,0 -2.40625,-0.67188 -0.90625,-0.67187 -0.875,-2.01562 z m 1.17188,-4.98438 q 0,1.625 0.64062,2.375 0.65625,0.75 1.625,0.75 0.96875,0 1.625,-0.73437 0.65625,-0.75 0.65625,-2.34375 0,-1.53125 -0.67187,-2.29688 -0.67188,-0.78125 -1.625,-0.78125 -0.9375,0 -1.59375,0.76563 -0.65625,0.76562 -0.65625,2.26562 z m 7.72657,4.98438 1.375,0.20312 q 0.0781,0.64063 0.46875,0.92188 0.53125,0.39062 1.4375,0.39062 0.96875,0 1.5,-0.39062 0.53125,-0.39063 0.71875,-1.09375 0.10937,-0.42188 0.10937,-1.8125 -0.92187,1.09375 -2.29687,1.09375 -1.71875,0 -2.65625,-1.23438 -0.9375,-1.23437 -0.9375,-2.96875 0,-1.1875 0.42187,-2.1875 0.4375,-1 1.25,-1.54687 0.82813,-0.54688 1.92188,-0.54688 1.46875,0 2.42187,1.1875 v -1 h 1.29688 v 7.17188 q 0,1.9375 -0.39063,2.75 -0.39062,0.8125 -1.25,1.28125 -0.85937,0.46875 -2.10937,0.46875 -1.48438,0 -2.40625,-0.67188 -0.90625,-0.67187 -0.875,-2.01562 z m 1.17187,-4.98438 q 0,1.625 0.64063,2.375 0.65625,0.75 1.625,0.75 0.96875,0 1.625,-0.73437 0.65625,-0.75 0.65625,-2.34375 0,-1.53125 -0.67188,-2.29688 -0.67187,-0.78125 -1.625,-0.78125 -0.9375,0 -1.59375,0.76563 -0.65625,0.76562 -0.65625,2.26562 z m 7.97656,4.29688 v -8.29688 h 1.26562 v 1.25 q 0.48438,-0.875 0.89063,-1.15625 0.40625,-0.28125 0.90625,-0.28125 0.70312,0 1.4375,0.45313 l -0.48438,1.29687 q -0.51562,-0.29687 -1.03125,-0.29687 -0.45312,0 -0.82812,0.28125 -0.35938,0.26562 -0.51563,0.76562 -0.23437,0.75 -0.23437,1.64063 v 4.34375 z m 11.01562,-2.67188 1.45313,0.17188 q -0.34375,1.28125 -1.28125,1.98437 -0.92188,0.70313 -2.35938,0.70313 -1.82812,0 -2.89062,-1.125 -1.0625,-1.125 -1.0625,-3.14063 0,-2.09375 1.07812,-3.25 1.07813,-1.15625 2.79688,-1.15625 1.65625,0 2.70312,1.14063 1.0625,1.125 1.0625,3.17187 0,0.125 0,0.375 h -6.1875 q 0.0781,1.375 0.76563,2.10938 0.70312,0.71875 1.73437,0.71875 0.78125,0 1.32813,-0.40625 0.54687,-0.40625 0.85937,-1.29688 z m -4.60937,-2.28125 h 4.625 q -0.0937,-1.04687 -0.53125,-1.5625 -0.67188,-0.8125 -1.73438,-0.8125 -0.96875,0 -1.64062,0.65625 -0.65625,0.64063 -0.71875,1.71875 z m 7.57032,5.64063 1.375,0.20312 q 0.0781,0.64063 0.46875,0.92188 0.53125,0.39062 1.4375,0.39062 0.96875,0 1.5,-0.39062 0.53125,-0.39063 0.71875,-1.09375 0.10937,-0.42188 0.10937,-1.8125 -0.92187,1.09375 -2.29687,1.09375 -1.71875,0 -2.65625,-1.23438 -0.9375,-1.23437 -0.9375,-2.96875 0,-1.1875 0.42187,-2.1875 0.4375,-1 1.25,-1.54687 0.82813,-0.54688 1.92188,-0.54688 1.46875,0 2.42187,1.1875 v -1 h 1.29688 v 7.17188 q 0,1.9375 -0.39063,2.75 -0.39062,0.8125 -1.25,1.28125 -0.85937,0.46875 -2.10937,0.46875 -1.48438,0 -2.40625,-0.67188 -0.90625,-0.67187 -0.875,-2.01562 z m 1.17187,-4.98438 q 0,1.625 0.64063,2.375 0.65625,0.75 1.625,0.75 0.96875,0 1.625,-0.73437 0.65625,-0.75 0.65625,-2.34375 0,-1.53125 -0.67188,-2.29688 -0.67187,-0.78125 -1.625,-0.78125 -0.9375,0 -1.59375,0.76563 -0.65625,0.76562 -0.65625,2.26562 z m 13.39843,3.26563 q -0.78125,0.67187 -1.5,0.95312 -0.71875,0.26563 -1.54687,0.26563 -1.375,0 -2.10938,-0.67188 -0.73437,-0.67187 -0.73437,-1.70312 0,-0.60938 0.28125,-1.10938 0.28125,-0.51562 0.71875,-0.8125 0.45312,-0.3125 1.01562,-0.46875 0.42188,-0.10937 1.25,-0.20312 1.70313,-0.20313 2.51563,-0.48438 0,-0.29687 0,-0.375 0,-0.85937 -0.39063,-1.20312 -0.54687,-0.48438 -1.60937,-0.48438 -0.98438,0 -1.46875,0.35938 -0.46875,0.34375 -0.6875,1.21875 l -1.375,-0.1875 q 0.1875,-0.875 0.60937,-1.42188 0.4375,-0.54687 1.25,-0.82812 0.8125,-0.29688 1.875,-0.29688 1.0625,0 1.71875,0.25 0.67188,0.25 0.98438,0.625 0.3125,0.375 0.4375,0.95313 0.0781,0.35937 0.0781,1.29687 v 1.875 q 0,1.96875 0.0781,2.48438 0.0937,0.51562 0.35937,1 h -1.46875 q -0.21875,-0.4375 -0.28125,-1.03125 z m -0.10937,-3.14063 q -0.76563,0.3125 -2.29688,0.53125 -0.875,0.125 -1.23437,0.28125 -0.35938,0.15625 -0.5625,0.46875 -0.1875,0.29688 -0.1875,0.65625 0,0.5625 0.42187,0.9375 0.4375,0.375 1.25,0.375 0.8125,0 1.4375,-0.34375 0.64063,-0.35937 0.9375,-0.98437 0.23438,-0.46875 0.23438,-1.40625 z m 6.66407,2.90625 0.20312,1.25 q -0.59375,0.125 -1.0625,0.125 -0.76562,0 -1.1875,-0.23437 -0.42187,-0.25 -0.59375,-0.64063 -0.17187,-0.40625 -0.17187,-1.67187 v -4.76563 h -1.03125 v -1.09375 h 1.03125 v -2.0625 l 1.40625,-0.84375 v 2.90625 h 1.40625 v 1.09375 h -1.40625 v 4.84375 q 0,0.60938 0.0625,0.78125 0.0781,0.17188 0.25,0.28125 0.17187,0.0937 0.48437,0.0937 0.23438,0 0.60938,-0.0625 z m 7.05468,-1.40625 1.45312,0.17188 q -0.34375,1.28125 -1.28125,1.98437 -0.92187,0.70313 -2.35937,0.70313 -1.82813,0 -2.89063,-1.125 -1.0625,-1.125 -1.0625,-3.14063 0,-2.09375 1.07813,-3.25 1.07812,-1.15625 2.79687,-1.15625 1.65625,0 2.70313,1.14063 1.0625,1.125 1.0625,3.17187 0,0.125 0,0.375 h -6.1875 q 0.0781,1.375 0.76562,2.10938 0.70313,0.71875 1.73438,0.71875 0.78125,0 1.32812,-0.40625 0.54688,-0.40625 0.85938,-1.29688 z m -4.60938,-2.28125 h 4.625 q -0.0937,-1.04687 -0.53125,-1.5625 -0.67187,-0.8125 -1.73437,-0.8125 -0.96875,0 -1.64063,0.65625 -0.65625,0.64063 -0.71875,1.71875 z"
     fill="#000000" />
  <path
     id="path53"
     fill-rule="evenodd"
     d="M 324.89106,142.05644 H 390.1194"
     fill-opacity="0"
     fill="#000000" />
  <path
     id="path55"
     fill-rule="evenodd"
     d="M 324.89106,142.05644 H 384.1194"
     stroke-linecap="butt"
     stroke-linejoin="round"
     stroke-width="1"
     stroke="#000000" />
  <path
     id="path57"
     fill-rule="evenodd"
     d="m 384.1194,143.70817 4.53812,-1.65173 -4.53812,-1.65174 z"
     stroke-linecap="butt"
     stroke-width="1"
     stroke="#000000"
     fill="#000000" />
</svg>
