<?xml version="1.0" encoding="UTF-8" standalone="no"?>
<svg
   xmlns:dc="http://purl.org/dc/elements/1.1/"
   xmlns:cc="http://creativecommons.org/ns#"
   xmlns:rdf="http://www.w3.org/1999/02/22-rdf-syntax-ns#"
   xmlns:svg="http://www.w3.org/2000/svg"
   xmlns="http://www.w3.org/2000/svg"
   xmlns:sodipodi="http://sodipodi.sourceforge.net/DTD/sodipodi-0.dtd"
   xmlns:inkscape="http://www.inkscape.org/namespaces/inkscape"
   inkscape:version="1.0 (4035a4f, 2020-05-01)"
   height="411.68503"
   width="680.37531"
   sodipodi:docname="hermes.svg"
   id="svg113"
   stroke-miterlimit="10"
   stroke-linecap="square"
   stroke="none"
   fill="none"
   viewBox="0 0 680.37531 411.68503"
   version="1.1">
  <metadata
     id="metadata119">
    <rdf:RDF>
      <cc:Work
         rdf:about="">
        <dc:format>image/svg+xml</dc:format>
        <dc:type
           rdf:resource="http://purl.org/dc/dcmitype/StillImage" />
        <dc:title></dc:title>
      </cc:Work>
    </rdf:RDF>
  </metadata>
  <defs
     id="defs117" />
  <sodipodi:namedview
     inkscape:current-layer="svg113"
     inkscape:window-maximized="1"
     inkscape:window-y="23"
     inkscape:window-x="0"
     inkscape:cy="301.32939"
     inkscape:cx="438.62073"
     inkscape:zoom="0.91319444"
     fit-margin-bottom="0"
     fit-margin-right="0"
     fit-margin-left="0"
     fit-margin-top="0"
     showgrid="false"
     id="namedview115"
     inkscape:window-height="1035"
     inkscape:window-width="1920"
     inkscape:pageshadow="2"
     inkscape:pageopacity="0"
     guidetolerance="10"
     gridtolerance="10"
     objecttolerance="10"
     borderopacity="1"
     bordercolor="#666666"
     pagecolor="#ffffff" />
  <clipPath
     id="p.0">
    <path
       id="path2"
       clip-rule="nonzero"
       d="M 0,0 H 1152 V 864 H 0 Z" />
  </clipPath>
  <path
     fill="#000000"
     fill-opacity="0"
     d="M -137.37927,-130.67061 H 1014.6207 v 864 H -137.37927 Z"
     fill-rule="evenodd"
     id="path5" />
  <path
     fill="#c27ba0"
     d="m 573.79657,150.13519 v 0 c 0,7.32321 23.74652,13.25983 53.03937,13.25983 29.29285,0 53.03937,-5.93662 53.03937,-13.25983 v 110.17322 c 0,7.32321 -23.74653,13.25983 -53.03937,13.25983 -29.29285,0 -53.03937,-5.93662 -53.03937,-13.25983 z"
     fill-rule="evenodd"
     id="path7" />
  <path
     fill="#daafc6"
     d="m 573.79657,150.13519 v 0 c 0,-7.32321 23.74652,-13.25986 53.03937,-13.25986 29.29285,0 53.03937,5.93665 53.03937,13.25986 v 0 c 0,7.32321 -23.74653,13.25983 -53.03937,13.25983 -29.29285,0 -53.03937,-5.93662 -53.03937,-13.25983 z"
     fill-rule="evenodd"
     id="path9" />
  <path
     fill="#000000"
     fill-opacity="0"
     d="m 679.87533,150.13519 v 0 c 0,7.32321 -23.74652,13.25983 -53.03937,13.25983 -29.29285,0 -53.03937,-5.93662 -53.03937,-13.25983 v 0 c 0,-7.32321 23.74653,-13.25986 53.03937,-13.25986 29.29285,0 53.03937,5.93665 53.03937,13.25986 v 110.17322 c 0,7.32321 -23.74652,13.25983 -53.03937,13.25983 -29.29285,0 -53.03937,-5.93662 -53.03937,-13.25983 V 150.13519"
     fill-rule="evenodd"
     id="path11" />
  <path
     stroke="#000000"
     stroke-width="1"
     stroke-linejoin="round"
     stroke-linecap="butt"
     d="m 679.87533,150.13519 v 0 c 0,7.32321 -23.74652,13.25983 -53.03937,13.25983 -29.29285,0 -53.03937,-5.93662 -53.03937,-13.25983 v 0 c 0,-7.32321 23.74653,-13.25986 53.03937,-13.25986 29.29285,0 53.03937,5.93665 53.03937,13.25986 v 110.17322 c 0,7.32321 -23.74652,13.25983 -53.03937,13.25983 -29.29285,0 -53.03937,-5.93662 -53.03937,-13.25983 V 150.13519"
     fill-rule="evenodd"
     id="path13" />
  <path
     fill="#000000"
     d="m 606.33983,217.71171 v -11.45313 h 1.51563 v 4.70313 h 5.95312 v -4.70313 h 1.51563 v 11.45313 h -1.51563 v -5.40625 h -5.95312 v 5.40625 z m 11.50781,0 v -11.45313 h 3.95313 q 1.32812,0 2.03125,0.15625 0.98437,0.23438 1.6875,0.82813 0.90625,0.76562 1.34375,1.95312 0.45312,1.1875 0.45312,2.71875 0,1.3125 -0.3125,2.32813 -0.29687,1 -0.78125,1.65625 -0.46875,0.65625 -1.03125,1.04687 -0.5625,0.375 -1.375,0.57813 -0.79687,0.1875 -1.82812,0.1875 z m 1.51563,-1.35938 h 2.45312 q 1.125,0 1.76563,-0.20312 0.65625,-0.21875 1.03125,-0.59375 0.54687,-0.54688 0.84375,-1.45313 0.29687,-0.90625 0.29687,-2.20312 0,-1.79688 -0.59375,-2.76563 -0.57812,-0.96875 -1.42187,-1.29687 -0.60938,-0.23438 -1.96875,-0.23438 h -2.40625 z m 10.11719,1.35938 v -11.45313 h 7.73437 v 1.34375 h -6.21875 v 3.54688 h 5.375 v 1.35937 h -5.375 v 5.20313 z m 9.17968,-3.6875 1.4375,-0.125 q 0.0937,0.85937 0.46875,1.42187 0.375,0.54688 1.15625,0.89063 0.78125,0.32812 1.75,0.32812 0.875,0 1.53125,-0.25 0.67188,-0.26562 0.98438,-0.70312 0.32812,-0.45313 0.32812,-0.98438 0,-0.54687 -0.3125,-0.9375 -0.3125,-0.40625 -1.03125,-0.6875 -0.45312,-0.17187 -2.03125,-0.54687 -1.57812,-0.39063 -2.21875,-0.71875 -0.8125,-0.4375 -1.21875,-1.0625 -0.40625,-0.64063 -0.40625,-1.4375 0,-0.85938 0.48438,-1.60938 0.5,-0.76562 1.4375,-1.15625 0.95312,-0.39062 2.10937,-0.39062 1.28125,0 2.25,0.42187 0.96875,0.40625 1.48438,1.20313 0.53125,0.79687 0.57812,1.79687 l -1.45312,0.10938 q -0.125,-1.07813 -0.79688,-1.625 -0.67187,-0.5625 -2,-0.5625 -1.375,0 -2,0.5 -0.625,0.5 -0.625,1.21875 0,0.60937 0.4375,1.01562 0.4375,0.39063 2.28125,0.8125 1.85938,0.42188 2.54688,0.73438 1,0.45312 1.46875,1.17187 0.48437,0.70313 0.48437,1.625 0,0.90625 -0.53125,1.71875 -0.51562,0.8125 -1.5,1.26563 -0.98437,0.45312 -2.20312,0.45312 -1.5625,0 -2.60938,-0.45312 -1.04687,-0.46875 -1.65625,-1.375 -0.59375,-0.90625 -0.625,-2.0625 z"
     fill-rule="nonzero"
     id="path15" />
  <path
     fill="#fff2cc"
     d="m 317.21653,67.22441 v 0 c 4.35306,0 7.8819,-14.11537 7.8819,-31.52757 0,-17.41219 -3.52884,-31.52756 -7.8819,-31.52756 h 176.51968 c 4.35303,0 7.8819,14.11537 7.8819,31.52756 0,17.4122 -3.52887,31.52757 -7.8819,31.52757 z"
     fill-rule="evenodd"
     id="path17" />
  <path
     fill="#fff7e0"
     d="m 317.21653,67.22441 v 0 c -4.35303,0 -7.8819,-14.11537 -7.8819,-31.52757 0,-17.41219 3.52887,-31.52756 7.8819,-31.52756 v 0 c 4.35306,0 7.8819,14.11537 7.8819,31.52756 0,17.4122 -3.52884,31.52757 -7.8819,31.52757 z"
     fill-rule="evenodd"
     id="path19" />
  <path
     fill="#000000"
     fill-opacity="0"
     d="m 317.21653,4.16928 v 0 c 4.35306,0 7.8819,14.11537 7.8819,31.52756 0,17.4122 -3.52884,31.52757 -7.8819,31.52757 v 0 c -4.35303,0 -7.8819,-14.11537 -7.8819,-31.52757 0,-17.41219 3.52887,-31.52756 7.8819,-31.52756 h 176.51968 c 4.35303,0 7.8819,14.11537 7.8819,31.52756 0,17.4122 -3.52887,31.52757 -7.8819,31.52757 H 317.21653"
     fill-rule="evenodd"
     id="path21" />
  <path
     stroke="#000000"
     stroke-width="1"
     stroke-linejoin="round"
     stroke-linecap="butt"
     d="m 317.21653,4.16928 v 0 c 4.35306,0 7.8819,14.11537 7.8819,31.52756 0,17.4122 -3.52884,31.52757 -7.8819,31.52757 v 0 c -4.35303,0 -7.8819,-14.11537 -7.8819,-31.52757 0,-17.41219 3.52887,-31.52756 7.8819,-31.52756 h 176.51968 c 4.35303,0 7.8819,14.11537 7.8819,31.52756 0,17.4122 -3.52887,31.52757 -7.8819,31.52757 H 317.21653"
     fill-rule="evenodd"
     id="path23" />
  <path
     fill="#000000"
     fill-opacity="0"
     d="M 350.38977,17.23753 H 460.56299 V 57.01706 H 350.38977 Z"
     fill-rule="evenodd"
     id="path25" />
  <path
     fill="#000000"
     d="M 378.75373,41.59753 V 30.1444 h 1.51563 v 4.70313 h 5.95312 V 30.1444 h 1.51563 v 11.45313 h -1.51563 v -5.40625 h -5.95312 v 5.40625 z m 17.00781,-2.67188 1.45313,0.17188 q -0.34375,1.28125 -1.28125,1.98437 -0.92188,0.70313 -2.35938,0.70313 -1.82812,0 -2.89062,-1.125 -1.0625,-1.125 -1.0625,-3.14063 0,-2.09375 1.07812,-3.25 1.07813,-1.15625 2.79688,-1.15625 1.65625,0 2.70312,1.14063 1.0625,1.125 1.0625,3.17187 0,0.125 0,0.375 h -6.1875 q 0.0781,1.375 0.76563,2.10938 0.70312,0.71875 1.73437,0.71875 0.78125,0 1.32813,-0.40625 0.54687,-0.40625 0.85937,-1.29688 z m -4.60937,-2.28125 h 4.625 q -0.0937,-1.04687 -0.53125,-1.5625 -0.67188,-0.8125 -1.73438,-0.8125 -0.96875,0 -1.64062,0.65625 -0.65625,0.64063 -0.71875,1.71875 z m 7.82031,4.95313 v -8.29688 h 1.26562 v 1.25 q 0.48438,-0.875 0.89063,-1.15625 0.40625,-0.28125 0.90625,-0.28125 0.70312,0 1.4375,0.45313 l -0.48438,1.29687 q -0.51562,-0.29687 -1.03125,-0.29687 -0.45312,0 -0.82812,0.28125 -0.35938,0.26562 -0.51563,0.76562 -0.23437,0.75 -0.23437,1.64063 v 4.34375 z m 5.34375,0 v -8.29688 h 1.25 v 1.15625 q 0.39062,-0.60937 1.03125,-0.96875 0.65625,-0.375 1.48437,-0.375 0.92188,0 1.51563,0.39063 0.59375,0.375 0.82812,1.0625 0.98438,-1.45313 2.5625,-1.45313 1.23438,0 1.89063,0.6875 0.67187,0.67188 0.67187,2.09375 v 5.70313 h -1.39062 v -5.23438 q 0,-0.84375 -0.14063,-1.20312 -0.14062,-0.375 -0.5,-0.59375 -0.35937,-0.23438 -0.84375,-0.23438 -0.875,0 -1.45312,0.57813 -0.57813,0.57812 -0.57813,1.85937 v 4.82813 H 409.2381 V 36.2069 q 0,-0.9375 -0.34375,-1.40625 -0.34375,-0.46875 -1.125,-0.46875 -0.59375,0 -1.09375,0.3125 -0.5,0.3125 -0.73437,0.92188 -0.21875,0.59375 -0.21875,1.71875 v 4.3125 z m 19,-2.67188 1.45312,0.17188 q -0.34375,1.28125 -1.28125,1.98437 -0.92187,0.70313 -2.35937,0.70313 -1.82813,0 -2.89063,-1.125 -1.0625,-1.125 -1.0625,-3.14063 0,-2.09375 1.07813,-3.25 1.07812,-1.15625 2.79687,-1.15625 1.65625,0 2.70313,1.14063 1.0625,1.125 1.0625,3.17187 0,0.125 0,0.375 h -6.1875 q 0.0781,1.375 0.76562,2.10938 0.70313,0.71875 1.73438,0.71875 0.78125,0 1.32812,-0.40625 0.54688,-0.40625 0.85938,-1.29688 z m -4.60938,-2.28125 h 4.625 q -0.0937,-1.04687 -0.53125,-1.5625 -0.67187,-0.8125 -1.73437,-0.8125 -0.96875,0 -1.64063,0.65625 -0.65625,0.64063 -0.71875,1.71875 z m 7.27344,2.46875 1.39063,-0.21875 q 0.10937,0.84375 0.64062,1.29688 0.54688,0.4375 1.5,0.4375 0.96875,0 1.4375,-0.39063 0.46875,-0.40625 0.46875,-0.9375 0,-0.46875 -0.40625,-0.75 -0.29687,-0.1875 -1.4375,-0.46875 -1.54687,-0.39062 -2.15625,-0.67187 -0.59375,-0.29688 -0.90625,-0.79688 -0.29687,-0.5 -0.29687,-1.10937 0,-0.5625 0.25,-1.03125 0.25,-0.46875 0.6875,-0.78125 0.32812,-0.25 0.89062,-0.40625 0.57813,-0.17188 1.21875,-0.17188 0.98438,0 1.71875,0.28125 0.73438,0.28125 1.07813,0.76563 0.35937,0.46875 0.5,1.28125 l -1.375,0.1875 q -0.0937,-0.64063 -0.54688,-1 -0.45312,-0.35938 -1.26562,-0.35938 -0.96875,0 -1.39063,0.32813 -0.40625,0.3125 -0.40625,0.73437 0,0.28125 0.17188,0.5 0.17187,0.21875 0.53125,0.375 0.21875,0.0781 1.25,0.35938 1.48437,0.39062 2.07812,0.65625 0.59375,0.25 0.92188,0.73437 0.34375,0.48438 0.34375,1.20313 0,0.70312 -0.42188,1.32812 -0.40625,0.60938 -1.1875,0.95313 -0.76562,0.34375 -1.73437,0.34375 -1.625,0 -2.46875,-0.67188 -0.84375,-0.67187 -1.07813,-2 z"
     fill-rule="nonzero"
     id="path27" />
  <path
     fill="#cfe2f3"
     d="m 0.5,12.23251 v 0 C 0.5,5.75282 5.75282,0.5 12.23251,0.5 h 145.70032 c 3.11167,0 6.09586,1.2361 8.29615,3.43637 2.20028,2.20027 3.43637,5.18448 3.43637,8.29614 v 46.92867 c 0,6.47969 -5.25284,11.73251 -11.73252,11.73251 H 12.23251 C 5.75282,70.89369 0.5,65.64087 0.5,59.16118 Z"
     fill-rule="evenodd"
     id="path29" />
  <path
     stroke="#000000"
     stroke-width="1"
     stroke-linejoin="round"
     stroke-linecap="butt"
     d="m 0.5,12.23251 v 0 C 0.5,5.75282 5.75282,0.5 12.23251,0.5 h 145.70032 c 3.11167,0 6.09586,1.2361 8.29615,3.43637 2.20028,2.20027 3.43637,5.18448 3.43637,8.29614 v 46.92867 c 0,6.47969 -5.25284,11.73251 -11.73252,11.73251 H 12.23251 C 5.75282,70.89369 0.5,65.64087 0.5,59.16118 Z"
     fill-rule="evenodd"
     id="path31" />
  <path
     fill="#000000"
     d="m 53.12955,39.07246 1.39062,-0.21875 q 0.10938,0.84375 0.64063,1.29687 0.54687,0.4375 1.5,0.4375 0.96875,0 1.4375,-0.39062 0.46875,-0.40625 0.46875,-0.9375 0,-0.46875 -0.40625,-0.75 -0.29688,-0.1875 -1.4375,-0.46875 -1.54688,-0.39063 -2.15625,-0.67188 -0.59375,-0.29687 -0.90625,-0.79687 -0.29688,-0.5 -0.29688,-1.10938 0,-0.5625 0.25,-1.03125 0.25,-0.46875 0.6875,-0.78125 0.32813,-0.25 0.89063,-0.40625 0.57812,-0.17187 1.21875,-0.17187 0.98437,0 1.71875,0.28125 0.73437,0.28125 1.07812,0.76562 0.35938,0.46875 0.5,1.28125 l -1.375,0.1875 q -0.0937,-0.64062 -0.54687,-1 -0.45313,-0.35937 -1.26563,-0.35937 -0.96875,0 -1.39062,0.32812 -0.40625,0.3125 -0.40625,0.73438 0,0.28125 0.17187,0.5 0.17188,0.21875 0.53125,0.375 0.21875,0.0781 1.25,0.35937 1.48438,0.39063 2.07813,0.65625 0.59375,0.25 0.92187,0.73438 0.34375,0.48437 0.34375,1.20312 0,0.70313 -0.42187,1.32813 -0.40625,0.60937 -1.1875,0.95312 -0.76563,0.34375 -1.73438,0.34375 -1.625,0 -2.46875,-0.67187 -0.84375,-0.67188 -1.07812,-2 z m 14.23437,-0.1875 1.45313,0.17187 q -0.34375,1.28125 -1.28125,1.98438 -0.92188,0.70312 -2.35938,0.70312 -1.82812,0 -2.89062,-1.125 -1.0625,-1.125 -1.0625,-3.14062 0,-2.09375 1.07812,-3.25 1.07813,-1.15625 2.79688,-1.15625 1.65625,0 2.70312,1.14062 1.0625,1.125 1.0625,3.17188 0,0.125 0,0.375 h -6.1875 q 0.0781,1.375 0.76563,2.10937 0.70312,0.71875 1.73437,0.71875 0.78125,0 1.32813,-0.40625 0.54687,-0.40625 0.85937,-1.29687 z m -4.60937,-2.28125 h 4.625 q -0.0937,-1.04688 -0.53125,-1.5625 -0.67188,-0.8125 -1.73438,-0.8125 -0.96875,0 -1.64062,0.65625 -0.65625,0.64062 -0.71875,1.71875 z m 7.82031,4.95312 v -8.29687 h 1.26563 v 1.25 q 0.48437,-0.875 0.89062,-1.15625 0.40625,-0.28125 0.90625,-0.28125 0.70313,0 1.4375,0.45312 l -0.48437,1.29688 q -0.51563,-0.29688 -1.03125,-0.29688 -0.45313,0 -0.82813,0.28125 -0.35937,0.26563 -0.51562,0.76563 -0.23438,0.75 -0.23438,1.64062 v 4.34375 z m 7.64063,0 -3.15625,-8.29687 h 1.48437 l 1.78125,4.96875 q 0.29688,0.79687 0.53125,1.67187 0.1875,-0.65625 0.53125,-1.57812 l 1.84375,-5.0625 h 1.4375 l -3.14062,8.29687 z m 5.70312,-9.84375 v -1.60937 h 1.40625 v 1.60937 z m 0,9.84375 v -8.29687 h 1.40625 v 8.29687 z m 8.96094,-3.04687 1.39062,0.1875 q -0.23437,1.42187 -1.17187,2.23437 -0.92188,0.8125 -2.28125,0.8125 -1.70313,0 -2.75,-1.10937 -1.03125,-1.125 -1.03125,-3.20313 0,-1.34375 0.4375,-2.34375 0.45312,-1.01562 1.35937,-1.51562 0.92188,-0.5 1.98438,-0.5 1.35937,0 2.21875,0.6875 0.85937,0.67187 1.09375,1.9375 l -1.35938,0.20312 q -0.20312,-0.82812 -0.70312,-1.25 -0.48438,-0.42187 -1.1875,-0.42187 -1.0625,0 -1.73438,0.76562 -0.65625,0.75 -0.65625,2.40625 0,1.67188 0.64063,2.4375 0.64062,0.75 1.67187,0.75 0.82813,0 1.375,-0.5 0.5625,-0.51562 0.70313,-1.57812 z m 8.26562,0.375 1.45313,0.17187 q -0.34375,1.28125 -1.28125,1.98438 -0.92188,0.70312 -2.35938,0.70312 -1.82812,0 -2.89062,-1.125 -1.0625,-1.125 -1.0625,-3.14062 0,-2.09375 1.07812,-3.25 1.07813,-1.15625 2.79688,-1.15625 1.65625,0 2.70312,1.14062 1.0625,1.125 1.0625,3.17188 0,0.125 0,0.375 h -6.1875 q 0.0781,1.375 0.76563,2.10937 0.70312,0.71875 1.73437,0.71875 0.78125,0 1.32813,-0.40625 0.54687,-0.40625 0.85937,-1.29687 z M 96.5358,36.60371 h 4.625 q -0.0937,-1.04688 -0.53125,-1.5625 -0.67188,-0.8125 -1.73438,-0.8125 -0.96875,0 -1.64062,0.65625 -0.65625,0.64062 -0.71875,1.71875 z m 7.28906,1.51562 v -1.42187 h 4.3125 v 1.42187 z m 10.78125,3.4375 h -1.40625 v -8.96875 q -0.51562,0.48438 -1.34375,0.96875 -0.8125,0.48438 -1.46875,0.73438 v -1.35938 q 1.17188,-0.5625 2.04688,-1.34375 0.89062,-0.79687 1.26562,-1.53125 h 0.90625 z"
     fill-rule="nonzero"
     id="path33" />
  <path
     fill="#cfe2f3"
     d="m 0.5,125.66295 v 0 c 0,-6.47968 5.25282,-11.73251 11.73251,-11.73251 h 145.70032 c 3.11167,0 6.09586,1.23611 8.29615,3.43638 2.20028,2.20027 3.43637,5.18448 3.43637,8.29613 v 46.92868 c 0,6.47968 -5.25284,11.73251 -11.73252,11.73251 H 12.23251 C 5.75282,184.32414 0.5,179.0713 0.5,172.59163 Z"
     fill-rule="evenodd"
     id="path35" />
  <path
     stroke="#000000"
     stroke-width="1"
     stroke-linejoin="round"
     stroke-linecap="butt"
     d="m 0.5,125.66295 v 0 c 0,-6.47968 5.25282,-11.73251 11.73251,-11.73251 h 145.70032 c 3.11167,0 6.09586,1.23611 8.29615,3.43638 2.20028,2.20027 3.43637,5.18448 3.43637,8.29613 v 46.92868 c 0,6.47968 -5.25284,11.73251 -11.73252,11.73251 H 12.23251 C 5.75282,184.32414 0.5,179.0713 0.5,172.59163 Z"
     fill-rule="evenodd"
     id="path37" />
  <path
     fill="#000000"
     d="m 53.12955,152.50291 1.39062,-0.21875 q 0.10938,0.84375 0.64063,1.29687 0.54687,0.4375 1.5,0.4375 0.96875,0 1.4375,-0.39062 0.46875,-0.40625 0.46875,-0.9375 0,-0.46875 -0.40625,-0.75 -0.29688,-0.1875 -1.4375,-0.46875 -1.54688,-0.39063 -2.15625,-0.67188 -0.59375,-0.29687 -0.90625,-0.79687 -0.29688,-0.5 -0.29688,-1.10938 0,-0.5625 0.25,-1.03125 0.25,-0.46875 0.6875,-0.78125 0.32813,-0.25 0.89063,-0.40625 0.57812,-0.17187 1.21875,-0.17187 0.98437,0 1.71875,0.28125 0.73437,0.28125 1.07812,0.76562 0.35938,0.46875 0.5,1.28125 l -1.375,0.1875 q -0.0937,-0.64062 -0.54687,-1 -0.45313,-0.35937 -1.26563,-0.35937 -0.96875,0 -1.39062,0.32812 -0.40625,0.3125 -0.40625,0.73438 0,0.28125 0.17187,0.5 0.17188,0.21875 0.53125,0.375 0.21875,0.0781 1.25,0.35937 1.48438,0.39063 2.07813,0.65625 0.59375,0.25 0.92187,0.73438 0.34375,0.48437 0.34375,1.20312 0,0.70313 -0.42187,1.32813 -0.40625,0.60937 -1.1875,0.95312 -0.76563,0.34375 -1.73438,0.34375 -1.625,0 -2.46875,-0.67187 -0.84375,-0.67188 -1.07812,-2 z m 14.23437,-0.1875 1.45313,0.17187 q -0.34375,1.28125 -1.28125,1.98438 -0.92188,0.70312 -2.35938,0.70312 -1.82812,0 -2.89062,-1.125 -1.0625,-1.125 -1.0625,-3.14062 0,-2.09375 1.07812,-3.25 1.07813,-1.15625 2.79688,-1.15625 1.65625,0 2.70312,1.14062 1.0625,1.125 1.0625,3.17188 0,0.125 0,0.375 h -6.1875 q 0.0781,1.375 0.76563,2.10937 0.70312,0.71875 1.73437,0.71875 0.78125,0 1.32813,-0.40625 0.54687,-0.40625 0.85937,-1.29687 z m -4.60937,-2.28125 h 4.625 q -0.0937,-1.04688 -0.53125,-1.5625 -0.67188,-0.8125 -1.73438,-0.8125 -0.96875,0 -1.64062,0.65625 -0.65625,0.64062 -0.71875,1.71875 z m 7.82031,4.95312 v -8.29687 h 1.26563 v 1.25 q 0.48437,-0.875 0.89062,-1.15625 0.40625,-0.28125 0.90625,-0.28125 0.70313,0 1.4375,0.45312 l -0.48437,1.29688 q -0.51563,-0.29688 -1.03125,-0.29688 -0.45313,0 -0.82813,0.28125 -0.35937,0.26563 -0.51562,0.76563 -0.23438,0.75 -0.23438,1.64062 v 4.34375 z m 7.64063,0 -3.15625,-8.29687 h 1.48437 l 1.78125,4.96875 q 0.29688,0.79687 0.53125,1.67187 0.1875,-0.65625 0.53125,-1.57812 l 1.84375,-5.0625 h 1.4375 l -3.14062,8.29687 z m 5.70312,-9.84375 v -1.60937 h 1.40625 v 1.60937 z m 0,9.84375 v -8.29687 h 1.40625 v 8.29687 z m 8.96094,-3.04687 1.39062,0.1875 q -0.23437,1.42187 -1.17187,2.23437 -0.92188,0.8125 -2.28125,0.8125 -1.70313,0 -2.75,-1.10937 -1.03125,-1.125 -1.03125,-3.20313 0,-1.34375 0.4375,-2.34375 0.45312,-1.01562 1.35937,-1.51562 0.92188,-0.5 1.98438,-0.5 1.35937,0 2.21875,0.6875 0.85937,0.67187 1.09375,1.9375 l -1.35938,0.20312 q -0.20312,-0.82812 -0.70312,-1.25 -0.48438,-0.42187 -1.1875,-0.42187 -1.0625,0 -1.73438,0.76562 -0.65625,0.75 -0.65625,2.40625 0,1.67188 0.64063,2.4375 0.64062,0.75 1.67187,0.75 0.82813,0 1.375,-0.5 0.5625,-0.51562 0.70313,-1.57812 z m 8.26562,0.375 1.45313,0.17187 q -0.34375,1.28125 -1.28125,1.98438 -0.92188,0.70312 -2.35938,0.70312 -1.82812,0 -2.89062,-1.125 -1.0625,-1.125 -1.0625,-3.14062 0,-2.09375 1.07812,-3.25 1.07813,-1.15625 2.79688,-1.15625 1.65625,0 2.70312,1.14062 1.0625,1.125 1.0625,3.17188 0,0.125 0,0.375 h -6.1875 q 0.0781,1.375 0.76563,2.10937 0.70312,0.71875 1.73437,0.71875 0.78125,0 1.32813,-0.40625 0.54687,-0.40625 0.85937,-1.29687 z m -4.60937,-2.28125 h 4.625 q -0.0937,-1.04688 -0.53125,-1.5625 -0.67188,-0.8125 -1.73438,-0.8125 -0.96875,0 -1.64062,0.65625 -0.65625,0.64062 -0.71875,1.71875 z m 7.28906,1.51562 v -1.42187 h 4.3125 v 1.42187 z m 12.875,2.07813 v 1.35937 h -7.57812 q -0.0156,-0.51562 0.17187,-0.98437 0.28125,-0.76563 0.92188,-1.51563 0.64062,-0.75 1.84375,-1.73437 1.85937,-1.53125 2.51562,-2.42188 0.65625,-0.90625 0.65625,-1.70312 0,-0.82813 -0.59375,-1.40625 -0.59375,-0.57813 -1.5625,-0.57813 -1.01562,0 -1.625,0.60938 -0.60937,0.60937 -0.60937,1.6875 l -1.45313,-0.14063 q 0.15625,-1.625 1.125,-2.46875 0.96875,-0.84375 2.59375,-0.84375 1.65625,0 2.60938,0.92188 0.96875,0.90625 0.96875,2.25 0,0.6875 -0.28125,1.35937 -0.28125,0.65625 -0.9375,1.39063 -0.65625,0.73437 -2.17188,2.01562 -1.26562,1.0625 -1.625,1.45313 -0.35937,0.375 -0.59375,0.75 z"
     fill-rule="nonzero"
     id="path39" />
  <path
     fill="#cfe2f3"
     d="m 0.5,239.09339 v 0 c 0,-6.47968 5.25282,-11.73251 11.73251,-11.73251 h 145.70032 c 3.11167,0 6.09586,1.23611 8.29615,3.43637 2.20028,2.20028 3.43637,5.18448 3.43637,8.29614 v 46.92868 c 0,6.47968 -5.25284,11.73251 -11.73252,11.73251 H 12.23251 C 5.75282,297.75458 0.5,292.50175 0.5,286.02207 Z"
     fill-rule="evenodd"
     id="path41" />
  <path
     stroke="#000000"
     stroke-width="1"
     stroke-linejoin="round"
     stroke-linecap="butt"
     d="m 0.5,239.09339 v 0 c 0,-6.47968 5.25282,-11.73251 11.73251,-11.73251 h 145.70032 c 3.11167,0 6.09586,1.23611 8.29615,3.43637 2.20028,2.20028 3.43637,5.18448 3.43637,8.29614 v 46.92868 c 0,6.47968 -5.25284,11.73251 -11.73252,11.73251 H 12.23251 C 5.75282,297.75458 0.5,292.50175 0.5,286.02207 Z"
     fill-rule="evenodd"
     id="path43" />
  <path
     fill="#000000"
     d="m 53.12955,265.93336 1.39062,-0.21875 q 0.10938,0.84375 0.64063,1.29687 0.54687,0.4375 1.5,0.4375 0.96875,0 1.4375,-0.39062 0.46875,-0.40625 0.46875,-0.9375 0,-0.46875 -0.40625,-0.75 -0.29688,-0.1875 -1.4375,-0.46875 -1.54688,-0.39063 -2.15625,-0.67188 -0.59375,-0.29687 -0.90625,-0.79687 -0.29688,-0.5 -0.29688,-1.10938 0,-0.5625 0.25,-1.03125 0.25,-0.46875 0.6875,-0.78125 0.32813,-0.25 0.89063,-0.40625 0.57812,-0.17187 1.21875,-0.17187 0.98437,0 1.71875,0.28125 0.73437,0.28125 1.07812,0.76562 0.35938,0.46875 0.5,1.28125 l -1.375,0.1875 q -0.0937,-0.64062 -0.54687,-1 -0.45313,-0.35937 -1.26563,-0.35937 -0.96875,0 -1.39062,0.32812 -0.40625,0.3125 -0.40625,0.73438 0,0.28125 0.17187,0.5 0.17188,0.21875 0.53125,0.375 0.21875,0.0781 1.25,0.35937 1.48438,0.39063 2.07813,0.65625 0.59375,0.25 0.92187,0.73438 0.34375,0.48437 0.34375,1.20312 0,0.70313 -0.42187,1.32813 -0.40625,0.60937 -1.1875,0.95312 -0.76563,0.34375 -1.73438,0.34375 -1.625,0 -2.46875,-0.67187 -0.84375,-0.67188 -1.07812,-2 z m 14.23437,-0.1875 1.45313,0.17187 q -0.34375,1.28125 -1.28125,1.98438 -0.92188,0.70312 -2.35938,0.70312 -1.82812,0 -2.89062,-1.125 -1.0625,-1.125 -1.0625,-3.14062 0,-2.09375 1.07812,-3.25 1.07813,-1.15625 2.79688,-1.15625 1.65625,0 2.70312,1.14062 1.0625,1.125 1.0625,3.17188 0,0.125 0,0.375 h -6.1875 q 0.0781,1.375 0.76563,2.10937 0.70312,0.71875 1.73437,0.71875 0.78125,0 1.32813,-0.40625 0.54687,-0.40625 0.85937,-1.29687 z m -4.60937,-2.28125 h 4.625 q -0.0937,-1.04688 -0.53125,-1.5625 -0.67188,-0.8125 -1.73438,-0.8125 -0.96875,0 -1.64062,0.65625 -0.65625,0.64062 -0.71875,1.71875 z m 7.82031,4.95312 v -8.29687 h 1.26563 v 1.25 q 0.48437,-0.875 0.89062,-1.15625 0.40625,-0.28125 0.90625,-0.28125 0.70313,0 1.4375,0.45312 l -0.48437,1.29688 q -0.51563,-0.29688 -1.03125,-0.29688 -0.45313,0 -0.82813,0.28125 -0.35937,0.26563 -0.51562,0.76563 -0.23438,0.75 -0.23438,1.64062 v 4.34375 z m 7.64063,0 -3.15625,-8.29687 h 1.48437 l 1.78125,4.96875 q 0.29688,0.79687 0.53125,1.67187 0.1875,-0.65625 0.53125,-1.57812 l 1.84375,-5.0625 h 1.4375 l -3.14062,8.29687 z m 5.70312,-9.84375 v -1.60937 h 1.40625 v 1.60937 z m 0,9.84375 v -8.29687 h 1.40625 v 8.29687 z m 8.96094,-3.04687 1.39062,0.1875 q -0.23437,1.42187 -1.17187,2.23437 -0.92188,0.8125 -2.28125,0.8125 -1.70313,0 -2.75,-1.10937 -1.03125,-1.125 -1.03125,-3.20313 0,-1.34375 0.4375,-2.34375 0.45312,-1.01562 1.35937,-1.51562 0.92188,-0.5 1.98438,-0.5 1.35937,0 2.21875,0.6875 0.85937,0.67187 1.09375,1.9375 l -1.35938,0.20312 q -0.20312,-0.82812 -0.70312,-1.25 -0.48438,-0.42187 -1.1875,-0.42187 -1.0625,0 -1.73438,0.76562 -0.65625,0.75 -0.65625,2.40625 0,1.67188 0.64063,2.4375 0.64062,0.75 1.67187,0.75 0.82813,0 1.375,-0.5 0.5625,-0.51562 0.70313,-1.57812 z m 8.26562,0.375 1.45313,0.17187 q -0.34375,1.28125 -1.28125,1.98438 -0.92188,0.70312 -2.35938,0.70312 -1.82812,0 -2.89062,-1.125 -1.0625,-1.125 -1.0625,-3.14062 0,-2.09375 1.07812,-3.25 1.07813,-1.15625 2.79688,-1.15625 1.65625,0 2.70312,1.14062 1.0625,1.125 1.0625,3.17188 0,0.125 0,0.375 h -6.1875 q 0.0781,1.375 0.76563,2.10937 0.70312,0.71875 1.73437,0.71875 0.78125,0 1.32813,-0.40625 0.54687,-0.40625 0.85937,-1.29687 z m -4.60937,-2.28125 h 4.625 q -0.0937,-1.04688 -0.53125,-1.5625 -0.67188,-0.8125 -1.73438,-0.8125 -0.96875,0 -1.64062,0.65625 -0.65625,0.64062 -0.71875,1.71875 z m 7.28906,1.51562 v -1.42187 h 4.3125 v 1.42187 z m 5.48438,0.40625 1.40625,-0.1875 q 0.25,1.20313 0.82812,1.73438 0.57813,0.51562 1.42188,0.51562 0.98437,0 1.67187,-0.6875 0.6875,-0.6875 0.6875,-1.70312 0,-0.96875 -0.64062,-1.59375 -0.625,-0.625 -1.60938,-0.625 -0.39062,0 -0.98437,0.15625 l 0.15625,-1.23438 q 0.14062,0.0156 0.21875,0.0156 0.90625,0 1.625,-0.46875 0.71875,-0.46875 0.71875,-1.45313 0,-0.76562 -0.53125,-1.26562 -0.51563,-0.51563 -1.34375,-0.51563 -0.82813,0 -1.375,0.51563 -0.54688,0.51562 -0.70313,1.54687 l -1.40625,-0.25 q 0.26563,-1.42187 1.17188,-2.1875 0.92187,-0.78125 2.28125,-0.78125 0.9375,0 1.71875,0.40625 0.79687,0.39063 1.20312,1.09375 0.42188,0.6875 0.42188,1.46875 0,0.75 -0.40625,1.35938 -0.39063,0.60937 -1.17188,0.96875 1.01563,0.23437 1.57813,0.96875 0.5625,0.73437 0.5625,1.84375 0,1.5 -1.09375,2.54687 -1.09375,1.04688 -2.76563,1.04688 -1.5,0 -2.5,-0.89063 -1,-0.90625 -1.14062,-2.34375 z"
     fill-rule="nonzero"
     id="path45" />
  <path
     fill="#cfe2f3"
     d="m 0.5,352.52385 v 0 c 0,-6.47968 5.25282,-11.73251 11.73251,-11.73251 h 145.70032 c 3.11167,0 6.09586,1.23608 8.29615,3.43637 2.20028,2.20028 3.43637,5.18448 3.43637,8.29614 v 46.92865 c 0,6.47974 -5.25284,11.73254 -11.73252,11.73254 H 12.23251 C 5.75282,411.18504 0.5,405.93224 0.5,399.4525 Z"
     fill-rule="evenodd"
     id="path47" />
  <path
     stroke="#000000"
     stroke-width="1"
     stroke-linejoin="round"
     stroke-linecap="butt"
     d="m 0.5,352.52385 v 0 c 0,-6.47968 5.25282,-11.73251 11.73251,-11.73251 h 145.70032 c 3.11167,0 6.09586,1.23608 8.29615,3.43637 2.20028,2.20028 3.43637,5.18448 3.43637,8.29614 v 46.92865 c 0,6.47974 -5.25284,11.73254 -11.73252,11.73254 H 12.23251 C 5.75282,411.18504 0.5,405.93224 0.5,399.4525 Z"
     fill-rule="evenodd"
     id="path49" />
  <path
     fill="#000000"
     d="m 51.80143,379.36381 1.39062,-0.21875 q 0.10938,0.84375 0.64063,1.29687 0.54687,0.4375 1.5,0.4375 0.96875,0 1.4375,-0.39062 0.46875,-0.40625 0.46875,-0.9375 0,-0.46875 -0.40625,-0.75 -0.29688,-0.1875 -1.4375,-0.46875 -1.54688,-0.39063 -2.15625,-0.67188 -0.59375,-0.29687 -0.90625,-0.79687 -0.29688,-0.5 -0.29688,-1.10938 0,-0.5625 0.25,-1.03125 0.25,-0.46875 0.6875,-0.78125 0.32813,-0.25 0.89063,-0.40625 0.57812,-0.17187 1.21875,-0.17187 0.98437,0 1.71875,0.28125 0.73437,0.28125 1.07812,0.76562 0.35938,0.46875 0.5,1.28125 l -1.375,0.1875 q -0.0937,-0.64062 -0.54687,-1 -0.45313,-0.35937 -1.26563,-0.35937 -0.96875,0 -1.39062,0.32812 -0.40625,0.3125 -0.40625,0.73438 0,0.28125 0.17187,0.5 0.17188,0.21875 0.53125,0.375 0.21875,0.0781 1.25,0.35937 1.48438,0.39063 2.07813,0.65625 0.59375,0.25 0.92187,0.73438 0.34375,0.48437 0.34375,1.20312 0,0.70313 -0.42187,1.32813 -0.40625,0.60937 -1.1875,0.95312 -0.76563,0.34375 -1.73438,0.34375 -1.625,0 -2.46875,-0.67187 -0.84375,-0.67188 -1.07812,-2 z m 14.23437,-0.1875 1.45313,0.17187 q -0.34375,1.28125 -1.28125,1.98438 -0.92188,0.70312 -2.35938,0.70312 -1.82812,0 -2.89062,-1.125 -1.0625,-1.125 -1.0625,-3.14062 0,-2.09375 1.07812,-3.25 1.07813,-1.15625 2.79688,-1.15625 1.65625,0 2.70312,1.14062 1.0625,1.125 1.0625,3.17188 0,0.125 0,0.375 h -6.1875 q 0.0781,1.375 0.76563,2.10937 0.70312,0.71875 1.73437,0.71875 0.78125,0 1.32813,-0.40625 0.54687,-0.40625 0.85937,-1.29687 z m -4.60937,-2.28125 h 4.625 q -0.0937,-1.04688 -0.53125,-1.5625 -0.67188,-0.8125 -1.73438,-0.8125 -0.96875,0 -1.64062,0.65625 -0.65625,0.64062 -0.71875,1.71875 z m 7.82031,4.95312 v -8.29687 h 1.26563 v 1.25 q 0.48437,-0.875 0.89062,-1.15625 0.40625,-0.28125 0.90625,-0.28125 0.70313,0 1.4375,0.45312 l -0.48437,1.29688 q -0.51563,-0.29688 -1.03125,-0.29688 -0.45313,0 -0.82813,0.28125 -0.35937,0.26563 -0.51562,0.76563 -0.23438,0.75 -0.23438,1.64062 v 4.34375 z m 7.64063,0 -3.15625,-8.29687 h 1.48437 l 1.78125,4.96875 q 0.29688,0.79687 0.53125,1.67187 0.1875,-0.65625 0.53125,-1.57812 l 1.84375,-5.0625 h 1.4375 l -3.14062,8.29687 z m 5.70312,-9.84375 v -1.60937 h 1.40625 v 1.60937 z m 0,9.84375 v -8.29687 h 1.40625 v 8.29687 z m 8.96094,-3.04687 1.39062,0.1875 q -0.23437,1.42187 -1.17187,2.23437 -0.92188,0.8125 -2.28125,0.8125 -1.70313,0 -2.75,-1.10937 -1.03125,-1.125 -1.03125,-3.20313 0,-1.34375 0.4375,-2.34375 0.45312,-1.01562 1.35937,-1.51562 0.92188,-0.5 1.98438,-0.5 1.35937,0 2.21875,0.6875 0.85937,0.67187 1.09375,1.9375 l -1.35938,0.20312 q -0.20312,-0.82812 -0.70312,-1.25 -0.48438,-0.42187 -1.1875,-0.42187 -1.0625,0 -1.73438,0.76562 -0.65625,0.75 -0.65625,2.40625 0,1.67188 0.64063,2.4375 0.64062,0.75 1.67187,0.75 0.82813,0 1.375,-0.5 0.5625,-0.51562 0.70313,-1.57812 z m 8.26562,0.375 1.45313,0.17187 q -0.34375,1.28125 -1.28125,1.98438 -0.92188,0.70312 -2.35938,0.70312 -1.82812,0 -2.89062,-1.125 -1.0625,-1.125 -1.0625,-3.14062 0,-2.09375 1.07812,-3.25 1.07813,-1.15625 2.79688,-1.15625 1.65625,0 2.70312,1.14062 1.0625,1.125 1.0625,3.17188 0,0.125 0,0.375 h -6.1875 q 0.0781,1.375 0.76563,2.10937 0.70312,0.71875 1.73437,0.71875 0.78125,0 1.32813,-0.40625 0.54687,-0.40625 0.85937,-1.29687 z m -4.60937,-2.28125 h 4.625 q -0.0937,-1.04688 -0.53125,-1.5625 -0.67188,-0.8125 -1.73438,-0.8125 -0.96875,0 -1.64062,0.65625 -0.65625,0.64062 -0.71875,1.71875 z m 7.28906,1.51562 v -1.42187 h 4.3125 v 1.42187 z m 6.03125,3.4375 v -11.45312 h 1.5625 l 6.01563,8.98437 v -8.98437 h 1.45312 v 11.45312 h -1.5625 l -6.01562,-9 v 9 z"
     fill-rule="nonzero"
     id="path51" />
  <path
     fill="#000000"
     fill-opacity="0"
     d="m 169.66535,35.69684 h 69.83414 v 0.063 h 69.85089"
     fill-rule="evenodd"
     id="path53" />
  <path
     stroke="#000000"
     stroke-width="1"
     stroke-linejoin="round"
     stroke-linecap="butt"
     d="m 169.66535,35.69684 h 69.83414 v 0.063 h 69.85089"
     fill-rule="evenodd"
     id="path55" />
  <path
     fill="#000000"
     fill-opacity="0"
     d="m 169.66535,149.12729 h 69.83414 V 35.70996 h 69.85089"
     fill-rule="evenodd"
     id="path57" />
  <path
     stroke="#000000"
     stroke-width="1"
     stroke-linejoin="round"
     stroke-linecap="butt"
     d="m 169.66535,149.12729 h 69.83414 V 35.70996 h 69.85089"
     fill-rule="evenodd"
     id="path59" />
  <path
     fill="#000000"
     fill-opacity="0"
     d="m 169.66535,262.55772 h 69.83414 V 35.69159 h 69.85089"
     fill-rule="evenodd"
     id="path61" />
  <path
     stroke="#000000"
     stroke-width="1"
     stroke-linejoin="round"
     stroke-linecap="butt"
     d="m 169.66535,262.55772 h 69.83414 V 35.69159 h 69.85089"
     fill-rule="evenodd"
     id="path63" />
  <path
     fill="#000000"
     fill-opacity="0"
     d="m 169.66535,375.98817 h 69.83414 V 35.70472 h 69.85089"
     fill-rule="evenodd"
     id="path65" />
  <path
     stroke="#000000"
     stroke-width="1"
     stroke-linejoin="round"
     stroke-linecap="butt"
     d="m 169.66535,375.98817 h 69.83417 V 35.70472 h 63.85086"
     fill-rule="evenodd"
     id="path67" />
  <path
     fill="#000000"
     stroke="#000000"
     stroke-width="1"
     stroke-linecap="butt"
     d="m 303.35037,37.35644 4.53812,-1.65172 -4.53812,-1.65173 z"
     fill-rule="evenodd"
     id="path69" />
  <path
     fill="#cfe2f3"
     d="m 327.01969,351.11439 v 0 c 0,-6.47968 5.25281,-11.73251 11.73251,-11.73251 h 133.44836 c 3.11164,0 6.09583,1.23611 8.29615,3.43637 2.20025,2.20028 3.43634,5.18448 3.43634,8.29614 v 46.92868 c 0,6.47968 -5.25281,11.73248 -11.73249,11.73248 H 338.7522 c -6.4797,0 -11.73251,-5.2528 -11.73251,-11.73248 z"
     fill-rule="evenodd"
     id="path71" />
  <path
     stroke="#000000"
     stroke-width="1"
     stroke-linejoin="round"
     stroke-linecap="butt"
     d="m 327.01969,351.11439 v 0 c 0,-6.47968 5.25281,-11.73251 11.73251,-11.73251 h 133.44836 c 3.11164,0 6.09583,1.23611 8.29615,3.43637 2.20025,2.20028 3.43634,5.18448 3.43634,8.29614 v 46.92868 c 0,6.47968 -5.25281,11.73248 -11.73249,11.73248 H 338.7522 c -6.4797,0 -11.73251,-5.2528 -11.73251,-11.73248 z"
     fill-rule="evenodd"
     id="path73" />
  <path
     fill="#000000"
     d="m 344.28888,380.43873 v -8.29688 h 1.25 v 1.15625 q 0.39063,-0.60937 1.03125,-0.96875 0.65625,-0.375 1.48438,-0.375 0.92187,0 1.51562,0.39063 0.59375,0.375 0.82813,1.0625 0.98437,-1.45313 2.5625,-1.45313 1.23437,0 1.89062,0.6875 0.67188,0.67188 0.67188,2.09375 v 5.70313 h -1.39063 v -5.23438 q 0,-0.84375 -0.14062,-1.20312 -0.14063,-0.375 -0.5,-0.59375 -0.35938,-0.23438 -0.84375,-0.23438 -0.875,0 -1.45313,0.57813 -0.57812,0.57812 -0.57812,1.85937 v 4.82813 h -1.40625 v -5.39063 q 0,-0.9375 -0.34375,-1.40625 -0.34375,-0.46875 -1.125,-0.46875 -0.59375,0 -1.09375,0.3125 -0.5,0.3125 -0.73438,0.92188 -0.21875,0.59375 -0.21875,1.71875 v 4.3125 z m 19,-2.67188 1.45313,0.17188 q -0.34375,1.28125 -1.28125,1.98437 -0.92188,0.70313 -2.35938,0.70313 -1.82812,0 -2.89062,-1.125 -1.0625,-1.125 -1.0625,-3.14063 0,-2.09375 1.07812,-3.25 1.07813,-1.15625 2.79688,-1.15625 1.65625,0 2.70312,1.14063 1.0625,1.125 1.0625,3.17187 0,0.125 0,0.375 h -6.1875 q 0.0781,1.375 0.76563,2.10938 0.70312,0.71875 1.73437,0.71875 0.78125,0 1.32813,-0.40625 0.54687,-0.40625 0.85937,-1.29688 z m -4.60937,-2.28125 h 4.625 q -0.0937,-1.04687 -0.53125,-1.5625 -0.67188,-0.8125 -1.73438,-0.8125 -0.96875,0 -1.64062,0.65625 -0.65625,0.64063 -0.71875,1.71875 z m 7.27343,2.46875 1.39063,-0.21875 q 0.10937,0.84375 0.64062,1.29688 0.54688,0.4375 1.5,0.4375 0.96875,0 1.4375,-0.39063 0.46875,-0.40625 0.46875,-0.9375 0,-0.46875 -0.40625,-0.75 -0.29687,-0.1875 -1.4375,-0.46875 -1.54687,-0.39062 -2.15625,-0.67187 -0.59375,-0.29688 -0.90625,-0.79688 -0.29687,-0.5 -0.29687,-1.10937 0,-0.5625 0.25,-1.03125 0.25,-0.46875 0.6875,-0.78125 0.32812,-0.25 0.89062,-0.40625 0.57813,-0.17188 1.21875,-0.17188 0.98438,0 1.71875,0.28125 0.73438,0.28125 1.07813,0.76563 0.35937,0.46875 0.5,1.28125 l -1.375,0.1875 q -0.0937,-0.64063 -0.54688,-1 -0.45312,-0.35938 -1.26562,-0.35938 -0.96875,0 -1.39063,0.32813 -0.40625,0.3125 -0.40625,0.73437 0,0.28125 0.17188,0.5 0.17187,0.21875 0.53125,0.375 0.21875,0.0781 1.25,0.35938 1.48437,0.39062 2.07812,0.65625 0.59375,0.25 0.92188,0.73437 0.34375,0.48438 0.34375,1.20313 0,0.70312 -0.42188,1.32812 -0.40625,0.60938 -1.1875,0.95313 -0.76562,0.34375 -1.73437,0.34375 -1.625,0 -2.46875,-0.67188 -0.84375,-0.67187 -1.07813,-2 z m 8,0 1.39063,-0.21875 q 0.10937,0.84375 0.64062,1.29688 0.54688,0.4375 1.5,0.4375 0.96875,0 1.4375,-0.39063 0.46875,-0.40625 0.46875,-0.9375 0,-0.46875 -0.40625,-0.75 -0.29687,-0.1875 -1.4375,-0.46875 -1.54687,-0.39062 -2.15625,-0.67187 -0.59375,-0.29688 -0.90625,-0.79688 -0.29687,-0.5 -0.29687,-1.10937 0,-0.5625 0.25,-1.03125 0.25,-0.46875 0.6875,-0.78125 0.32812,-0.25 0.89062,-0.40625 0.57813,-0.17188 1.21875,-0.17188 0.98438,0 1.71875,0.28125 0.73438,0.28125 1.07813,0.76563 0.35937,0.46875 0.5,1.28125 l -1.375,0.1875 q -0.0937,-0.64063 -0.54688,-1 -0.45312,-0.35938 -1.26562,-0.35938 -0.96875,0 -1.39063,0.32813 -0.40625,0.3125 -0.40625,0.73437 0,0.28125 0.17188,0.5 0.17187,0.21875 0.53125,0.375 0.21875,0.0781 1.25,0.35938 1.48437,0.39062 2.07812,0.65625 0.59375,0.25 0.92188,0.73437 0.34375,0.48438 0.34375,1.20313 0,0.70312 -0.42188,1.32812 -0.40625,0.60938 -1.1875,0.95313 -0.76562,0.34375 -1.73437,0.34375 -1.625,0 -2.46875,-0.67188 -0.84375,-0.67187 -1.07813,-2 z m 13.96875,1.45313 q -0.78125,0.67187 -1.5,0.95312 -0.71875,0.26563 -1.54687,0.26563 -1.375,0 -2.10938,-0.67188 -0.73437,-0.67187 -0.73437,-1.70312 0,-0.60938 0.28125,-1.10938 0.28125,-0.51562 0.71875,-0.8125 0.45312,-0.3125 1.01562,-0.46875 0.42188,-0.10937 1.25,-0.20312 1.70313,-0.20313 2.51563,-0.48438 0,-0.29687 0,-0.375 0,-0.85937 -0.39063,-1.20312 -0.54687,-0.48438 -1.60937,-0.48438 -0.98438,0 -1.46875,0.35938 -0.46875,0.34375 -0.6875,1.21875 l -1.375,-0.1875 q 0.1875,-0.875 0.60937,-1.42188 0.4375,-0.54687 1.25,-0.82812 0.8125,-0.29688 1.875,-0.29688 1.0625,0 1.71875,0.25 0.67188,0.25 0.98438,0.625 0.3125,0.375 0.4375,0.95313 0.0781,0.35937 0.0781,1.29687 v 1.875 q 0,1.96875 0.0781,2.48438 0.0937,0.51562 0.35937,1 h -1.46875 q -0.21875,-0.4375 -0.28125,-1.03125 z m -0.10937,-3.14063 q -0.76563,0.3125 -2.29688,0.53125 -0.875,0.125 -1.23437,0.28125 -0.35938,0.15625 -0.5625,0.46875 -0.1875,0.29688 -0.1875,0.65625 0,0.5625 0.42187,0.9375 0.4375,0.375 1.25,0.375 0.8125,0 1.4375,-0.34375 0.64063,-0.35937 0.9375,-0.98437 0.23438,-0.46875 0.23438,-1.40625 z m 3.33593,4.85938 1.375,0.20312 q 0.0781,0.64066 0.46875,0.92191 0.53125,0.39063 1.4375,0.39063 0.96875,0 1.5,-0.39063 0.53125,-0.39062 0.71875,-1.09378 0.10938,-0.42188 0.10938,-1.8125 -0.92188,1.09375 -2.29688,1.09375 -1.71875,0 -2.65625,-1.23438 -0.9375,-1.23437 -0.9375,-2.96875 0,-1.1875 0.42188,-2.1875 0.4375,-1 1.25,-1.54687 0.82812,-0.54688 1.92187,-0.54688 1.46875,0 2.42188,1.1875 v -1 h 1.29687 v 7.17188 q 0,1.9375 -0.39062,2.75003 -0.39063,0.8125 -1.25,1.28125 -0.85938,0.46875 -2.10938,0.46875 -1.48437,0 -2.40625,-0.67187 -0.90625,-0.67188 -0.875,-2.01566 z m 1.17188,-4.98438 q 0,1.625 0.64062,2.375 0.65625,0.75 1.625,0.75 0.96875,0 1.625,-0.73437 0.65625,-0.75 0.65625,-2.34375 0,-1.53125 -0.67187,-2.29688 -0.67188,-0.78125 -1.625,-0.78125 -0.9375,0 -1.59375,0.76563 -0.65625,0.76562 -0.65625,2.26562 z m 13.66406,1.625 1.45313,0.17188 q -0.34375,1.28125 -1.28125,1.98437 -0.92188,0.70313 -2.35938,0.70313 -1.82812,0 -2.89062,-1.125 -1.0625,-1.125 -1.0625,-3.14063 0,-2.09375 1.07812,-3.25 1.07813,-1.15625 2.79688,-1.15625 1.65625,0 2.70312,1.14063 1.0625,1.125 1.0625,3.17187 0,0.125 0,0.375 h -6.1875 q 0.0781,1.375 0.76563,2.10938 0.70312,0.71875 1.73437,0.71875 0.78125,0 1.32813,-0.40625 0.54687,-0.40625 0.85937,-1.29688 z m -4.60937,-2.28125 h 4.625 q -0.0937,-1.04687 -0.53125,-1.5625 -0.67188,-0.8125 -1.73438,-0.8125 -0.96875,0 -1.64062,0.65625 -0.65625,0.64063 -0.71875,1.71875 z m 7.28906,1.51563 v -1.42188 h 4.3125 v 1.42188 z m 11.25,3.4375 v -1.04688 q -0.78125,1.23438 -2.3125,1.23438 -1,0 -1.82813,-0.54688 -0.82812,-0.54687 -1.29687,-1.53125 -0.45313,-0.98437 -0.45313,-2.25 0,-1.25 0.40625,-2.25 0.42188,-1.01562 1.25,-1.54687 0.82813,-0.54688 1.85938,-0.54688 0.75,0 1.32812,0.3125 0.59375,0.3125 0.95313,0.82813 v -4.10938 h 1.40625 v 11.45313 z m -4.4375,-4.14063 q 0,1.59375 0.67187,2.39063 0.67188,0.78125 1.57813,0.78125 0.92187,0 1.5625,-0.75 0.65625,-0.76563 0.65625,-2.3125 0,-1.70313 -0.65625,-2.5 -0.65625,-0.79688 -1.625,-0.79688 -0.9375,0 -1.5625,0.76563 -0.625,0.76562 -0.625,2.42187 z m 13.39844,4.14063 v -1.21875 q -0.96875,1.40625 -2.64063,1.40625 -0.73437,0 -1.375,-0.28125 -0.625,-0.28125 -0.9375,-0.70313 -0.3125,-0.4375 -0.4375,-1.04687 -0.0781,-0.42188 -0.0781,-1.3125 v -5.14063 h 1.40625 v 4.59375 q 0,1.10938 0.0781,1.48438 0.14063,0.5625 0.5625,0.875 0.4375,0.3125 1.0625,0.3125 0.64063,0 1.1875,-0.3125 0.5625,-0.32813 0.78125,-0.89063 0.23438,-0.5625 0.23438,-1.625 v -4.4375 h 1.40625 v 8.29688 z m 3.46093,0 v -8.29688 h 1.25 v 1.15625 q 0.39063,-0.60937 1.03125,-0.96875 0.65625,-0.375 1.48438,-0.375 0.92187,0 1.51562,0.39063 0.59375,0.375 0.82813,1.0625 0.98437,-1.45313 2.5625,-1.45313 1.23437,0 1.89062,0.6875 0.67188,0.67188 0.67188,2.09375 v 5.70313 h -1.39063 v -5.23438 q 0,-0.84375 -0.14062,-1.20312 -0.14063,-0.375 -0.5,-0.59375 -0.35938,-0.23438 -0.84375,-0.23438 -0.875,0 -1.45313,0.57813 -0.57812,0.57812 -0.57812,1.85937 v 4.82813 h -1.40625 v -5.39063 q 0,-0.9375 -0.34375,-1.40625 -0.34375,-0.46875 -1.125,-0.46875 -0.59375,0 -1.09375,0.3125 -0.5,0.3125 -0.73438,0.92188 -0.21875,0.59375 -0.21875,1.71875 v 4.3125 z m 13.32813,3.18753 v -11.48441 h 1.28125 v 1.07813 q 0.45312,-0.64063 1.01562,-0.95313 0.57813,-0.3125 1.39063,-0.3125 1.0625,0 1.875,0.54688 0.8125,0.54687 1.21875,1.54687 0.42187,0.98438 0.42187,2.17188 0,1.28125 -0.46875,2.29687 -0.45312,1.01563 -1.32812,1.5625 -0.85938,0.54688 -1.82813,0.54688 -0.70312,0 -1.26562,-0.29688 -0.54688,-0.29687 -0.90625,-0.75 v 4.04691 z m 1.26562,-7.29691 q 0,1.60938 0.64063,2.375 0.65625,0.76563 1.57812,0.76563 0.9375,0 1.60938,-0.79688 0.67187,-0.79687 0.67187,-2.45312 0,-1.59375 -0.65625,-2.375 -0.65625,-0.79688 -1.5625,-0.79688 -0.89062,0 -1.59375,0.84375 -0.6875,0.84375 -0.6875,2.4375 z m 13.30469,1.4375 1.45313,0.17188 q -0.34375,1.28125 -1.28125,1.98437 -0.92188,0.70313 -2.35938,0.70313 -1.82812,0 -2.89062,-1.125 -1.0625,-1.125 -1.0625,-3.14063 0,-2.09375 1.07812,-3.25 1.07813,-1.15625 2.79688,-1.15625 1.65625,0 2.70312,1.14063 1.0625,1.125 1.0625,3.17187 0,0.125 0,0.375 h -6.1875 q 0.0781,1.375 0.76563,2.10938 0.70312,0.71875 1.73437,0.71875 0.78125,0 1.32813,-0.40625 0.54687,-0.40625 0.85937,-1.29688 z m -4.60937,-2.28125 h 4.625 q -0.0937,-1.04687 -0.53125,-1.5625 -0.67188,-0.8125 -1.73438,-0.8125 -0.96875,0 -1.64062,0.65625 -0.65625,0.64063 -0.71875,1.71875 z m 7.82031,4.95313 v -8.29688 h 1.26562 v 1.25 q 0.48438,-0.875 0.89063,-1.15625 0.40625,-0.28125 0.90625,-0.28125 0.70312,0 1.4375,0.45313 l -0.48438,1.29687 q -0.51562,-0.29687 -1.03125,-0.29687 -0.45312,0 -0.82812,0.28125 -0.35938,0.26562 -0.51563,0.76562 -0.23437,0.75 -0.23437,1.64063 v 4.34375 z"
     fill-rule="nonzero"
     id="path75" />
  <path
     fill="#000000"
     fill-opacity="0"
     d="M 483.93303,374.57872 H 626.83067 V 273.57085"
     fill-rule="evenodd"
     id="path77" />
  <path
     stroke="#000000"
     stroke-width="1"
     stroke-linejoin="round"
     stroke-linecap="butt"
     d="M 483.93303,374.57872 H 626.83067 V 279.57085"
     fill-rule="evenodd"
     id="path79" />
  <path
     fill="#000000"
     stroke="#000000"
     stroke-width="1"
     stroke-linecap="butt"
     d="m 628.48243,279.57085 -1.65173,-4.53809 -1.65174,4.53809 z"
     fill-rule="evenodd"
     id="path81" />
  <path
     fill="#000000"
     fill-opacity="0"
     d="M 334.74671,195.65224 H 491.6601 v 39.77951 H 334.74671 Z"
     fill-rule="evenodd"
     id="path83" />
  <path
     fill="#000000"
     d="m 363.35965,220.01222 4.40625,-11.45312 h 1.64062 l 4.6875,11.45312 h -1.73437 l -1.32813,-3.46875 h -4.79687 l -1.25,3.46875 z m 3.3125,-4.70312 h 3.89062 l -1.20312,-3.17188 q -0.54688,-1.45312 -0.8125,-2.375 -0.21875,1.09375 -0.60938,2.1875 z m 8.45316,7.89062 v -11.48437 h 1.28125 v 1.07812 q 0.45312,-0.64062 1.01562,-0.95312 0.57813,-0.3125 1.39063,-0.3125 1.0625,0 1.875,0.54687 0.8125,0.54688 1.21875,1.54688 0.42187,0.98437 0.42187,2.17187 0,1.28125 -0.46875,2.29688 -0.45312,1.01562 -1.32812,1.5625 -0.85938,0.54687 -1.82813,0.54687 -0.70312,0 -1.26562,-0.29687 -0.54688,-0.29688 -0.90625,-0.75 v 4.04687 z m 1.26562,-7.29687 q 0,1.60937 0.64063,2.375 0.65625,0.76562 1.57812,0.76562 0.9375,0 1.60938,-0.79687 0.67187,-0.79688 0.67187,-2.45313 0,-1.59375 -0.65625,-2.375 -0.65625,-0.79687 -1.5625,-0.79687 -0.89062,0 -1.59375,0.84375 -0.6875,0.84375 -0.6875,2.4375 z m 13.03906,3.07812 q -0.78125,0.67188 -1.5,0.95313 -0.71875,0.26562 -1.54687,0.26562 -1.375,0 -2.10938,-0.67187 -0.73437,-0.67188 -0.73437,-1.70313 0,-0.60937 0.28125,-1.10937 0.28125,-0.51563 0.71875,-0.8125 0.45312,-0.3125 1.01562,-0.46875 0.42188,-0.10938 1.25,-0.20313 1.70313,-0.20312 2.51563,-0.48437 0,-0.29688 0,-0.375 0,-0.85938 -0.39063,-1.20313 -0.54687,-0.48437 -1.60937,-0.48437 -0.98438,0 -1.46875,0.35937 -0.46875,0.34375 -0.6875,1.21875 l -1.375,-0.1875 q 0.1875,-0.875 0.60937,-1.42187 0.4375,-0.54688 1.25,-0.82813 0.8125,-0.29687 1.875,-0.29687 1.0625,0 1.71875,0.25 0.67188,0.25 0.98438,0.625 0.3125,0.375 0.4375,0.95312 0.0781,0.35938 0.0781,1.29688 v 1.875 q 0,1.96875 0.0781,2.48437 0.0937,0.51563 0.35937,1 h -1.46875 q -0.21875,-0.4375 -0.28125,-1.03125 z m -0.10937,-3.14062 q -0.76563,0.3125 -2.29688,0.53125 -0.875,0.125 -1.23437,0.28125 -0.35938,0.15625 -0.5625,0.46875 -0.1875,0.29687 -0.1875,0.65625 0,0.5625 0.42187,0.9375 0.4375,0.375 1.25,0.375 0.8125,0 1.4375,-0.34375 0.64063,-0.35938 0.9375,-0.98438 0.23438,-0.46875 0.23438,-1.40625 z m 9.00781,1.125 1.39063,0.1875 q -0.23438,1.42187 -1.17188,2.23437 -0.92187,0.8125 -2.28125,0.8125 -1.70312,0 -2.75,-1.10937 -1.03125,-1.125 -1.03125,-3.20313 0,-1.34375 0.4375,-2.34375 0.45313,-1.01562 1.35938,-1.51562 0.92187,-0.5 1.98437,-0.5 1.35938,0 2.21875,0.6875 0.85938,0.67187 1.09375,1.9375 l -1.35937,0.20312 q -0.20313,-0.82812 -0.70313,-1.25 -0.48437,-0.42187 -1.1875,-0.42187 -1.0625,0 -1.73437,0.76562 -0.65625,0.75 -0.65625,2.40625 0,1.67188 0.64062,2.4375 0.64063,0.75 1.67188,0.75 0.82812,0 1.375,-0.5 0.5625,-0.51562 0.70312,-1.57812 z m 2.59375,3.04687 V 208.5591 h 1.40625 v 4.10937 q 0.98438,-1.14062 2.48438,-1.14062 0.92187,0 1.59375,0.35937 0.6875,0.35938 0.96875,1 0.29687,0.64063 0.29687,1.85938 v 5.26562 h -1.40625 v -5.26562 q 0,-1.04688 -0.45312,-1.53125 -0.45313,-0.48438 -1.29688,-0.48438 -0.625,0 -1.17187,0.32813 -0.54688,0.32812 -0.78125,0.89062 -0.23438,0.54688 -0.23438,1.51563 v 4.54687 z m 14.57031,-2.67187 1.45313,0.17187 q -0.34375,1.28125 -1.28125,1.98438 -0.92188,0.70312 -2.35938,0.70312 -1.82812,0 -2.89062,-1.125 -1.0625,-1.125 -1.0625,-3.14062 0,-2.09375 1.07812,-3.25 1.07813,-1.15625 2.79688,-1.15625 1.65625,0 2.70312,1.14062 1.0625,1.125 1.0625,3.17188 0,0.125 0,0.375 h -6.1875 q 0.0781,1.375 0.76563,2.10937 0.70312,0.71875 1.73437,0.71875 0.78125,0 1.32813,-0.40625 0.54687,-0.40625 0.85937,-1.29687 z m -4.60937,-2.28125 h 4.625 q -0.0937,-1.04688 -0.53125,-1.5625 -0.67188,-0.8125 -1.73438,-0.8125 -0.96875,0 -1.64062,0.65625 -0.65625,0.64062 -0.71875,1.71875 z m 12.39062,4.95312 V 208.5591 h 1.51563 v 5.67187 l 5.6875,-5.67187 h 2.0625 l -4.8125,4.64062 5.01562,6.8125 h -2 l -4.07812,-5.79687 -1.875,1.82812 v 3.96875 z m 15.96875,-1.03125 q -0.78125,0.67188 -1.5,0.95313 -0.71875,0.26562 -1.54687,0.26562 -1.375,0 -2.10938,-0.67187 -0.73437,-0.67188 -0.73437,-1.70313 0,-0.60937 0.28125,-1.10937 0.28125,-0.51563 0.71875,-0.8125 0.45312,-0.3125 1.01562,-0.46875 0.42188,-0.10938 1.25,-0.20313 1.70313,-0.20312 2.51563,-0.48437 0,-0.29688 0,-0.375 0,-0.85938 -0.39063,-1.20313 -0.54687,-0.48437 -1.60937,-0.48437 -0.98438,0 -1.46875,0.35937 -0.46875,0.34375 -0.6875,1.21875 l -1.375,-0.1875 q 0.1875,-0.875 0.60937,-1.42187 0.4375,-0.54688 1.25,-0.82813 0.8125,-0.29687 1.875,-0.29687 1.0625,0 1.71875,0.25 0.67188,0.25 0.98438,0.625 0.3125,0.375 0.4375,0.95312 0.0781,0.35938 0.0781,1.29688 v 1.875 q 0,1.96875 0.0781,2.48437 0.0937,0.51563 0.35937,1 h -1.46875 q -0.21875,-0.4375 -0.28125,-1.03125 z m -0.10937,-3.14062 q -0.76563,0.3125 -2.29688,0.53125 -0.875,0.125 -1.23437,0.28125 -0.35938,0.15625 -0.5625,0.46875 -0.1875,0.29687 -0.1875,0.65625 0,0.5625 0.42187,0.9375 0.4375,0.375 1.25,0.375 0.8125,0 1.4375,-0.34375 0.64063,-0.35938 0.9375,-0.98438 0.23438,-0.46875 0.23438,-1.40625 z m 3.92969,4.17187 v -7.20312 h -1.23438 v -1.09375 h 1.23438 v -0.89063 q 0,-0.82812 0.15625,-1.23437 0.20312,-0.54688 0.70312,-0.89063 0.51563,-0.34375 1.4375,-0.34375 0.59375,0 1.3125,0.14063 l -0.20312,1.23437 q -0.4375,-0.0781 -0.82813,-0.0781 -0.64062,0 -0.90625,0.28125 -0.26562,0.26562 -0.26562,1.01562 v 0.76563 h 1.60937 v 1.09375 h -1.60937 v 7.20312 z m 4.11718,0 V 208.5591 h 1.40625 v 6.53125 l 3.32813,-3.375 h 1.82812 l -3.17187,3.07812 3.48437,5.21875 h -1.73437 l -2.73438,-4.25 -1,0.95313 v 3.29687 z m 13.40625,-1.03125 q -0.78125,0.67188 -1.5,0.95313 -0.71875,0.26562 -1.54687,0.26562 -1.375,0 -2.10938,-0.67187 -0.73437,-0.67188 -0.73437,-1.70313 0,-0.60937 0.28125,-1.10937 0.28125,-0.51563 0.71875,-0.8125 0.45312,-0.3125 1.01562,-0.46875 0.42188,-0.10938 1.25,-0.20313 1.70313,-0.20312 2.51563,-0.48437 0,-0.29688 0,-0.375 0,-0.85938 -0.39063,-1.20313 -0.54687,-0.48437 -1.60937,-0.48437 -0.98438,0 -1.46875,0.35937 -0.46875,0.34375 -0.6875,1.21875 l -1.375,-0.1875 q 0.1875,-0.875 0.60937,-1.42187 0.4375,-0.54688 1.25,-0.82813 0.8125,-0.29687 1.875,-0.29687 1.0625,0 1.71875,0.25 0.67188,0.25 0.98438,0.625 0.3125,0.375 0.4375,0.95312 0.0781,0.35938 0.0781,1.29688 v 1.875 q 0,1.96875 0.0781,2.48437 0.0937,0.51563 0.35937,1 h -1.46875 q -0.21875,-0.4375 -0.28125,-1.03125 z m -0.10937,-3.14062 q -0.76563,0.3125 -2.29688,0.53125 -0.875,0.125 -1.23437,0.28125 -0.35938,0.15625 -0.5625,0.46875 -0.1875,0.29687 -0.1875,0.65625 0,0.5625 0.42187,0.9375 0.4375,0.375 1.25,0.375 0.8125,0 1.4375,-0.34375 0.64063,-0.35938 0.9375,-0.98438 0.23438,-0.46875 0.23438,-1.40625 z"
     fill-rule="nonzero"
     id="path85" />
  <path
     fill="#000000"
     fill-opacity="0"
     d="m 405.47638,67.22441 v 52.51968 h 0.25195 v 52.51969"
     fill-rule="evenodd"
     id="path87" />
  <path
     stroke="#000000"
     stroke-width="1"
     stroke-linejoin="round"
     stroke-linecap="butt"
     d="m 405.47638,67.22441 v 52.51968 h 0.25195 v 46.51969"
     fill-rule="evenodd"
     id="path89" />
  <path
     fill="#000000"
     stroke="#000000"
     stroke-width="1"
     stroke-linecap="butt"
     d="m 404.07663,166.26379 1.65173,4.53809 1.65174,-4.53809 z"
     fill-rule="evenodd"
     id="path91" />
  <path
     fill="#000000"
     fill-opacity="0"
     d="m 405.47638,234.82939 v 52.27615 h 0.063 v 52.29077"
     fill-rule="evenodd"
     id="path93" />
  <path
     stroke="#000000"
     stroke-width="1"
     stroke-linejoin="round"
     stroke-linecap="butt"
     d="m 405.47638,240.82939 v 46.27615 h 0.063 v 52.29077"
     fill-rule="evenodd"
     id="path95" />
  <path
     fill="#000000"
     stroke="#000000"
     stroke-width="1"
     stroke-linecap="butt"
     d="m 407.12813,240.82939 -1.65173,-4.53809 -1.65174,4.53809 z"
     fill-rule="evenodd"
     id="path97" />
  <path
     fill="#b6d7a8"
     d="m 317.21653,234.82939 v 0 c 4.35306,0 7.8819,-14.11536 7.8819,-31.52756 0,-17.4122 -3.52884,-31.52755 -7.8819,-31.52755 h 176.51968 c 4.35303,0 7.8819,14.11535 7.8819,31.52755 0,17.4122 -3.52887,31.52756 -7.8819,31.52756 z"
     fill-rule="evenodd"
     id="path99" />
  <path
     fill="#d3e7ca"
     d="m 317.21653,234.82939 v 0 c -4.35303,0 -7.8819,-14.11536 -7.8819,-31.52756 0,-17.4122 3.52887,-31.52755 7.8819,-31.52755 v 0 c 4.35306,0 7.8819,14.11535 7.8819,31.52755 0,17.4122 -3.52884,31.52756 -7.8819,31.52756 z"
     fill-rule="evenodd"
     id="path101" />
  <path
     fill="#000000"
     fill-opacity="0"
     d="m 317.21653,171.77429 v 0 c 4.35306,0 7.8819,14.11536 7.8819,31.52756 0,17.4122 -3.52884,31.52755 -7.8819,31.52755 v 0 c -4.35303,0 -7.8819,-14.11535 -7.8819,-31.52755 0,-17.4122 3.52887,-31.52756 7.8819,-31.52756 h 176.51968 c 4.35303,0 7.8819,14.11536 7.8819,31.52756 0,17.4122 -3.52887,31.52755 -7.8819,31.52755 H 317.21653"
     fill-rule="evenodd"
     id="path103" />
  <path
     stroke="#000000"
     stroke-width="1"
     stroke-linejoin="round"
     stroke-linecap="butt"
     d="m 317.21653,171.77429 v 0 c 4.35306,0 7.8819,14.11536 7.8819,31.52756 0,17.4122 -3.52884,31.52755 -7.8819,31.52755 v 0 c -4.35303,0 -7.8819,-14.11535 -7.8819,-31.52755 0,-17.4122 3.52887,-31.52756 7.8819,-31.52756 h 176.51968 c 4.35303,0 7.8819,14.11536 7.8819,31.52756 0,17.4122 -3.52887,31.52755 -7.8819,31.52755 H 317.21653"
     fill-rule="evenodd"
     id="path105" />
  <path
     fill="#000000"
     fill-opacity="0"
     d="M 338.72046,184.61679 H 472.2323 V 224.3963 H 338.72046 Z"
     fill-rule="evenodd"
     id="path107" />
  <path
     fill="#000000"
     d="m 355.63263,208.97679 4.40625,-11.45313 h 1.64063 l 4.6875,11.45313 h -1.73438 l -1.32812,-3.46875 h -4.79688 l -1.25,3.46875 z m 3.3125,-4.70313 h 3.89063 l -1.20313,-3.17187 q -0.54687,-1.45313 -0.8125,-2.375 -0.21875,1.09375 -0.60937,2.1875 z m 8.45313,7.89063 v -11.48438 h 1.28125 v 1.07813 q 0.45312,-0.64063 1.01562,-0.95313 0.57813,-0.3125 1.39063,-0.3125 1.0625,0 1.875,0.54688 0.8125,0.54687 1.21875,1.54687 0.42187,0.98438 0.42187,2.17188 0,1.28125 -0.46875,2.29687 -0.45312,1.01563 -1.32812,1.5625 -0.85938,0.54688 -1.82813,0.54688 -0.70312,0 -1.26562,-0.29688 -0.54688,-0.29687 -0.90625,-0.75 v 4.04688 z m 1.26562,-7.29688 q 0,1.60938 0.64063,2.375 0.65625,0.76563 1.57812,0.76563 0.9375,0 1.60938,-0.79688 0.67187,-0.79687 0.67187,-2.45312 0,-1.59375 -0.65625,-2.375 -0.65625,-0.79688 -1.5625,-0.79688 -0.89062,0 -1.59375,0.84375 -0.6875,0.84375 -0.6875,2.4375 z m 13.03906,3.07813 q -0.78125,0.67187 -1.5,0.95312 -0.71875,0.26563 -1.54687,0.26563 -1.375,0 -2.10938,-0.67188 -0.73437,-0.67187 -0.73437,-1.70312 0,-0.60938 0.28125,-1.10938 0.28125,-0.51562 0.71875,-0.8125 0.45312,-0.3125 1.01562,-0.46875 0.42188,-0.10937 1.25,-0.20312 1.70313,-0.20313 2.51563,-0.48438 0,-0.29687 0,-0.375 0,-0.85937 -0.39063,-1.20312 -0.54687,-0.48438 -1.60937,-0.48438 -0.98438,0 -1.46875,0.35938 -0.46875,0.34375 -0.6875,1.21875 l -1.375,-0.1875 q 0.1875,-0.875 0.60937,-1.42188 0.4375,-0.54687 1.25,-0.82812 0.8125,-0.29688 1.875,-0.29688 1.0625,0 1.71875,0.25 0.67188,0.25 0.98438,0.625 0.3125,0.375 0.4375,0.95313 0.0781,0.35937 0.0781,1.29687 v 1.875 q 0,1.96875 0.0781,2.48438 0.0937,0.51562 0.35937,1 h -1.46875 q -0.21875,-0.4375 -0.28125,-1.03125 z m -0.10937,-3.14063 q -0.76563,0.3125 -2.29688,0.53125 -0.875,0.125 -1.23437,0.28125 -0.35938,0.15625 -0.5625,0.46875 -0.1875,0.29688 -0.1875,0.65625 0,0.5625 0.42187,0.9375 0.4375,0.375 1.25,0.375 0.8125,0 1.4375,-0.34375 0.64063,-0.35937 0.9375,-0.98437 0.23438,-0.46875 0.23438,-1.40625 z m 9.00781,1.125 1.39062,0.1875 q -0.23437,1.42188 -1.17187,2.23438 -0.92188,0.8125 -2.28125,0.8125 -1.70313,0 -2.75,-1.10938 -1.03125,-1.125 -1.03125,-3.20312 0,-1.34375 0.4375,-2.34375 0.45312,-1.01563 1.35937,-1.51563 0.92188,-0.5 1.98438,-0.5 1.35937,0 2.21875,0.6875 0.85937,0.67188 1.09375,1.9375 l -1.35938,0.20313 q -0.20312,-0.82813 -0.70312,-1.25 -0.48438,-0.42188 -1.1875,-0.42188 -1.0625,0 -1.73438,0.76563 -0.65625,0.75 -0.65625,2.40625 0,1.67187 0.64063,2.4375 0.64062,0.75 1.67187,0.75 0.82813,0 1.375,-0.5 0.5625,-0.51563 0.70313,-1.57813 z m 2.59375,3.04688 v -11.45313 h 1.40625 v 4.10938 q 0.98437,-1.14063 2.48437,-1.14063 0.92188,0 1.59375,0.35938 0.6875,0.35937 0.96875,1 0.29688,0.64062 0.29688,1.85937 v 5.26563 h -1.40625 v -5.26563 q 0,-1.04687 -0.45313,-1.53125 -0.45312,-0.48437 -1.29687,-0.48437 -0.625,0 -1.17188,0.32812 -0.54687,0.32813 -0.78125,0.89063 -0.23437,0.54687 -0.23437,1.51562 v 4.54688 z m 14.57031,-2.67188 1.45313,0.17188 q -0.34375,1.28125 -1.28125,1.98437 -0.92188,0.70313 -2.35938,0.70313 -1.82812,0 -2.89062,-1.125 -1.0625,-1.125 -1.0625,-3.14063 0,-2.09375 1.07812,-3.25 1.07813,-1.15625 2.79688,-1.15625 1.65625,0 2.70312,1.14063 1.0625,1.125 1.0625,3.17187 0,0.125 0,0.375 h -6.1875 q 0.0781,1.375 0.76563,2.10938 0.70312,0.71875 1.73437,0.71875 0.78125,0 1.32813,-0.40625 0.54687,-0.40625 0.85937,-1.29688 z m -4.60937,-2.28125 h 4.625 q -0.0937,-1.04687 -0.53125,-1.5625 -0.67188,-0.8125 -1.73438,-0.8125 -0.96875,0 -1.64062,0.65625 -0.65625,0.64063 -0.71875,1.71875 z m 12.39062,4.95313 v -11.45313 h 1.51563 v 5.67188 l 5.6875,-5.67188 h 2.0625 l -4.8125,4.64063 5.01562,6.8125 h -2 l -4.07812,-5.79688 -1.875,1.82813 v 3.96875 z m 15.96875,-1.03125 q -0.78125,0.67187 -1.5,0.95312 -0.71875,0.26563 -1.54687,0.26563 -1.375,0 -2.10938,-0.67188 -0.73437,-0.67187 -0.73437,-1.70312 0,-0.60938 0.28125,-1.10938 0.28125,-0.51562 0.71875,-0.8125 0.45312,-0.3125 1.01562,-0.46875 0.42188,-0.10937 1.25,-0.20312 1.70313,-0.20313 2.51563,-0.48438 0,-0.29687 0,-0.375 0,-0.85937 -0.39063,-1.20312 -0.54687,-0.48438 -1.60937,-0.48438 -0.98438,0 -1.46875,0.35938 -0.46875,0.34375 -0.6875,1.21875 l -1.375,-0.1875 q 0.1875,-0.875 0.60937,-1.42188 0.4375,-0.54687 1.25,-0.82812 0.8125,-0.29688 1.875,-0.29688 1.0625,0 1.71875,0.25 0.67188,0.25 0.98438,0.625 0.3125,0.375 0.4375,0.95313 0.0781,0.35937 0.0781,1.29687 v 1.875 q 0,1.96875 0.0781,2.48438 0.0937,0.51562 0.35937,1 h -1.46875 q -0.21875,-0.4375 -0.28125,-1.03125 z m -0.10937,-3.14063 q -0.76563,0.3125 -2.29688,0.53125 -0.875,0.125 -1.23437,0.28125 -0.35938,0.15625 -0.5625,0.46875 -0.1875,0.29688 -0.1875,0.65625 0,0.5625 0.42187,0.9375 0.4375,0.375 1.25,0.375 0.8125,0 1.4375,-0.34375 0.64063,-0.35937 0.9375,-0.98437 0.23438,-0.46875 0.23438,-1.40625 z m 3.92968,4.17188 v -7.20313 h -1.23437 v -1.09375 h 1.23437 v -0.89062 q 0,-0.82813 0.15625,-1.23438 0.20313,-0.54687 0.70313,-0.89062 0.51562,-0.34375 1.4375,-0.34375 0.59375,0 1.3125,0.14062 l -0.20313,1.23438 q -0.4375,-0.0781 -0.82812,-0.0781 -0.64063,0 -0.90625,0.28125 -0.26563,0.26563 -0.26563,1.01563 v 0.76562 h 1.60938 v 1.09375 H 436.742 v 7.20313 z m 4.11719,0 v -11.45313 h 1.40625 v 6.53125 l 3.32813,-3.375 h 1.82812 l -3.17187,3.07813 3.48437,5.21875 h -1.73437 l -2.73438,-4.25 -1,0.95312 v 3.29688 z m 13.40625,-1.03125 q -0.78125,0.67187 -1.5,0.95312 -0.71875,0.26563 -1.54687,0.26563 -1.375,0 -2.10938,-0.67188 -0.73437,-0.67187 -0.73437,-1.70312 0,-0.60938 0.28125,-1.10938 0.28125,-0.51562 0.71875,-0.8125 0.45312,-0.3125 1.01562,-0.46875 0.42188,-0.10937 1.25,-0.20312 1.70313,-0.20313 2.51563,-0.48438 0,-0.29687 0,-0.375 0,-0.85937 -0.39063,-1.20312 -0.54687,-0.48438 -1.60937,-0.48438 -0.98438,0 -1.46875,0.35938 -0.46875,0.34375 -0.6875,1.21875 l -1.375,-0.1875 q 0.1875,-0.875 0.60937,-1.42188 0.4375,-0.54687 1.25,-0.82812 0.8125,-0.29688 1.875,-0.29688 1.0625,0 1.71875,0.25 0.67188,0.25 0.98438,0.625 0.3125,0.375 0.4375,0.95313 0.0781,0.35937 0.0781,1.29687 v 1.875 q 0,1.96875 0.0781,2.48438 0.0937,0.51562 0.35937,1 h -1.46875 q -0.21875,-0.4375 -0.28125,-1.03125 z m -0.10937,-3.14063 q -0.76563,0.3125 -2.29688,0.53125 -0.875,0.125 -1.23437,0.28125 -0.35938,0.15625 -0.5625,0.46875 -0.1875,0.29688 -0.1875,0.65625 0,0.5625 0.42187,0.9375 0.4375,0.375 1.25,0.375 0.8125,0 1.4375,-0.34375 0.64063,-0.35937 0.9375,-0.98437 0.23438,-0.46875 0.23438,-1.40625 z"
     fill-rule="nonzero"
     id="path109" />
</svg>
