<?xml version="1.0" encoding="utf-8"?>
<!-- Generator: Adobe Illustrator 19.1.0, SVG Export Plug-In . SVG Version: 6.00 Build 0)  -->
<svg version="1.1" id="Layer_1" xmlns="http://www.w3.org/2000/svg" xmlns:xlink="http://www.w3.org/1999/xlink" x="0px" y="0px"
	 viewBox="0 0 64 64" style="enable-background:new 0 0 64 64;" xml:space="preserve">
<g>
	<g>
		<path d="M0,32c0,17.6,14.4,32,32,32c17.6,0,32-14.4,32-32C64,14.4,49.6,0,32,0C14.4,0,0,14.4,0,32z M2.4,32
			C2.4,15.7,15.7,2.4,32,2.4S61.6,15.7,61.6,32c0,16.3-13.3,29.6-29.6,29.6S2.4,48.3,2.4,32z M16.6,32C16.6,32,16.6,32,16.6,32
			C16.6,32,16.6,32,16.6,32c0,0.2,0,0.3,0.1,0.5c0.1,0.1,0.1,0.3,0.3,0.4l9.5,9.5c0.2,0.2,0.5,0.3,0.8,0.3s0.6-0.1,0.8-0.3
			c0.5-0.5,0.5-1.2,0-1.7l-7.5-7.5h25.6c0.7,0,1.2-0.5,1.2-1.2c0-0.7-0.5-1.2-1.2-1.2H20.6l7.5-7.5c0.5-0.5,0.5-1.2,0-1.7
			c-0.5-0.5-1.2-0.5-1.7,0l-9.5,9.5c-0.1,0.1-0.2,0.2-0.3,0.4C16.6,31.7,16.6,31.8,16.6,32z"/>
	</g>
</g>
</svg>
