<svg viewBox="0 0 205 45" xmlns="http://www.w3.org/2000/svg"><style>@media (prefers-color-scheme: dark) { .themed { fill: white; }}}</style><path d="m125.8 14c-4-5.1-11.3-6-16.4-2.1-.8.6-1.5 1.3-2.1 2.1-1.5 2.1-2.2 4.6-2.2 7.1 0 2.6.7 5.1 2.2 7.1 4 5.1 11.3 6 16.4 2.1.8-.6 1.5-1.3 2.1-2.1 1.5-2.1 2.2-4.6 2.2-7.1s-.7-5-2.2-7.1zm-3.7 9.8c-.7 2.6-2.9 4.4-5.6 4.5-2.8.1-4.8-2-5.6-4.5-.6-1.7-.6-3.6 0-5.4.7-2.6 2.9-4.4 5.6-4.5 2.8-.1 4.8 2 5.6 4.5.6 1.8.6 3.7 0 5.4zm-84.1 8.4c0 .4-.3.7-.7.7h-3.8c-.4 0-.7-.3-.7-.7v-31.5c0-.4.3-.7.7-.7h3.8c.4 0 .7.3.7.7zm-9 0c0 .4-.3.7-.7.7h-3.8c-.4 0-.7-.3-.7-.7v-31.5c0-.4.3-.7.7-.7h3.8c.4 0 .7.3.7.7zm75.3-21.4v2.7c0 .4-.2.7-.6.8h-.3c-4.3-.9-7 1-7 5v12.9c0 .4-.3.7-.7.7h-3.8c-.4 0-.7-.3-.7-.7v-13.2c0-2.5 1-5 2.8-6.7 1.9-1.8 4.4-2.9 7-2.8.9 0 1.8.1 2.7.2.5.2.6.4.6 1.1zm-16.5 10.3c0-2.6-.7-5.1-2.2-7.1-4-5.1-11.3-6-16.4-2.1-.8.6-1.5 1.3-2.1 2.1-3 4.3-3 10 0 14.3 2.2 2.9 5.6 4.6 9.2 4.5 2.3 0 4.6-.7 6.6-2v2.8c0 3.8-3.3 4.5-5.5 4.7-1.5 0-2.9 0-4.4-.2-.6-.1-1 0-1 .6v3.4c0 .3.3.6.6.6 5 .4 8.3.3 10.8-1.1 1.8-1 3.1-2.7 3.7-4.7.4-1.5.7-3.1.6-4.7zm-11.4 7.2c-2.8 0-4.8-2-5.6-4.5-.6-1.7-.6-3.6 0-5.4.8-2.5 2.8-4.5 5.6-4.5 6.2 0 6.4 6.3 6.4 7.2s-.2 7.2-6.4 7.2zm-56.1-9.5c0-3-.7-5.4-2.1-7s-4.4-2.3-7.2-2.3c-2.7 0-5.4.7-7.8 2.1-.1.1-.2.2-.2.4l.2 3.4c.1.3.4.5.7.5.1 0 .2-.1.3-.1 3.3-2.1 7.4-2.4 9.4-1.4 1.1.7 1.8 1.9 1.8 3.2v.4h-5.6c-2.4 0-9.8.9-9.8 7.7v.1c-.1 2.1.8 4.1 2.4 5.4 1.7 1.2 3.8 1.8 6 1.7h11.3c.4 0 .7-.3.7-.7zm-5 9.9h-6.6c-.9 0-1.7-.3-2.4-.8s-1.1-1.3-1.1-2.2c0-1.2.8-3.6 4.9-3.6h5.3v6.6zm36.8-19.2c-6.8 0-9.8 4.6-10.8 8.5-.3 1-.4 2.1-.4 3.2 0 2.6.7 5.1 2.2 7.1 2.2 2.9 5.6 4.5 9.2 4.5 3.7.1 6.2-.5 8-1.6.4-.2.6-.7.4-1.1v-3c0-.6-.4-.9-.9-.5-2.2 1.4-4.8 2-7.4 1.8-3.1 0-5.6-2.4-6-5.4h15.2c.3 0 .6-.3.6-.6.5-4.2-.7-12.9-10.1-12.9zm-5.4 9.4c.1-2.8 2.5-5.1 5.4-4.9h.1c2.5-.2 4.7 1.8 4.9 4.3v.6z" fill="#ff5a00" transform="translate(0 2)"/><path d="m145.5 35h-1.7v-22h-7.7v-1.5h17v1.5h-7.7v22zm17.8.3c-2.5 0-4.5-.8-6-2.4s-2.1-3.8-2.1-6.6.7-5 2.1-6.7 3.2-2.5 5.6-2.5c2.1 0 3.7.7 4.9 2.2s1.8 3.4 1.8 5.9v1.3h-12.6c0 2.4.6 4.2 1.7 5.5s2.7 1.9 4.7 1.9c1 0 1.9-.1 2.6-.2.8-.1 1.7-.4 2.9-.9v1.5c-1 .4-1.9.7-2.7.9-1 0-1.9.1-2.9.1zm-.5-16.7c-1.7 0-3 .6-4.1 1.7-1 1.1-1.6 2.7-1.8 4.8h10.8c0-2-.4-3.6-1.3-4.8-.8-1.2-2-1.7-3.6-1.7zm18.5 16.7c-2.5 0-4.5-.8-5.9-2.4s-2.1-3.8-2.1-6.6c0-2.9.7-5.2 2.2-6.8s3.5-2.4 6-2.4c1.5 0 3 .3 4.4.8l-.4 1.4c-1.5-.5-2.8-.8-3.9-.8-2.1 0-3.8.7-4.9 2s-1.7 3.2-1.7 5.7c0 2.4.6 4.2 1.7 5.6 1.1 1.3 2.7 2 4.6 2 1.6 0 3.1-.3 4.4-.9v1.5c-1.1.6-2.6.9-4.4.9zm20.9-.3v-11.4c0-1.8-.4-3-1.1-3.8s-1.9-1.2-3.4-1.2c-2.1 0-3.6.5-4.6 1.6s-1.5 2.8-1.5 5.1v9.7h-1.6v-25.1h1.6v8l-.1 2.2h.1c.7-1.1 1.5-1.8 2.5-2.3s2.2-.7 3.7-.7c4 0 6 2.1 6 6.4v11.5z" class="themed" fill="#222"/></svg>
