<?xml version="1.0" encoding="utf-8"?>
<!-- Generator: Adobe Illustrator 25.1.0, SVG Export Plug-In . SVG Version: 6.00 Build 0)  -->
<svg version="1.1" id="Layer_1" xmlns="http://www.w3.org/2000/svg" xmlns:xlink="http://www.w3.org/1999/xlink" x="0px" y="0px"
	 viewBox="0 0 316 48.1" style="enable-background:new 0 0 316 48.1;" xml:space="preserve">
<style type="text/css">
	.st0{fill:#FF5A00;}
	.st1{enable-background:new    ;}
</style>
<g>
	<path class="st0" d="M130.9,36.8c4.1,0,7.9-1.8,10.4-5.1c1.7-2.3,2.5-5.2,2.5-8s-0.8-5.7-2.5-8c-2.4-3.3-6.3-5.1-10.4-5.1
		c-4.1,0-7.9,1.8-10.4,5.1c-1.7,2.3-2.5,5.2-2.5,8s0.8,5.7,2.5,8C122.9,35.1,126.8,36.8,130.9,36.8 M124.6,20.7
		c0.9-2.8,3.2-5.1,6.3-5.1c3.1,0,5.3,2.3,6.3,5.1c0.3,0.9,0.5,2,0.5,3s-0.2,2.1-0.5,3c-0.9,2.8-3.2,5.1-6.3,5.1
		c-3.1,0-5.3-2.3-6.3-5.1c-0.3-0.9-0.5-2-0.5-3C124.1,22.7,124.3,21.6,124.6,20.7"/>
	<path class="st0" d="M37.6,36.9h4.3c0.4,0,0.7-0.3,0.7-0.7V0.7c0-0.4-0.3-0.7-0.7-0.7h-4.3c-0.4,0-0.7,0.3-0.7,0.7v35.4
		C36.9,36.6,37.2,36.9,37.6,36.9"/>
	<path class="st0" d="M27.5,36.9h4.3c0.4,0,0.7-0.3,0.7-0.7V0.7c0-0.4-0.3-0.7-0.7-0.7h-4.3c-0.4,0-0.7,0.3-0.7,0.7v35.4
		C26.7,36.6,27.1,36.9,27.5,36.9"/>
	<path class="st0" d="M103.1,36.9h4.3c0.4,0,0.7-0.3,0.7-0.7V21.7c0-4.5,3-6.7,7.9-5.7c0.6,0.1,1-0.2,1-0.9v-3
		c0-0.8-0.1-1.1-0.6-1.2l0,0c-0.8-0.2-2.5-0.3-3-0.3c-3.1,0-6,1.3-7.9,3.2c-1.4,1.4-3.2,3.6-3.2,7.5v14.8
		C102.4,36.6,102.7,36.9,103.1,36.9"/>
	<path class="st0" d="M85.8,36.8c2.7,0,5.2-0.8,7.4-2.2v3.2c0,4.3-3.8,5.1-6.2,5.2c-1.6,0.1-3.9-0.1-4.9-0.3c-0.7-0.1-1.1,0-1.1,0.7
		v3.8c0,0.3,0.2,0.6,0.7,0.6c5.6,0.5,9.3,0.4,12.2-1.2c2-1.1,3.4-3,4.1-5.2c0.5-1.6,0.7-3.5,0.7-5.2V23.7c0-2.9-0.8-5.7-2.5-8
		c-2.4-3.3-6.3-5.1-10.4-5.1s-7.9,1.8-10.4,5.1c-3.3,4.5-3.3,11.5,0,16C77.8,35.1,81.7,36.8,85.8,36.8 M79.5,20.7
		c0.9-2.8,3.2-5.1,6.3-5.1c6.9,0,7.2,7.1,7.2,8.1s-0.2,8.1-7.2,8.1c-3.1,0-5.3-2.3-6.3-5.1c-0.3-0.9-0.5-2-0.5-3
		S79.2,21.6,79.5,20.7"/>
	<path class="st0" d="M58.8,36.8c4.1,0.2,6.9-0.6,9-1.8c0.4-0.2,0.5-0.5,0.5-1.3v-3.3c0-0.7-0.4-1-1-0.6c-2.2,1.4-4.9,2.3-8.3,2
		c-3.4-0.3-6.3-2.7-6.6-6.1h17c0.4,0,0.7-0.3,0.7-0.7c0.3-4.7-1.1-14.5-11.5-14.5c-7.7,0-11,5.1-12.1,9.5c-0.3,1.2-0.4,2.4-0.4,3.6
		c0,2.8,0.8,5.7,2.5,8C50.9,35.1,54.8,36.7,58.8,36.8 M58.5,15.7c2.5,0,5.5,1.4,5.5,5.5H52.4C52.4,19.3,54,15.7,58.5,15.7"/>
	<path class="st0" d="M2.7,35c1.6,1.3,3.9,1.9,6.7,1.9h2h10.7c0.4,0,0.7-0.3,0.7-0.7v-7.3v-7.7c0-3.4-0.8-6.1-2.4-7.8
		c-1.7-1.8-5-2.7-8-2.7S6.2,11.5,3.6,13c-0.2,0.1-0.3,0.3-0.3,0.5l0,0l0.2,3.8c0,0.5,0.6,0.7,1.1,0.4c3.8-2.3,8.3-2.8,10.6-1.6
		c1.6,0.8,2,2.5,2,3.6v0.6H11c-2.7,0-11,1-11,8.6l0,0l0,0l0,0C0,31.5,0.9,33.6,2.7,35 M11.3,24.8h5.9v4v3.4h-5.8H9.7
		c-1-0.1-1.9-0.3-2.7-0.9c-0.9-0.7-1.2-1.4-1.3-2.5l0,0C5.8,27.5,6.8,24.8,11.3,24.8"/>
</g>
<g class="st1">
	<path d="M167.9,36.1h-1.8V12.5h-8.2v-1.7h18.2v1.7h-8.2V36.1z"/>
	<path d="M187,36.4c-2.7,0-4.9-0.8-6.4-2.5c-1.5-1.7-2.3-4-2.3-7.1c0-3,0.7-5.4,2.2-7.2c1.5-1.8,3.5-2.7,6-2.7c2.2,0,4,0.8,5.2,2.3
		c1.3,1.5,1.9,3.6,1.9,6.3v1.4h-13.5c0,2.6,0.6,4.6,1.8,5.9c1.2,1.4,2.9,2,5.1,2c1.1,0,2-0.1,2.8-0.2c0.8-0.2,1.8-0.5,3.1-1v1.6
		c-1.1,0.5-2,0.8-2.9,0.9S188.1,36.4,187,36.4z M186.5,18.5c-1.8,0-3.3,0.6-4.4,1.8c-1.1,1.2-1.7,2.9-1.9,5.2h11.6
		c0-2.2-0.5-3.9-1.4-5.1C189.5,19.1,188.2,18.5,186.5,18.5z"/>
	<path d="M206.3,36.4c-2.7,0-4.8-0.8-6.3-2.5c-1.5-1.7-2.3-4.1-2.3-7.1c0-3.1,0.8-5.5,2.4-7.3c1.6-1.7,3.7-2.6,6.5-2.6
		c1.6,0,3.2,0.3,4.7,0.8l-0.5,1.5c-1.6-0.5-3-0.8-4.2-0.8c-2.3,0-4.1,0.7-5.2,2.1c-1.2,1.4-1.8,3.5-1.8,6.1c0,2.5,0.6,4.5,1.8,6
		s2.8,2.2,5,2.2c1.7,0,3.3-0.3,4.8-0.9v1.6C209.9,36.1,208.3,36.4,206.3,36.4z"/>
	<path d="M228.8,36.1V23.9c0-1.9-0.4-3.3-1.2-4.1s-2-1.3-3.7-1.3c-2.2,0-3.9,0.6-4.9,1.7c-1,1.1-1.6,3-1.6,5.5v10.4h-1.7V9.2h1.7
		v8.6l-0.1,2.4h0.1c0.7-1.1,1.6-1.9,2.7-2.5c1.1-0.5,2.4-0.8,4-0.8c4.3,0,6.4,2.3,6.4,6.9v12.3H228.8z"/>
	<path d="M246.2,10.8h6.9c3.1,0,5.4,0.5,6.9,1.6c1.5,1.1,2.2,2.7,2.2,4.8c0,1.5-0.4,2.7-1.3,3.7c-0.9,1-2.2,1.6-3.9,1.9v0.1
		c2,0.3,3.5,0.9,4.5,1.9c1,1,1.4,2.3,1.4,4.1c0,2.3-0.8,4.1-2.3,5.4c-1.5,1.3-3.7,1.9-6.6,1.9h-7.7V10.8z M247.9,22.1h5.6
		c2.4,0,4.1-0.4,5.2-1.2c1.1-0.8,1.6-2,1.6-3.7c0-1.7-0.6-2.9-1.8-3.7c-1.2-0.8-3-1.1-5.4-1.1h-5.1V22.1z M247.9,23.6v10.9h5.9
		c4.7,0,7-1.9,7-5.7c0-3.5-2.5-5.2-7.4-5.2H247.9z"/>
	<path d="M269.6,36.1h-1.7V9.2h1.7V36.1z"/>
	<path d="M291.5,26.7c0,3.1-0.7,5.5-2.2,7.2c-1.5,1.7-3.5,2.6-6.2,2.6c-1.6,0-3.1-0.4-4.4-1.2c-1.3-0.8-2.2-1.9-2.9-3.4
		c-0.7-1.5-1-3.2-1-5.2c0-3.1,0.7-5.5,2.2-7.2c1.5-1.7,3.5-2.6,6.1-2.6c2.6,0,4.6,0.9,6.1,2.6C290.7,21.3,291.5,23.7,291.5,26.7z
		 M276.6,26.7c0,2.6,0.6,4.6,1.7,6c1.1,1.4,2.7,2.2,4.8,2.2c2.1,0,3.7-0.7,4.8-2.2c1.1-1.4,1.7-3.5,1.7-6c0-2.6-0.6-4.6-1.7-6
		s-2.8-2.1-4.8-2.1s-3.7,0.7-4.8,2.1C277.2,22.1,276.6,24.1,276.6,26.7z"/>
	<path d="M311.3,17.3v1.2l-3.9,0.2c1,1.3,1.6,2.7,1.6,4.3c0,1.8-0.6,3.3-1.8,4.4c-1.2,1.1-2.8,1.7-4.8,1.7c-0.9,0-1.5,0-1.8-0.1
		c-0.7,0.4-1.2,0.8-1.6,1.3c-0.4,0.5-0.5,1-0.5,1.5c0,0.6,0.2,1,0.7,1.3c0.5,0.3,1.2,0.4,2.3,0.4h3.3c2,0,3.6,0.4,4.7,1.2
		c1.1,0.8,1.6,2,1.6,3.7c0,2-0.8,3.5-2.4,4.6c-1.6,1.1-3.9,1.6-6.9,1.6c-2.4,0-4.2-0.5-5.5-1.4c-1.3-0.9-1.9-2.2-1.9-3.8
		c0-1.3,0.4-2.4,1.2-3.2s1.9-1.4,3.3-1.7c-0.6-0.2-1-0.6-1.4-1c-0.3-0.4-0.5-1-0.5-1.5c0-1.3,0.8-2.4,2.4-3.3
		c-1.1-0.4-1.9-1.2-2.6-2.1c-0.6-1-0.9-2.1-0.9-3.3c0-1.9,0.6-3.4,1.8-4.5c1.2-1.1,2.8-1.7,4.8-1.7c1.2,0,2.2,0.1,2.9,0.4H311.3z
		 M296.1,39.3c0,2.6,1.9,3.9,5.8,3.9c4.9,0,7.4-1.6,7.4-4.7c0-1.1-0.4-1.9-1.2-2.5c-0.8-0.5-2-0.8-3.8-0.8h-3.1
		C297.8,35.2,296.1,36.6,296.1,39.3z M297.6,23.2c0,1.5,0.4,2.6,1.3,3.4c0.9,0.8,2.1,1.2,3.5,1.2c1.6,0,2.8-0.4,3.6-1.2
		c0.8-0.8,1.3-1.9,1.3-3.5c0-1.6-0.4-2.8-1.3-3.6c-0.9-0.8-2.1-1.2-3.6-1.2c-1.5,0-2.7,0.4-3.5,1.3C298,20.4,297.6,21.6,297.6,23.2z
		"/>
</g>
</svg>
