<svg xmlns="http://www.w3.org/2000/svg" viewBox="0 0 231.17 48.13"><defs><style>.a{fill:#231f20;}.b{fill:#ff5a00;}</style></defs><title>allegro-tech</title><path class="a" d="M168.07,36.59h-1.8V12.77H158V11.1h18.36v1.67h-8.28V36.59Z" transform="translate(0 0)"/><path class="a" d="M187.35,36.93a8.26,8.26,0,0,1-6.44-2.54q-2.31-2.54-2.31-7.13A11.11,11.11,0,0,1,180.83,20a7.36,7.36,0,0,1,6-2.73,6.5,6.5,0,0,1,5.28,2.34A9.65,9.65,0,0,1,194.06,26v1.39H180.41a9,9,0,0,0,1.82,6,6.41,6.41,0,0,0,5.12,2.06,15.84,15.84,0,0,0,2.85-.23,17.25,17.25,0,0,0,3.11-1v1.57a13.86,13.86,0,0,1-3,1A16.41,16.41,0,0,1,187.35,36.93ZM186.84,18.8a5.68,5.68,0,0,0-4.39,1.8,8.51,8.51,0,0,0-1.93,5.2h11.71a8.26,8.26,0,0,0-1.43-5.15A4.72,4.72,0,0,0,186.84,18.8Z" transform="translate(0 0)"/><path class="a" d="M206.85,36.93a8.12,8.12,0,0,1-6.36-2.56,10.32,10.32,0,0,1-2.3-7.15q0-4.71,2.39-7.33a8.4,8.4,0,0,1,6.54-2.62,13.15,13.15,0,0,1,4.71.85l-0.47,1.53a13.8,13.8,0,0,0-4.27-.82A6.49,6.49,0,0,0,201.8,21a9.44,9.44,0,0,0-1.79,6.2,9.15,9.15,0,0,0,1.79,6,6.15,6.15,0,0,0,5,2.17,12.32,12.32,0,0,0,4.79-.92V36A10.86,10.86,0,0,1,206.85,36.93Z" transform="translate(0 0)"/><path class="a" d="M229.46,36.59V24.3a6,6,0,0,0-1.2-4.16,4.85,4.85,0,0,0-3.73-1.3q-3.4,0-5,1.72T218,26.13V36.59h-1.73V9.46H218v8.63l-0.09,2.42H218A6.35,6.35,0,0,1,220.69,18a9.39,9.39,0,0,1,4-.77q6.45,0,6.45,6.92V36.59h-1.71Z" transform="translate(0 0)"/><path class="b" d="M130.88,36.83a12.78,12.78,0,0,0,10.38-5.09,13.63,13.63,0,0,0,2.47-8,13.64,13.64,0,0,0-2.47-8,13.13,13.13,0,0,0-20.76,0,13.66,13.66,0,0,0-2.47,8,13.65,13.65,0,0,0,2.47,8,12.78,12.78,0,0,0,10.38,5.09m-6.27-16.1c0.94-2.81,3.17-5.06,6.27-5.08s5.33,2.26,6.27,5.08a9.35,9.35,0,0,1,0,6c-0.95,2.81-3.18,5.06-6.27,5.08s-5.33-2.26-6.27-5.08a9.33,9.33,0,0,1,0-6" transform="translate(0 0)"/><path class="b" d="M37.6,36.93h4.31a0.75,0.75,0,0,0,.75-0.75V0.75A0.75,0.75,0,0,0,41.91,0H37.6a0.74,0.74,0,0,0-.75.75V36.18a0.75,0.75,0,0,0,.75.75" transform="translate(0 0)"/><path class="b" d="M27.48,36.93h4.31a0.75,0.75,0,0,0,.74-0.75V0.75A0.75,0.75,0,0,0,31.79,0H27.48a0.74,0.74,0,0,0-.74.75V36.18a0.75,0.75,0,0,0,.74.75" transform="translate(0 0)"/><path class="b" d="M103.12,36.93h4.31a0.75,0.75,0,0,0,.75-0.75V21.72c0-4.51,3-6.67,7.87-5.67a0.78,0.78,0,0,0,1-.86v-3c0-.77-0.07-1.08-0.64-1.24h0a16.71,16.71,0,0,0-3-.29,11.21,11.21,0,0,0-7.88,3.18,10,10,0,0,0-3.17,7.51V36.18a0.75,0.75,0,0,0,.74.75" transform="translate(0 0)"/><path class="b" d="M85.77,36.83a13.28,13.28,0,0,0,7.39-2.22v3.17c0,4.3-3.76,5.08-6.17,5.23A28.45,28.45,0,0,1,82,42.73c-0.66-.09-1.12,0-1.12.71v3.81a0.65,0.65,0,0,0,.68.62c5.58,0.48,9.35.38,12.18-1.23a9.19,9.19,0,0,0,4.12-5.24,17.35,17.35,0,0,0,.71-5.24V23.74a13.46,13.46,0,0,0-2.47-8,13.13,13.13,0,0,0-20.76,0,14.12,14.12,0,0,0,0,16,12.78,12.78,0,0,0,10.38,5.09M79.5,20.73c0.93-2.81,3.17-5.08,6.27-5.08,6.93,0,7.16,7.07,7.16,8.09s-0.23,8.09-7.16,8.09c-3.09,0-5.33-2.26-6.27-5.08a9.24,9.24,0,0,1,0-6" transform="translate(0 0)"/><path class="b" d="M58.84,36.83c4.14,0.16,6.9-.56,9-1.76a1.16,1.16,0,0,0,.5-1.27V30.47c0-.69-0.41-1-1-0.59a13.08,13.08,0,0,1-8.35,2,6.83,6.83,0,0,1-6.57-6.11h17a0.69,0.69,0,0,0,.69-0.69C70.35,20.44,69,10.65,58.53,10.65c-7.66,0-11,5.15-12.1,9.5A14.58,14.58,0,0,0,46,23.74a13.64,13.64,0,0,0,2.47,8,13.18,13.18,0,0,0,10.38,5.09M58.53,15.66A5.15,5.15,0,0,1,64,21.19H52.4a5.8,5.8,0,0,1,6.13-5.53" transform="translate(0 0)"/><path class="b" d="M2.67,35a10.55,10.55,0,0,0,6.69,1.92H22.05a0.75,0.75,0,0,0,.74-0.75v-15c0-3.42-.76-6.05-2.4-7.81s-5-2.69-8-2.69A17.42,17.42,0,0,0,3.59,13a0.55,0.55,0,0,0-.27.48v0l0.23,3.77a0.67,0.67,0,0,0,1.1.39c3.76-2.34,8.27-2.77,10.56-1.62a4,4,0,0,1,2,3.62V20.2H11c-2.69,0-11,1-11,8.59v0.13A7.34,7.34,0,0,0,2.67,35M11.3,24.8h5.95v7.46H9.74a4.64,4.64,0,0,1-2.66-.93,3,3,0,0,1-1.26-2.46v0c0-1.36.94-4,5.47-4" transform="translate(0 0)"/></svg>