<?xml version="1.0" encoding="UTF-8" standalone="no"?>
<!-- Created with Inkscape (http://www.inkscape.org/) -->

<svg
   xmlns:dc="http://purl.org/dc/elements/1.1/"
   xmlns:cc="http://creativecommons.org/ns#"
   xmlns:rdf="http://www.w3.org/1999/02/22-rdf-syntax-ns#"
   xmlns:svg="http://www.w3.org/2000/svg"
   xmlns="http://www.w3.org/2000/svg"
   xmlns:sodipodi="http://sodipodi.sourceforge.net/DTD/sodipodi-0.dtd"
   xmlns:inkscape="http://www.inkscape.org/namespaces/inkscape"
   width="320.03699"
   height="63.188114"
   id="svg2"
   version="1.1"
   inkscape:version="0.48.4 r9939"
   sodipodi:docname="New document 1">
  <defs
     id="defs4" />
  <sodipodi:namedview
     id="base"
     pagecolor="#ffffff"
     bordercolor="#666666"
     borderopacity="1.0"
     inkscape:pageopacity="0.0"
     inkscape:pageshadow="2"
     inkscape:zoom="0.35"
     inkscape:cx="149.3325"
     inkscape:cy="-5.5875271"
     inkscape:document-units="px"
     inkscape:current-layer="g3001"
     showgrid="false"
     fit-margin-top="0"
     fit-margin-left="0"
     fit-margin-right="0"
     fit-margin-bottom="0"
     inkscape:window-width="1800"
     inkscape:window-height="1111"
     inkscape:window-x="65"
     inkscape:window-y="24"
     inkscape:window-maximized="1" />
  <metadata
     id="metadata7">
    <rdf:RDF>
      <cc:Work
         rdf:about="">
        <dc:format>image/svg+xml</dc:format>
        <dc:type
           rdf:resource="http://purl.org/dc/dcmitype/StillImage" />
        <dc:title></dc:title>
      </cc:Work>
    </rdf:RDF>
  </metadata>
  <g
     inkscape:label="Layer 1"
     inkscape:groupmode="layer"
     id="layer1"
     transform="translate(-225.6675,-463.58654)">
    <g
       id="g3001"
       transform="translate(-20.7045,343.04654)">
      <path
         id="path2987"
         d="m 438.15,164.683 c 0,2.292 1.85,4.143 4.136,4.143 2.285,0 4.143,-1.85 4.143,-4.143 0,-2.287 -1.858,-4.134 -4.144,-4.134 -2.287,0 -4.137,1.846 -4.137,4.133"
         inkscape:connector-curvature="0"
         style="fill:#727d83" />
      <path
         id="path2989"
         d="m 487.792,135.066 c -10.02,0 -14.36,6.737 -15.822,12.418 -0.385,1.52 -0.574,3.14 -0.574,4.698 0,3.685 1.03,7.474 3.227,10.464 3.176,4.344 8.26,6.464 13.57,6.658 5.406,0.2 9.028,-0.723 11.738,-2.294 0.53,-0.307 0.642,-0.67 0.642,-1.66 v -4.37 c 0,-0.897 -0.534,-1.31 -1.37,-0.77 -2.915,1.854 -6.438,2.996 -10.913,2.642 -4.507,-0.352 -8.228,-3.507 -8.58,-7.98 h 22.25 c 0.49,0 0.882,-0.368 0.915,-0.905 0.363,-6.092 -1.388,-18.9 -15.083,-18.9 m -8.018,13.776 c 0,-2.49 2.072,-7.23 8.018,-7.23 3.283,0 7.134,1.884 7.134,7.23 h -15.152 z m -10.291,13.424 c -6.37,1.313 -10.29,-1.52 -10.29,-7.41 l -0.004,-11.102 h 7.492 c 0.54,0 0.98,-0.44 0.98,-0.976 v -4.087 c 0,-0.533 -0.44,-0.972 -0.98,-0.972 h -7.498 l -0.004,-12.885 c 0,-0.536 -0.44,-0.975 -0.97,-0.975 h -5.632 c -0.544,0 -0.98,0.44 -0.98,0.975 v 30.518 c 0,5.07 2.295,7.97 4.156,9.815 2.52,2.52 6.2,4.16 10.307,4.16 0.612,0.004 2.874,-0.096 3.91,-0.37 h 0.005 c 0.734,-0.21 0.838,-0.607 0.838,-1.622 v -3.954 c 0.008,-0.875 -0.568,-1.277 -1.33,-1.117 m 92.767,-23.543 c -2.52,-2.51 -6.204,-4.157 -10.312,-4.157 h -1.29 c -2.503,0 -4.845,0.62 -6.872,1.672 v -14.724 c 0,-0.538 -0.434,-0.973 -0.974,-0.973 h -5.636 c -0.54,0 -0.98,0.435 -0.98,0.973 v 46.34 c 0,0.537 0.44,0.973 0.98,0.973 h 5.636 c 0.54,0 0.974,-0.437 0.974,-0.973 v -1.463 l 0.008,-17.347 c 0,-4.75 2.542,-7.504 6.863,-7.716 h 1.29 c 4.33,0.212 6.872,2.968 6.872,7.716 l 0.015,18.792 c 0,0.536 0.428,0.975 0.965,0.975 h 5.645 c 0.537,0 0.975,-0.438 0.975,-0.975 v -19.292 c 0,-5.066 -2.304,-7.967 -4.16,-9.82 m -29.856,21.485 c -2.915,1.853 -6.438,2.995 -10.913,2.64 -3.696,-0.29 -6.86,-2.467 -8.074,-5.702 -1.377,-3.803 -2.172,-13.975 6.412,-15.643 3.197,-0.58 7.024,-0.322 11.012,2.16 0.598,0.377 1.385,0.16 1.438,-0.504 0,-0.022 1.087,-4.376 1.087,-4.376 v -0.038 c 0,-0.263 -0.132,-0.5 -0.354,-0.633 -3.233,-1.915 -7.093,-2.943 -10.892,-3.037 -0.2,-0.01 -0.893,-0.01 -0.978,-0.01 -5.228,0.09 -10.185,2.387 -13.313,6.652 -1.07,1.46 -1.797,3.132 -2.396,4.844 -1.042,2.978 -1.102,7.203 -0.056,11.045 0.494,1.814 1.344,3.522 2.453,5.037 3.18,4.34 8.254,6.464 13.566,6.658 5.412,0.2 9.03,-0.723 11.742,-2.294 0.527,-0.307 0.642,-0.67 0.642,-1.66 v -4.376 c 0,-0.89 -0.534,-1.303 -1.374,-0.764"
         inkscape:connector-curvature="0"
         style="fill:#727d83" />
      <path
         id="path2991"
         d="m 429.774,141.667 c -3.154,-4.31 -8.193,-6.59 -13.475,-6.606 -5.282,0.016 -10.32,2.298 -13.475,6.607 -2.18,2.977 -3.207,6.736 -3.207,10.396 0,3.657 1.027,7.416 3.207,10.393 3.155,4.308 8.192,6.59 13.474,6.606 5.28,-0.016 10.32,-2.298 13.474,-6.606 2.18,-2.977 3.207,-6.736 3.207,-10.393 0,-3.66 -1.025,-7.42 -3.206,-10.396 m -5.332,14.3 c -1.22,3.654 -4.124,6.57 -8.143,6.593 -4.02,-0.022 -6.923,-2.94 -8.142,-6.593 -0.39,-1.164 -0.648,-2.587 -0.65,-3.904 0.002,-1.32 0.26,-2.743 0.65,-3.908 1.22,-3.654 4.123,-6.57 8.14,-6.595 4.02,0.023 6.924,2.94 8.144,6.595 0.39,1.165 0.647,2.587 0.648,3.908 0,1.317 -0.26,2.74 -0.648,3.904 M 301.76,168.22 c 0,0.53 -0.433,0.963 -0.966,0.963 h -5.6 c -0.533,0 -0.965,-0.433 -0.965,-0.964 v -46.01 c 0,-0.533 0.43,-0.966 0.965,-0.966 h 5.6 c 0.532,0 0.965,0.433 0.965,0.966 v 46.01 z m -13.153,0 c 0,0.53 -0.432,0.963 -0.965,0.963 h -5.6 c -0.533,0 -0.965,-0.433 -0.965,-0.964 v -46.01 c 0,-0.533 0.432,-0.966 0.966,-0.966 h 5.6 c 0.532,0 0.964,0.433 0.964,0.966 v 46.01 z m 109.756,-31.18 v 3.928 c 0.012,0.868 -0.558,1.268 -1.32,1.11 -6.328,-1.304 -10.216,1.51 -10.216,7.356 l -0.01,18.783 c 0,0.533 -0.432,0.966 -0.965,0.966 h -5.6 c -0.532,0 -0.964,-0.433 -0.964,-0.966 V 148.94 c 0,-5.03 2.28,-7.913 4.124,-9.748 2.504,-2.493 6.16,-4.132 10.234,-4.13 0.604,-0.003 2.85,0.098 3.883,0.37 0.736,0.213 0.833,0.605 0.833,1.608 m -23.955,15.023 c 0,-3.708 -0.987,-7.36 -3.204,-10.396 -3.156,-4.31 -8.194,-6.59 -13.475,-6.606 -5.283,0.016 -10.32,2.298 -13.476,6.607 -4.312,5.89 -4.317,14.892 0,20.79 3.155,4.307 8.193,6.59 13.475,6.605 3.457,-0.01 6.807,-0.998 9.595,-2.884 v 4.11 c 0,5.583 -4.88,6.597 -8.004,6.79 -2.096,0.13 -5.08,-0.155 -6.424,-0.355 -0.855,-0.13 -1.453,0.02 -1.453,0.918 0.004,-0.018 -0.017,4.94 0,4.948 -0.017,0.365 0.277,0.76 0.882,0.81 7.244,0.625 12.13,0.492 15.807,-1.596 2.614,-1.486 4.41,-3.94 5.355,-6.803 0.68,-2.062 0.92,-4.597 0.92,-6.8 v -16.137 z m -16.68,10.497 c -4.018,0 -6.92,-2.94 -8.14,-6.593 -0.39,-1.164 -0.648,-2.587 -0.65,-3.904 0.002,-1.32 0.26,-2.743 0.65,-3.908 1.218,-3.654 4.122,-6.595 8.14,-6.595 8.993,0 9.296,9.182 9.298,10.502 -0.003,1.318 -0.305,10.498 -9.297,10.498 m -81.77,-13.866 c 0,-4.444 -0.995,-7.857 -3.125,-10.14 -2.214,-2.365 -6.43,-3.484 -10.395,-3.484 -3.965,0 -8.027,1.02 -11.404,3.028 -0.22,0.13 -0.35,0.364 -0.35,0.62 v 0.04 c 0,0 0.297,4.885 0.3,4.9 0.05,0.662 0.832,0.878 1.43,0.506 4.88,-3.04 10.74,-3.6 13.7,-2.107 2.086,1.05 2.64,3.267 2.64,4.7 v 0.713 H 260.6 c -3.496,0 -14.228,1.245 -14.228,11.16 v 0.162 c 0.004,3.382 1.164,6.11 3.474,7.912 2.14,1.685 5.065,2.484 8.69,2.485 l 16.47,-0.006 c 0.534,0 0.966,-0.433 0.966,-0.964 l -0.01,-19.526 z m -7.202,14.435 h -9.74 c -1.293,-0.082 -2.423,-0.415 -3.455,-1.21 -1.11,-0.86 -1.62,-1.873 -1.63,-3.2 0.018,-1.75 1.184,-5.274 7.11,-5.274 h 7.715 v 9.683 z m 53.61,-28.06 c -9.952,0 -14.26,6.683 -15.71,12.327 -0.385,1.5 -0.572,3.114 -0.572,4.666 0,3.657 1.026,7.416 3.205,10.393 3.156,4.308 8.198,6.41 13.476,6.606 5.373,0.2 8.966,-0.72 11.654,-2.28 0.525,-0.302 0.64,-0.67 0.64,-1.643 v -4.343 c 0,-0.892 -0.53,-1.298 -1.363,-0.768 -2.894,1.844 -6.39,2.977 -10.833,2.628 -4.475,-0.353 -8.17,-3.49 -8.52,-7.925 h 22.094 c 0.49,0 0.875,-0.367 0.907,-0.902 0.362,-6.044 -1.373,-18.76 -14.977,-18.76 m -7.963,13.676 c 0,-2.474 2.06,-7.176 7.963,-7.176 3.257,0 7.083,1.863 7.083,7.176 h -15.045 z"
         inkscape:connector-curvature="0"
         style="fill:#f05c22" />
      <path
         id="path2993"
         d="M 35,266.917 V 66"
         inkscape:connector-curvature="0"
         style="fill:none" />
    </g>
  </g>
</svg>
