<svg xmlns="http://www.w3.org/2000/svg" width="300" height="100" viewBox="0 0 300 100"><path fill="#FF5A00" d="M294.846 32.686c-5.072-6.896-13.172-10.55-21.662-10.573-8.49.023-16.59 3.677-21.662 10.573-3.503 4.764-5.154 10.78-5.154 16.64 0 5.852 1.65 11.87 5.154 16.633 5.072 6.894 13.173 10.548 21.662 10.57 8.49-.022 16.59-3.677 21.662-10.57C298.35 61.193 300 55.177 300 49.324c0-5.858-1.65-11.875-5.154-16.64zm-8.573 22.888c-1.96 5.85-6.63 10.516-13.09 10.553-6.46-.037-11.128-4.704-13.088-10.553-.626-1.862-1.043-4.14-1.045-6.25.002-2.113.42-4.39 1.045-6.255 1.96-5.848 6.63-10.518 13.088-10.555 6.46.038 11.13 4.707 13.09 10.554.624 1.864 1.04 4.14 1.043 6.254-.003 2.11-.42 4.388-1.043 6.25zM89.045 75.184c0 .853-.696 1.545-1.553 1.545h-9c-.858 0-1.553-.693-1.553-1.546V1.546C76.937.693 77.633 0 78.49 0h9c.857 0 1.553.693 1.553 1.546v73.638zm-21.144 0c0 .853-.694 1.545-1.55 1.545h-9.002c-.858 0-1.552-.693-1.552-1.546V1.546C55.796.693 56.49 0 57.348 0h9c.858 0 1.553.693 1.553 1.546v73.638zM244.348 25.28v6.287c.02 1.39-.896 2.03-2.122 1.777-10.173-2.087-16.423 2.415-16.423 11.774l-.015 30.063c0 .855-.695 1.548-1.554 1.548h-9c-.857 0-1.553-.692-1.553-1.547V44.328c0-8.048 3.663-12.665 6.63-15.603 4.025-3.99 9.9-6.613 16.452-6.612.972-.004 4.582.158 6.242.592h.005c1.18.344 1.337.972 1.337 2.576zm-38.51 24.045c0-5.935-1.588-11.777-5.152-16.64-5.073-6.895-13.173-10.55-21.662-10.572-8.49.023-16.59 3.677-21.662 10.573-6.932 9.427-6.94 23.834 0 33.273 5.072 6.894 13.172 10.548 21.663 10.57 5.56-.013 10.945-1.596 15.428-4.616v6.58c0 8.936-7.847 10.56-12.867 10.866-3.372.21-8.17-.247-10.33-.568-1.374-.206-2.335.033-2.335 1.47.006-.03-.026 7.905.003 7.917-.028.585.445 1.214 1.417 1.296 11.646 1 19.5.786 25.41-2.556 4.204-2.378 7.093-6.304 8.61-10.89 1.094-3.298 1.48-7.353 1.48-10.88V49.326zM179.02 66.127c-6.46 0-11.13-4.704-13.09-10.553-.624-1.862-1.04-4.14-1.043-6.25.002-2.113.418-4.39 1.042-6.255 1.96-5.848 6.63-10.555 13.09-10.555 14.456 0 14.942 14.696 14.945 16.81-.002 2.11-.488 16.802-14.945 16.802zM47.57 43.933c0-7.113-1.6-12.576-5.024-16.228-3.558-3.788-10.335-5.58-16.71-5.58S12.93 23.758 7.503 26.973c-.356.206-.565.583-.565.992 0 .032 0 .042.002.064l.48 7.842c.084 1.06 1.34 1.405 2.3.81 7.845-4.866 17.263-5.76 22.026-3.372 3.352 1.68 4.243 5.23 4.243 7.524v1.14H22.872C17.253 41.974 0 43.967 0 59.838c0 .055 0 .102.002.167l-.002.09c.007 5.415 1.87 9.782 5.584 12.664 3.44 2.694 8.144 3.975 13.97 3.977l26.48-.008c.857 0 1.552-.693 1.552-1.546l-.017-31.25zM35.99 67.038H20.33c-2.077-.13-3.893-.662-5.552-1.934-1.786-1.38-2.603-3-2.62-5.122.027-2.804 1.902-8.444 11.43-8.444H35.99v15.5zm86.186-44.912c-16 0-22.923 10.698-25.256 19.732-.62 2.402-.92 4.983-.92 7.467 0 5.853 1.65 11.87 5.152 16.634 5.072 6.894 13.178 10.256 21.663 10.57 8.637.323 14.413-1.15 18.735-3.646.844-.485 1.027-1.072 1.027-2.63v-6.95c0-1.428-.852-2.077-2.19-1.23-4.652 2.954-10.273 4.77-17.416 4.21-7.193-.565-13.134-5.585-13.697-12.685h35.52c.788 0 1.408-.588 1.46-1.444.58-9.677-2.207-30.03-24.077-30.03zm-12.802 21.89c0-3.96 3.31-11.485 12.802-11.485 5.237 0 11.388 2.984 11.388 11.486h-24.19z"/></svg>