<?xml version="1.0" encoding="UTF-8"?>
<!DOCTYPE svg PUBLIC "-//W3C//DTD SVG 1.1//EN" "http://www.w3.org/Graphics/SVG/1.1/DTD/svg11.dtd">
<svg version="1.1" id="svg2" sodipodi:docname="New document 1" inkscape:version="0.48.4 r9939" xmlns:dc="http://purl.org/dc/elements/1.1/" xmlns:inkscape="http://www.inkscape.org/namespaces/inkscape" xmlns:sodipodi="http://sodipodi.sourceforge.net/DTD/sodipodi-0.dtd" xmlns:svg="http://www.w3.org/2000/svg" xmlns:cc="http://creativecommons.org/ns#" xmlns:rdf="http://www.w3.org/1999/02/22-rdf-syntax-ns#" xmlns="http://www.w3.org/2000/svg" xmlns:xlink="http://www.w3.org/1999/xlink" x="0px" y="0px" viewBox="-479 369.8 320 63.2" enable-background="new -479 369.8 320 63.2" xml:space="preserve">
<sodipodi:namedview inkscape:window-maximized="1" inkscape:window-y="24" inkscape:window-x="65" inkscape:window-height="1111" inkscape:window-width="1800" inkscape:current-layer="g3001" inkscape:pageshadow="2" inkscape:pageopacity="0.0" fit-margin-bottom="0" inkscape:document-units="px" fit-margin-right="0" inkscape:cx="149.3325" id="base" inkscape:zoom="0.35" pagecolor="#ffffff" bordercolor="#666666" fit-margin-left="0" borderopacity="1.0" fit-margin-top="0" showgrid="false" inkscape:cy="-5.5875271">
	</sodipodi:namedview>
<g id="layer1" transform="translate(-225.6675,-463.58654)" inkscape:groupmode="layer" inkscape:label="Layer 1">
	<g id="g3001" transform="translate(-20.7045,343.04654)">
		<path id="path2987" inkscape:connector-curvature="0" fill="#727D83" d="M-40.9,534.5c0,2.3,1.9,4.1,4.1,4.1    c2.3,0,4.1-1.8,4.1-4.1c0-2.3-1.9-4.1-4.1-4.1C-39,530.4-40.9,532.2-40.9,534.5"/>
		<path id="path2989" inkscape:connector-curvature="0" fill="#727D83" d="M8.8,504.9c-10,0-14.4,6.7-15.8,12.4    c-0.4,1.5-0.6,3.1-0.6,4.7c0,3.7,1,7.5,3.2,10.5c3.2,4.3,8.3,6.5,13.6,6.7c5.4,0.2,9-0.7,11.7-2.3c0.5-0.3,0.6-0.7,0.6-1.7v-4.4    c0-0.9-0.5-1.3-1.4-0.8c-2.9,1.9-6.4,3-10.9,2.6c-4.5-0.4-8.2-3.5-8.6-8H23c0.5,0,0.9-0.4,0.9-0.9    C24.2,517.7,22.5,504.9,8.8,504.9 M0.8,518.7c0-2.5,2.1-7.2,8-7.2c3.3,0,7.1,1.9,7.1,7.2H0.8z M-9.5,532.1    c-6.4,1.3-10.3-1.5-10.3-7.4l0-11.1h7.5c0.5,0,1-0.4,1-1v-4.1c0-0.5-0.4-1-1-1h-7.5l0-12.9c0-0.5-0.4-1-1-1h-5.6c-0.5,0-1,0.4-1,1    v30.5c0,5.1,2.3,8,4.2,9.8c2.5,2.5,6.2,4.2,10.3,4.2c0.6,0,2.9-0.1,3.9-0.4h0c0.7-0.2,0.8-0.6,0.8-1.6v-4    C-8.2,532.3-8.8,531.9-9.5,532.1 M83.3,508.5c-2.5-2.5-6.2-4.2-10.3-4.2h-1.3c-2.5,0-4.8,0.6-6.9,1.7v-14.7c0-0.5-0.4-1-1-1h-5.6    c-0.5,0-1,0.4-1,1v46.3c0,0.5,0.4,1,1,1h5.6c0.5,0,1-0.4,1-1v-1.5l0-17.3c0-4.8,2.5-7.5,6.9-7.7h1.3c4.3,0.2,6.9,3,6.9,7.7l0,18.8    c0,0.5,0.4,1,1,1h5.6c0.5,0,1-0.4,1-1v-19.3C87.4,513.3,85.1,510.4,83.3,508.5 M53.4,530c-2.9,1.9-6.4,3-10.9,2.6    c-3.7-0.3-6.9-2.5-8.1-5.7c-1.4-3.8-2.2-14,6.4-15.6c3.2-0.6,7-0.3,11,2.2c0.6,0.4,1.4,0.2,1.4-0.5c0,0,1.1-4.4,1.1-4.4v0    c0-0.3-0.1-0.5-0.4-0.6c-3.2-1.9-7.1-2.9-10.9-3c-0.2,0-0.9,0-1,0c-5.2,0.1-10.2,2.4-13.3,6.7c-1.1,1.5-1.8,3.1-2.4,4.8    c-1,3-1.1,7.2-0.1,11c0.5,1.8,1.3,3.5,2.5,5c3.2,4.3,8.3,6.5,13.6,6.7c5.4,0.2,9-0.7,11.7-2.3c0.5-0.3,0.6-0.7,0.6-1.7v-4.4    C54.8,529.9,54.2,529.5,53.4,530"/>
		<path id="path2991" inkscape:connector-curvature="0" fill="#F05C22" d="M-49.2,511.5c-3.2-4.3-8.2-6.6-13.5-6.6    c-5.3,0-10.3,2.3-13.5,6.6c-2.2,3-3.2,6.7-3.2,10.4c0,3.7,1,7.4,3.2,10.4c3.2,4.3,8.2,6.6,13.5,6.6c5.3,0,10.3-2.3,13.5-6.6    c2.2-3,3.2-6.7,3.2-10.4C-46,518.2-47,514.5-49.2,511.5 M-54.6,525.8c-1.2,3.7-4.1,6.6-8.1,6.6c-4,0-6.9-2.9-8.1-6.6    c-0.4-1.2-0.6-2.6-0.6-3.9c0-1.3,0.3-2.7,0.6-3.9c1.2-3.7,4.1-6.6,8.1-6.6c4,0,6.9,2.9,8.1,6.6c0.4,1.2,0.6,2.6,0.6,3.9    C-53.9,523.2-54.2,524.6-54.6,525.8 M-177.2,538c0,0.5-0.4,1-1,1h-5.6c-0.5,0-1-0.4-1-1v-46c0-0.5,0.4-1,1-1h5.6c0.5,0,1,0.4,1,1    L-177.2,538L-177.2,538z M-190.4,538c0,0.5-0.4,1-1,1h-5.6c-0.5,0-1-0.4-1-1v-46c0-0.5,0.4-1,1-1h5.6c0.5,0,1,0.4,1,1V538    L-190.4,538z M-80.6,506.9v3.9c0,0.9-0.6,1.3-1.3,1.1c-6.3-1.3-10.2,1.5-10.2,7.4l0,18.8c0,0.5-0.4,1-1,1h-5.6c-0.5,0-1-0.4-1-1    v-19.3c0-5,2.3-7.9,4.1-9.7c2.5-2.5,6.2-4.1,10.2-4.1c0.6,0,2.9,0.1,3.9,0.4C-80.7,505.5-80.6,505.8-80.6,506.9 M-104.6,521.9    c0-3.7-1-7.4-3.2-10.4c-3.2-4.3-8.2-6.6-13.5-6.6c-5.3,0-10.3,2.3-13.5,6.6c-4.3,5.9-4.3,14.9,0,20.8c3.2,4.3,8.2,6.6,13.5,6.6    c3.5,0,6.8-1,9.6-2.9v4.1c0,5.6-4.9,6.6-8,6.8c-2.1,0.1-5.1-0.2-6.4-0.4c-0.9-0.1-1.5,0-1.5,0.9c0,0,0,4.9,0,4.9    c0,0.4,0.3,0.8,0.9,0.8c7.2,0.6,12.1,0.5,15.8-1.6c2.6-1.5,4.4-3.9,5.4-6.8c0.7-2.1,0.9-4.6,0.9-6.8L-104.6,521.9L-104.6,521.9z     M-121.3,532.4c-4,0-6.9-2.9-8.1-6.6c-0.4-1.2-0.6-2.6-0.6-3.9c0-1.3,0.3-2.7,0.6-3.9c1.2-3.7,4.1-6.6,8.1-6.6    c9,0,9.3,9.2,9.3,10.5C-112,523.2-112.3,532.4-121.3,532.4 M-203,518.5c0-4.4-1-7.9-3.1-10.1c-2.2-2.4-6.4-3.5-10.4-3.5    s-8,1-11.4,3c-0.2,0.1-0.4,0.4-0.4,0.6v0c0,0,0.3,4.9,0.3,4.9c0.1,0.7,0.8,0.9,1.4,0.5c4.9-3,10.7-3.6,13.7-2.1    c2.1,1.1,2.6,3.3,2.6,4.7v0.7h-8.2c-3.5,0-14.2,1.2-14.2,11.2v0.2c0,3.4,1.2,6.1,3.5,7.9c2.1,1.7,5.1,2.5,8.7,2.5l16.5,0    c0.5,0,1-0.4,1-1L-203,518.5L-203,518.5z M-210.2,532.9h-9.7c-1.3-0.1-2.4-0.4-3.5-1.2c-1.1-0.9-1.6-1.9-1.6-3.2    c0-1.8,1.2-5.3,7.1-5.3h7.7V532.9L-210.2,532.9z M-156.6,504.9c-10,0-14.3,6.7-15.7,12.3c-0.4,1.5-0.6,3.1-0.6,4.7    c0,3.7,1,7.4,3.2,10.4c3.2,4.3,8.2,6.4,13.5,6.6c5.4,0.2,9-0.7,11.7-2.3c0.5-0.3,0.6-0.7,0.6-1.6v-4.3c0-0.9-0.5-1.3-1.4-0.8    c-2.9,1.8-6.4,3-10.8,2.6c-4.5-0.4-8.2-3.5-8.5-7.9h22.1c0.5,0,0.9-0.4,0.9-0.9C-141.3,517.6-143,504.9-156.6,504.9 M-164.6,518.6    c0-2.5,2.1-7.2,8-7.2c3.3,0,7.1,1.9,7.1,7.2H-164.6L-164.6,518.6z"/>
		<path id="path2993" inkscape:connector-curvature="0" fill="none" d="M-444,636.7V435.8"/>
	</g>
</g>
</svg>
