<?xml version="1.0" encoding="utf-8"?>
<!-- Generator: Adobe Illustrator 16.0.0, SVG Export Plug-In . SVG Version: 6.00 Build 0)  -->
<!DOCTYPE svg PUBLIC "-//W3C//DTD SVG 1.1//EN" "http://www.w3.org/Graphics/SVG/1.1/DTD/svg11.dtd">
<svg version="1.1" id="Layer_1" xmlns="http://www.w3.org/2000/svg" xmlns:xlink="http://www.w3.org/1999/xlink" x="0px" y="0px"
	 width="300px" height="100px" viewBox="0 0 300 100" enable-background="new 0 0 300 100" xml:space="preserve">
<g>
	<g>
		<path fill="#FF5A00" d="M294.846,32.686c-5.072-6.896-13.172-10.55-21.662-10.573c-8.489,0.023-16.59,3.677-21.662,10.573
			c-3.503,4.764-5.154,10.781-5.154,16.639c0,5.853,1.651,11.87,5.154,16.634c5.072,6.895,13.173,10.549,21.662,10.572
			c8.49-0.023,16.59-3.678,21.662-10.572C298.351,61.194,300,55.178,300,49.325C300,43.467,298.351,37.45,294.846,32.686z
			 M286.273,55.574c-1.961,5.849-6.631,10.516-13.09,10.553c-6.459-0.037-11.128-4.704-13.088-10.553
			c-0.626-1.862-1.043-4.141-1.045-6.25c0.002-2.113,0.419-4.39,1.045-6.255c1.96-5.847,6.629-10.517,13.088-10.554
			c6.459,0.038,11.129,4.707,13.09,10.554c0.624,1.865,1.04,4.142,1.043,6.255C287.313,51.434,286.897,53.712,286.273,55.574z
			 M89.045,75.184c0,0.853-0.696,1.545-1.553,1.545h-9c-0.858,0-1.553-0.692-1.553-1.545V1.546C76.938,0.693,77.634,0,78.492,0h9
			c0.857,0,1.553,0.693,1.553,1.546V75.184z M67.901,75.184c0,0.853-0.695,1.545-1.552,1.545h-9.001
			c-0.858,0-1.552-0.692-1.552-1.545V1.546C55.795,0.693,56.49,0,57.348,0h9.001c0.857,0,1.552,0.693,1.552,1.546V75.184z
			 M244.347,25.28v6.287c0.019,1.39-0.896,2.03-2.122,1.777c-10.173-2.087-16.423,2.415-16.423,11.774l-0.015,30.063
			c0,0.854-0.695,1.547-1.554,1.547h-9c-0.857,0-1.553-0.692-1.553-1.547c0,0,0-30.046,0-30.854c0-8.048,3.663-12.665,6.63-15.603
			c4.025-3.99,9.901-6.613,16.452-6.612c0.972-0.004,4.582,0.158,6.242,0.592l0.005,0.001
			C244.19,23.048,244.347,23.676,244.347,25.28z M205.836,49.325c0-5.935-1.587-11.777-5.151-16.639
			c-5.073-6.896-13.173-10.55-21.662-10.573c-8.491,0.023-16.591,3.677-21.662,10.573c-6.933,9.427-6.941,23.834,0,33.273
			c5.071,6.895,13.171,10.549,21.662,10.572c5.559-0.014,10.945-1.597,15.428-4.617v6.581c0,8.935-7.848,10.559-12.868,10.865
			c-3.372,0.209-8.17-0.247-10.329-0.568c-1.375-0.206-2.336,0.033-2.336,1.47c0.006-0.031-0.026,7.905,0.003,7.917
			c-0.029,0.586,0.444,1.215,1.416,1.297c11.646,0.999,19.501,0.786,25.411-2.556c4.203-2.378,7.092-6.304,8.609-10.889
			c1.094-3.299,1.479-7.354,1.479-10.88V49.325z M179.022,66.127c-6.461,0-11.129-4.704-13.09-10.553
			c-0.624-1.862-1.04-4.141-1.043-6.25c0.003-2.113,0.419-4.39,1.043-6.255c1.961-5.847,6.629-10.554,13.09-10.554
			c14.456,0,14.942,14.696,14.945,16.809C193.965,51.434,193.479,66.127,179.022,66.127z M47.569,43.933
			c0-7.113-1.599-12.576-5.023-16.228c-3.558-3.788-10.335-5.58-16.71-5.58s-12.905,1.633-18.333,4.848
			c-0.356,0.206-0.565,0.583-0.565,0.992c0,0.032,0,0.042,0.002,0.064c0,0,0.478,7.818,0.481,7.843
			c0.083,1.059,1.338,1.405,2.299,0.81c7.845-4.866,17.263-5.761,22.026-3.372c3.352,1.681,4.243,5.229,4.243,7.524v1.14
			c0,0-8.739,0-13.116,0C17.253,41.975,0,43.967,0,59.838c0,0.055,0,0.102,0.002,0.167c0,0.027-0.002,0.056-0.002,0.09
			c0.007,5.415,1.87,9.782,5.584,12.664c3.441,2.695,8.144,3.976,13.97,3.978l26.479-0.008c0.858,0,1.553-0.692,1.553-1.545
			L47.569,43.933z M35.99,67.038H20.331c-2.078-0.131-3.894-0.662-5.553-1.934c-1.786-1.38-2.603-3-2.619-5.122
			c0.026-2.804,1.901-8.444,11.429-8.444H35.99V67.038z M122.176,22.126c-15.999,0-22.923,10.698-25.256,19.732
			c-0.62,2.402-0.921,4.983-0.921,7.467c0,5.853,1.651,11.87,5.153,16.634c5.072,6.895,13.178,10.257,21.663,10.572
			c8.637,0.322,14.413-1.151,18.735-3.647c0.844-0.485,1.027-1.072,1.027-2.631v-6.949c0-1.428-0.852-2.077-2.19-1.229
			c-4.652,2.953-10.273,4.768-17.416,4.208c-7.194-0.564-13.135-5.584-13.698-12.684h35.521c0.787,0,1.407-0.587,1.458-1.443
			C146.834,42.479,144.046,22.126,122.176,22.126z M109.374,44.016c0-3.959,3.31-11.485,12.802-11.485
			c5.237,0,11.388,2.983,11.388,11.485H109.374z"/>
	</g>
</g>
</svg>
